<svg xmlns="http://www.w3.org/2000/svg" viewBox="0 0 455.6 445.68"><defs><style>.cls-1{stroke:#fff;stroke-miterlimit:10;}</style></defs><g id="OBJECTS"><path class="cls-1" d="M91,166.23a10.59,10.59,0,0,0,12.59.27A11.36,11.36,0,0,0,98.9,160a13.68,13.68,0,0,0-9.21-2.19c-3.18.32-3.94,1.77-8.76,2.88,2.65.08,4.11,1.92,6.62,3.23A20.37,20.37,0,0,1,91,166.23Z"/><path class="cls-1" d="M84.83,127.41a17.42,17.42,0,0,0,7.59,1.74,14.32,14.32,0,0,0,7.71-2,14.93,14.93,0,0,0-6.92-6.71,17.23,17.23,0,0,0-12.65-.95,10.59,10.59,0,0,0-4.27,2.55c-1.14,1.07-2.53,2.31-4.45,4.41a6.49,6.49,0,0,1,4-1.06c1.39,0,2.8.37,4.43.58A15.21,15.21,0,0,1,84.83,127.41Z"/><path class="cls-1" d="M128.32,108.09a16.18,16.18,0,0,0-1.85,5.2c-.26,1.81-.58,4-.84,5.77a14,14,0,0,0,.09,4.52,16.4,16.4,0,0,0,1.33,4.12,13.23,13.23,0,0,0,5.44,6c1.78-2.4,2.58-5.89,2.7-9.14.12-4-1.09-7.58-2.25-10.77-.58-1.61-1.17-2.55-1.77-3.87a8.74,8.74,0,0,1-.37-6.34C129.94,105.26,129.12,106.59,128.32,108.09Z"/><path class="cls-1" d="M54.9,162.26a17.55,17.55,0,0,0,2.65-8.8,23.63,23.63,0,0,0-2.25-10.82c-1.48-3.41-3.16-3.63-5.58-9.14.64,3.25-.65,5.65-.91,9.31a48.74,48.74,0,0,1-.65,5.26C47.13,153.71,50.22,160.12,54.9,162.26Z"/><path class="cls-1" d="M46.51,174.25a10.6,10.6,0,0,0,6.25,1.46,13.17,13.17,0,0,0,6.51-2.25,10.91,10.91,0,0,0-5.47-6.35,13.84,13.84,0,0,0-10.16-1A10.31,10.31,0,0,0,40,168.07a36.21,36.21,0,0,1-4.57,3c2.64-.65,4.57.79,7.31,1.56A16.41,16.41,0,0,1,46.51,174.25Z"/><path class="cls-1" d="M49.78,204a14.24,14.24,0,0,1,4.15-.59c5.27-.22,10.31-4.14,11.59-9a14.82,14.82,0,0,0-8.77-1.19,16.6,16.6,0,0,0-5.12,1.61,17.91,17.91,0,0,0-5,3.5,7.07,7.07,0,0,0-2.09,4.83,8.14,8.14,0,0,0,.36,2.6,3.85,3.85,0,0,0,1.69,2.35,1.94,1.94,0,0,1,.35-2.63A6.66,6.66,0,0,1,49.78,204Z"/><path class="cls-1" d="M65,215.81a22.82,22.82,0,0,0-8.14-1.46,26.41,26.41,0,0,0-9.07,1.85A19.82,19.82,0,0,0,44.13,218a13.73,13.73,0,0,1-5.56,1.73c3.1.33,5,2.12,8.53,2.91l5.12,1.11a11.29,11.29,0,0,0,8.35-1.57A9.31,9.31,0,0,0,65,215.81Z"/><path class="cls-1" d="M131.75,236.52a49.67,49.67,0,0,1,2.89-4.05c3.39-4.22,3.33-11,0-14.72a16.31,16.31,0,0,0-6.07,6.13,20.65,20.65,0,0,0-2.62,9.8c-.18,3.44,1.23,4.4.87,10C127.7,240.77,129.9,239.43,131.75,236.52Z"/><path class="cls-1" d="M73.82,229.63a17.7,17.7,0,0,0-6.57,3.66,20,20,0,0,0-2.52,2.53,10.51,10.51,0,0,1-4.39,2.81c2.72-.29,4.66,1.08,7.92,1.07l4.72-.13A8.9,8.9,0,0,0,79.71,236,7.72,7.72,0,0,0,81,229,22.67,22.67,0,0,0,73.82,229.63Z"/><path class="cls-1" d="M265.18,69.87a15.14,15.14,0,0,0,7-5.56,18.16,18.16,0,0,0,2.42-4.68c.55-1.56.87-3,1.28-4.48a26.47,26.47,0,0,0,.71-4.06,18.39,18.39,0,0,1,1.8-5.68c-1.93,2.5-4.59,2.89-7.4,5.48-1.26,1.17-2.79,2.77-3.94,4a13.09,13.09,0,0,0-3.34,7.44A12.2,12.2,0,0,0,265.18,69.87Z"/><path class="cls-1" d="M136.81,98.14a8.5,8.5,0,0,0,5.1,5.2,7.69,7.69,0,0,0,6.91-.61A19.15,19.15,0,0,0,146.47,96a15.39,15.39,0,0,0-5.32-5.12A16.85,16.85,0,0,0,138,89.38a10.73,10.73,0,0,1-4.08-3c1.18,2.35.51,4.57,1.47,7.53C135.83,95.18,136.37,96.8,136.81,98.14Z"/><path class="cls-1" d="M157.2,83.48c-1.73-2.43-4.72-4.26-7.07-5.69-1.41-.88-2.74-1.53-3.95-2.15a30.11,30.11,0,0,1-3.82-2.2,22.24,22.24,0,0,0-4-2.18c-1.39-.59-3-1.59-5.65-2.61a6.37,6.37,0,0,1,2.38,3.45,33.2,33.2,0,0,0,1.69,4.71,27.66,27.66,0,0,0,3.36,5.42,11.37,11.37,0,0,0,4.33,3.23,12.66,12.66,0,0,0,4.94,1A11.12,11.12,0,0,0,157.2,83.48Z"/><path class="cls-1" d="M194.26,73.18a11.66,11.66,0,0,0,6.21-6.06,15.07,15.07,0,0,0,.69-10.63,10.92,10.92,0,0,0-2-3.77,36.82,36.82,0,0,1-3-4.75c.71,2.77-.68,4.84-1.39,7.76a18.8,18.8,0,0,1-1.59,4.07,12,12,0,0,0-1.31,6.68A13.6,13.6,0,0,0,194.26,73.18Z"/><path class="cls-1" d="M111.19,100.85c-1,3.6,1.81,7.19,6.26,8a9.82,9.82,0,0,0,3-5.84,8.47,8.47,0,0,0-2.24-6.45c-1.56-1.9-3.21-1.82-5.92-4.84.83,1.89-.34,3.53-.48,5.8A18.36,18.36,0,0,1,111.19,100.85Z"/><path class="cls-1" d="M105.91,124.9c1.72-2.28,2.2-5.79,1.65-9a16,16,0,0,0-6-9.68,11.1,11.1,0,0,0-4-2,48,48,0,0,1-5.53-2c2.41,1.81,2.68,4.39,4,7.25a18.43,18.43,0,0,1,1.25,4.37,13.83,13.83,0,0,0,2.9,6.48A15,15,0,0,0,105.91,124.9Z"/><path class="cls-1" d="M67.08,134.23a14.28,14.28,0,0,0-2.84,1.51,9.94,9.94,0,0,1-4.41,1.43c2.26.41,3.3,2.26,5.78,3.37,1.1.46,2.45,1.12,3.59,1.67a6.89,6.89,0,0,0,6.31-.19,7.22,7.22,0,0,0,3.69-5.22,15.54,15.54,0,0,0-5.72-3.16A10.23,10.23,0,0,0,67.08,134.23Z"/><path class="cls-1" d="M76.22,108.22a7.09,7.09,0,0,0,4.36,4.71,7.32,7.32,0,0,0,6.42-.59,15.52,15.52,0,0,0-1.45-6.46,10.7,10.7,0,0,0-4.73-4.55,14.33,14.33,0,0,0-3-1.19,10.26,10.26,0,0,1-4-2.44c1.19,2,.49,4,1.31,6.66C75.48,105.52,75.88,107,76.22,108.22Z"/><path class="cls-1" d="M335.92,89a14,14,0,0,1-2.21,2.82c-2.73,2.7-2.89,7-.57,11.12a9.44,9.44,0,0,0,6.61-3.43A10.85,10.85,0,0,0,342,91.16c-.4-2.92-1.83-3.68-3.23-7.9C338.89,85.59,337.13,86.87,335.92,89Z"/><path class="cls-1" d="M400,243.83a29.68,29.68,0,0,1-6.53-.79,30.08,30.08,0,0,0-11-.46,20,20,0,0,0-7.15,2.35c-14.78-3.12-28.71-10-42-17.69,2.42.23,5,.38,7.54.39l1.68,0,3,.61,13.08,2.67a12.6,12.6,0,0,0,5.85,5.87,16,16,0,0,0,11.44,1,11.48,11.48,0,0,0,4-2.07,50.84,50.84,0,0,1,4.92-3.27c-2.9.88-5.14-.44-8.21-1.1a18.18,18.18,0,0,1-4.26-1.61,14.12,14.12,0,0,0-6.93-1.59,15.47,15.47,0,0,0-6.72,1.66c-3.14-.86-6.81-1.78-10-2.49,2.43-.22,4.8-.54,7-.95,1.65-.3,3.23-.65,4.69-1a16.69,16.69,0,0,0,7.61,1.14,17.22,17.22,0,0,0,5.42-1.3,15.21,15.21,0,0,0,2.93-1.56,11.75,11.75,0,0,0,2.55-2.35,8.8,8.8,0,0,0,1.85-4.5,54.45,54.45,0,0,1,1.14-6c-1.46,2.77-4,3.74-6.5,5a8,8,0,0,1-3.87.67,11.69,11.69,0,0,0-3.8.52,14.48,14.48,0,0,0-3.67,1.72,12.23,12.23,0,0,0-4.87,5.9c-1.17.23-2.39.45-3.66.64a85.64,85.64,0,0,1-12.26.94l-.81-.14,0,.14c-.5,0-1,0-1.49,0a85.87,85.87,0,0,1-10.92-.92l-2.43-1.44c-5.8-3.45-11.59-7-17.92-9.31a64.28,64.28,0,0,0-7.57-2.21,34,34,0,0,0,7.69-1.5l.26-.09c1.06-.3,2.26-.62,3.67-1A105.38,105.38,0,0,1,331,207a20.7,20.7,0,0,0,7.64,3.1,39.66,39.66,0,0,0,11.61,0c1.8-.17,2.91-.5,4.4-.73a9.17,9.17,0,0,1,6.54,1.43c-1.48-1.35-2.65-2.53-4-3.73a17,17,0,0,0-4.94-3.15c-1.85-.74-4.07-1.52-5.85-2.16a15.05,15.05,0,0,0-4.81-.86,19.57,19.57,0,0,0-4.66.59,14.59,14.59,0,0,0-6.71,3.62,91.44,91.44,0,0,0-11.48,1.18c.94-.63,1.84-1.28,2.68-1.93A67.43,67.43,0,0,0,327,199.6c2.9-.06,6.06-1.69,8.48-3.89a18.73,18.73,0,0,0,5.55-10.44,13.08,13.08,0,0,0,0-4.65,33.7,33.7,0,0,1-.39-3.67c1.27-.15,2.55-.36,3.82-.64a18.81,18.81,0,0,0,4.06-1.51,17.15,17.15,0,0,1,5.92-1.52c-3.26-.38-5.19-2.27-8.76-3.34-1.61-.46-3.53-1.11-5.12-1.65a12.85,12.85,0,0,0-8.69.19,10.69,10.69,0,0,0-6,5.18c-.72.11-1.46.22-2.22.36A105.23,105.23,0,0,0,308.23,178a106.31,106.31,0,0,0,6.89-10.1c.56-.54,1.14-1.11,1.83-1.69a46.8,46.8,0,0,1,10.14-6.75,48.13,48.13,0,0,1,12.15-4.1c1.2-.24,2.36-.41,3.47-.53a26.88,26.88,0,0,0,7.23,4.17A34.57,34.57,0,0,0,360,161a23.48,23.48,0,0,0,4.35-.14,15.2,15.2,0,0,1,6.19.79c-3-1.65-4.2-4.14-7.44-6.36l-4.7-3.13a12.88,12.88,0,0,0-9-1.91,10.76,10.76,0,0,0-6.18,3.06,40.58,40.58,0,0,0-4.21.38,45.75,45.75,0,0,0-20.63,8.4c.72-1.4,1.41-2.81,2-4.25.52-1.21,1-2.43,1.51-3.66q1.16-1.92,2.28-3.88a91.63,91.63,0,0,1,5.66-9.06l.05.07c.59-.34,1.32-.79,2.26-1.29a37.13,37.13,0,0,1,5.77-2.51,6.68,6.68,0,0,0-.28,1,86.5,86.5,0,0,0,9.15,1.44c1.72.22,3.35.37,5.06.5l5.42.45a30.83,30.83,0,0,0,4.72,0,20.57,20.57,0,0,1,6.73.9c-3.33-1.65-4.74-4.3-8.43-6.64-1.67-1-3.77-2.26-5.63-3.16a13.4,13.4,0,0,0-10.9-.23,10.86,10.86,0,0,0-5,4.12,31.44,31.44,0,0,0-6.39,2.27c.34-.38.68-.75,1-1.12a39.09,39.09,0,0,1,7.25-5.7l0,0,.53-.4a40.86,40.86,0,0,1,5.05-2.5,22.63,22.63,0,0,1,5.43-1,28.79,28.79,0,0,1,8.21.79c.78.19,1.51.39,2.22.6a21.27,21.27,0,0,0,4.57,4.91,18.55,18.55,0,0,0,4.06,2.42,33.37,33.37,0,0,0,4.73,1.64,10,10,0,0,0,4.56.17,17.1,17.1,0,0,0,2.43-.55,7.45,7.45,0,0,0,2.71-1.44,2.91,2.91,0,0,1-3.06-.61c-.9-.72-1.65-1.7-2.77-2.77-.51-.48-1-1.07-1.61-1.7L376,129.07a11.44,11.44,0,0,0-7.38-3.71,9.75,9.75,0,0,0-7.37,2.1l.1.18c-.39-.13-.78-.27-1.19-.39a27.89,27.89,0,0,0-8.55-1.15,22.73,22.73,0,0,0-5,.75.52.52,0,0,0-.21,0l1.27-1c.07.2.12.42.2.61,2.92-.91,5.74-3.48,7.75-6.37a22.72,22.72,0,0,0,3.76-12c.12-4.14-1.24-5.06-1.76-11.39-.41,3.51-2.49,5.5-4.22,8.87a32.78,32.78,0,0,1-2.94,4.61,17.94,17.94,0,0,0-3.21,14.36c-.87.6-1.78,1.21-2.64,1.85l-5.73,4.12-.4.29a42.36,42.36,0,0,0-3.82,2.83,22.15,22.15,0,0,0,1.16-2.81,23.83,23.83,0,0,0,.27-13.05c-1.07-4.14-2.64-4.65-5-10.73.67,3.58-.74,6.18-1.41,10a33.54,33.54,0,0,1-1.52,5.41c-2,5.28-1.4,11.77,1.4,16.12a49.42,49.42,0,0,0-3.26,4c-2.86,4-5.14,8.32-7.76,12.45a96.11,96.11,0,0,1-8.4,11.37c-2,2.27-4,4.44-6.15,6.53a50.37,50.37,0,0,0,1.71-5.25c.08-.29.15-.58.23-.87l.21,0c0-.18,0-.41,0-.63.79-3,1.54-6,2.22-8.79.17-.66.32-1.29.47-1.91a17.5,17.5,0,0,0,5-5.31,20.81,20.81,0,0,0,2.88-10.07c.19-3.2-.94-4.3-.94-8.76a14.87,14.87,0,0,0,3.66-.5,8.2,8.2,0,0,0,3.83-2.33,11.72,11.72,0,0,0,2.87-4.44,2.88,2.88,0,0,1-2.74,1.12,20.92,20.92,0,0,1-3.33-.8,13.29,13.29,0,0,1-3.59-1.65,11,11,0,0,0-13.19,1.67,13.06,13.06,0,0,0,6,5.58,13.62,13.62,0,0,0,4.7,1.29c.4,0,.81.06,1.22.07-1,2.09-2.8,3.49-4.32,5.9a45.25,45.25,0,0,1-2.93,4.08,11.53,11.53,0,0,0-1.15,1.7,20.12,20.12,0,0,0-2.4-4.16c-2.34-3-4-2.88-8.15-6.83,1.78,2.61,1.33,5.24,1.9,8.55a23.3,23.3,0,0,1,.26,4.85,15.19,15.19,0,0,0,5.4,12.11c.21,2.42.45,5,.61,7,.07.71.13,1.28.18,1.8a42.84,42.84,0,0,1-3.75,9.53,139.76,139.76,0,0,1-16.36,12.67c.13-.18.28-.35.41-.53,1.86-2.78,1.07-4.24,3-8.76-1.6,2.07-3.92,2.22-6.36,3.23a9.38,9.38,0,0,1-3.57.73,10,10,0,0,0-2.51.3,7.41,7.41,0,0,0-1.08.4c-.36.13-.67.34-1.16.55a11.78,11.78,0,0,0-3.32,2,4.79,4.79,0,0,0-1.22,1.74,3.82,3.82,0,0,0-.18.88l-.57.12a60.05,60.05,0,0,0-11.19,3.88c-1.57.72-3.08,1.52-4.52,2.34,1.25-1.29,2.54-2.56,3.8-3.85l.12-.13,7.75-7c3.29-1.64,8-3.33,11.52-5.5h0a11.44,11.44,0,0,0,7.11,0,13.21,13.21,0,0,0,7.3-6.05c1.61-2.77.9-4.23,2.68-8.77-1.54,2.1-3.87,2.21-6.35,3.44a18,18,0,0,1-3.82,1.31,9.22,9.22,0,0,0-3.12,1.38,51,51,0,0,0,4-4.4,50.37,50.37,0,0,0,2.93-4.11c2.9-1.07,5.81-3.95,7.65-7.26a24.35,24.35,0,0,0,2.66-14.39c-.51-4.64-2.08-5.29-3.56-12.27.12,4-1.58,6.68-2.75,10.79a32,32,0,0,1-2.26,5.62,26.85,26.85,0,0,0-2.19,6,26.35,26.35,0,0,0-1.35-4.87c-1.3-3.29-2.7-3.95-4.92-7.73.13-3.05.22-6.1.36-9.14.09-.32.18-.63.28-1a59.81,59.81,0,0,1,2.45-6.54c.32-.42.67-.87,1.09-1.38a37.64,37.64,0,0,1,9-7.9,48.22,48.22,0,0,1,5.15-2.75c2.52,1.15,5.07,2.12,7.41,3a54.69,54.69,0,0,0,10,2.44c3.65.66,4.87-.48,10.95.94-3.13-1.46-4.33-4-7.5-6.44-1.44-1.07-3.19-2.42-4.71-3.51l-.27-.17c1.16-.26,2.31-.58,3.48-1a19.24,19.24,0,0,0,3.64-1.75,14.25,14.25,0,0,1,5.52-1.72c-3.07-.31-4.91-2.12-8.37-3-1.55-.35-3.43-.85-5-1.25a11.18,11.18,0,0,0-8.25,1.17,9.45,9.45,0,0,0-4.7,6.06c.4.2.81.35,1.23.52a7.84,7.84,0,0,0-4,4.34,25.4,25.4,0,0,0-5.08,2.08,32.32,32.32,0,0,0-6.85,4.91,73.59,73.59,0,0,1,5.12-7.57c.92-1.23,1.75-2.44,2.47-3.6a11.91,11.91,0,0,0,1.46,1.84,10.25,10.25,0,0,0,5.42-6,12.68,12.68,0,0,0-.5-9.67c-.1-.21-.2-.38-.3-.56a33.14,33.14,0,0,1,7.9-.77c3.41.07,6,.73,6.08.5s-2.48-1.22-6-1.59a28.57,28.57,0,0,0-7.19.19,34.75,34.75,0,0,1,7.85-2.06l6.9,1.43a28.26,28.26,0,0,0,4.82.46,33.74,33.74,0,0,0,5.48-.33,13.51,13.51,0,0,0,4.42-1.45c1.36-.68,3-1.4,5.61-2.59a7.15,7.15,0,0,1-4.19-.47c-1.32-.5-2.63-1.21-4.31-1.79-1.52-.52-3.36-1.33-4.94-2a12.32,12.32,0,0,0-9.51-.09,9.82,9.82,0,0,0-3.91,2.8,6.76,6.76,0,0,0-1.42,3A32.52,32.52,0,0,0,299,87.42c-.59.23-1.16.48-1.73.74l-.42-.43a31.44,31.44,0,0,1-2.82-3,20.94,20.94,0,0,0,1.46-4.41,24,24,0,0,0-1.21-13.44,15.75,15.75,0,0,0-2.63-4.47,46.58,46.58,0,0,1-3.87-5.77c1.2,3.53.18,6.37,0,10.35a32.17,32.17,0,0,1-.84,5.67c-1.28,5.44-.22,11.75,2.75,16a44.13,44.13,0,0,1-3.2,8.14c-.38.73-.72,1.34-1,1.87-5.65,7.41-8.5,16.94-10.58,26.5-.28-1.93-.65-3.94-1-6a17.16,17.16,0,0,0-.22-5.34,16.08,16.08,0,0,0-1.37-4.08c0-.27-.08-.55-.11-.81a7.12,7.12,0,0,0,.64.48c1.75-2.75,2.72-6.58,3.33-10.15a47.19,47.19,0,0,0,0-13.11A24.87,24.87,0,0,0,274.92,81a23.65,23.65,0,0,1-1-7.26c-.71,4-2.8,6.42-4.14,10.8-.57,2-1.35,4.33-2,6.27a18.5,18.5,0,0,0-.19,10.68,17,17,0,0,0,1.27,3.26c-.48-.53-1-1-1.49-1.5a13.39,13.39,0,0,0-4.07-2.46,42.57,42.57,0,0,1-5.64-2.88c2.41,2.28,2.6,5,3.94,8.3a23.82,23.82,0,0,1,1.36,4.9,16.82,16.82,0,0,0,3.27,7.34,16.51,16.51,0,0,0,4.48,4.07,40.77,40.77,0,0,0,2.61,4.22l.23.32c.11,1,.2,1.9.24,2.79a1,1,0,0,1,0,.18c-.8,4.05-1.53,8.05-2.34,11.82a90.15,90.15,0,0,1-9.77,26,47.86,47.86,0,0,0,1-6,50.38,50.38,0,0,0,.1-9.57,45.65,45.65,0,0,0-.82-5.74c.17.09.33.21.51.29,1.6-2.61,1.89-6.54,1.16-10.11A20.43,20.43,0,0,0,257,125.61a14,14,0,0,0-4.31-2.51,53.2,53.2,0,0,1-5.19-2.38c1.24-7.09,1.59-14.26-.2-21.17a27,27,0,0,0,4.24-7A35.64,35.64,0,0,0,254,81.88a22.57,22.57,0,0,0-.1-4.56,17.51,17.51,0,0,1,.68-6.45c-1.58,3.17-4.08,4.57-6.3,7.94-1,1.52-2.21,3.34-3.21,4.85a13.37,13.37,0,0,0-2,4.86c-1.28-2.79-2.58-5.56-3.65-8.36,0-.68-.09-1.47-.09-2.47a31.87,31.87,0,0,1,1.77-10.46c.22-.64.45-1.23.68-1.78a20.73,20.73,0,0,0,8.11-2.39,25.59,25.59,0,0,0,7.53-6.3,17.79,17.79,0,0,0,2.3-3.5,15.91,15.91,0,0,1,3.86-4.53c-2.82,1.47-5.41,1-8.87,2.14-1.54.54-3.44,1.12-5,1.6A12.06,12.06,0,0,0,243,57.74a10.42,10.42,0,0,0-1.56,6.45,24.43,24.43,0,0,0-1.37,2.63A28.06,28.06,0,0,0,238,74.43c-.09-.43-.19-.88-.3-1.36,0-.21-.11-.44-.16-.66,0-.9,0-1.79,0-2.69.24-1.14.54-2.51,1-4.2a50.65,50.65,0,0,1,2.85-8.24,34.87,34.87,0,0,1,2.75-4.9,3.85,3.85,0,0,1,1-.49,11.3,11.3,0,0,1,1.65-.23,13,13,0,0,0,1.87-.33,19.4,19.4,0,0,0,2.18-.78,20.1,20.1,0,0,0,8.32-7,14.34,14.34,0,0,0,1.9-3.93,10.7,10.7,0,0,1,3.46-5,26.55,26.55,0,0,1-4.34,1.74A32.66,32.66,0,0,0,255.69,38,34.41,34.41,0,0,1,251,39.87a13.53,13.53,0,0,0-6.49,4.65c-.21.27-.4.54-.59.82a11.61,11.61,0,0,0-.67,1,8.73,8.73,0,0,0-1,2.32,3.89,3.89,0,0,0,.52,3.43,32.83,32.83,0,0,0-2.71,4.58,43.83,43.83,0,0,0-2.8,7.51s0,.06-.05.09a25.78,25.78,0,0,0-.64,2.63c-.09.39-.17.77-.24,1.12-.24-.73-.5-1.47-.82-2.2a14.59,14.59,0,0,0-2.14-3.55,34.31,34.31,0,0,0-2.71-2.78c-1-1-2-1.85-2.8-2.64a10.4,10.4,0,0,0-2.64-6.34,14.11,14.11,0,0,0-8.21-4.43c-3.07-.6-4.22.59-9.17-.06,2.48,1,3.25,3.24,5.33,5.28A25.79,25.79,0,0,1,216,54.54a9.58,9.58,0,0,0,5.24,3.61,17.09,17.09,0,0,0,6.53.3,3.7,3.7,0,0,0,.09-.48c.65.71,1.35,1.48,2.11,2.29s1.72,1.81,2.49,2.81a14.55,14.55,0,0,1,1.84,3.3,50.3,50.3,0,0,1,1.94,7c.47,9.18,4.87,18.2,6.39,27.21a36.64,36.64,0,0,1,.08,11,69.36,69.36,0,0,0-2.09-9.36A38.8,38.8,0,0,0,235.3,91.2,25.2,25.2,0,0,0,232.65,88c.25-.09.53-.14.78-.25-.92-2.91-3.35-5.73-6-7.86a28,28,0,0,0-4.83-3c-.72-.37-1.35-.67-2-1a21.83,21.83,0,0,1-2-1.24c-1.36-1-2.42-1.56-3.69-2.4a18.82,18.82,0,0,1-4.7-4.59,15.67,15.67,0,0,1,1.3,4.75A18.88,18.88,0,0,0,213,77.86a25.52,25.52,0,0,0,3.7,5.73,13.74,13.74,0,0,0,4.11,3.18,17.69,17.69,0,0,0,4.28,1.54,15,15,0,0,0,6.63,0,26.5,26.5,0,0,1,2.7,3.49,40,40,0,0,1,4.82,10.86c.31,1.09.58,2.18.82,3.26-.39-.4-.81-.82-1.29-1.28a72.57,72.57,0,0,0-10.56-8.43l.08,0a12.24,12.24,0,0,0-4.76-7.31,15.8,15.8,0,0,0-10.21-3.07,11.4,11.4,0,0,0-3.83.85c0-.55,0-1.1,0-1.64a19.6,19.6,0,0,0-.73-4.55,20,20,0,0,1-.45-6.45c-.95,3.37-3.17,5.14-4.89,8.7-.74,1.61-1.75,3.52-2.59,5.08a14.63,14.63,0,0,0-1.51,9.08,12.8,12.8,0,0,0,2.15,5.51c0,.22,0,.44,0,.68a31.21,31.21,0,0,0,.56,5.57,38,38,0,0,1-2.39-6.13c-1.38-4.49-1.62-8.18-1.86-8.17s-.34,3.75.8,8.45a38.47,38.47,0,0,0,4.73,11.28,122.79,122.79,0,0,1-12.69-7.7c-.58-.43-1.16-.88-1.72-1.35a57.14,57.14,0,0,1-4.54-5.64,8.54,8.54,0,0,0,1.61,1.14,18.12,18.12,0,0,0,4.19-6.8,20,20,0,0,0,.75-8.91,16.64,16.64,0,0,0-.95-3.8,14.14,14.14,0,0,1-.67-5.52c-.83,2.8-2.93,4.13-4.47,7.1-.67,1.34-1.57,2.94-2.32,4.27a10.43,10.43,0,0,0-1,7.76c0,.17.1.33.15.49a34.06,34.06,0,0,1-4.21-12.78c.05-.34.12-.72.21-1.2a21,21,0,0,1,1.91-5.51c.86-1.69,1.78-2.88,1.62-3s-1.39.81-2.55,2.46a14.78,14.78,0,0,0-1.64,3c0-.7.05-1.38.12-2,0-.24,0-.46.08-.69.12.06.24.14.37.19,1.76-2.17,3.37-3.82,4.74-5.55a17,17,0,0,0,2.13-3.57A24.15,24.15,0,0,0,186,61.76a11,11,0,0,0,.09-4.26c-.21-1.37-.36-3-.79-5.49a5.15,5.15,0,0,1-1.62,3.19c-.85.88-1.89,1.65-2.92,2.76a40.33,40.33,0,0,1-3.44,3.09,10.29,10.29,0,0,0-3.59,7.62,8.41,8.41,0,0,0,1,4.27,5.93,5.93,0,0,0,1.52,1.79c-.08.38-.16.76-.22,1.17a23.88,23.88,0,0,0-.34,3.37A16.75,16.75,0,0,0,173,75.84a18.61,18.61,0,0,0-9.4-4.61c-3.45-.68-4.59.53-10.08-.22,2.82,1.09,3.92,3.42,6.43,5.58A30.82,30.82,0,0,1,163.29,80a12.35,12.35,0,0,0,6.48,3.9,21.5,21.5,0,0,0,6.16.27A26.3,26.3,0,0,0,177,89.23c.14.45.29.86.43,1.25a12.26,12.26,0,0,0-3-1.51,13.59,13.59,0,0,0-6.38-.51,17.16,17.16,0,0,0-5.63,2c-3.3,1.85-3.13,3.6-8,6.78,3-1.08,5.5-.26,8.84-.35a17.72,17.72,0,0,1,4.61.51c4,1,7.34.35,11.3-.8a1,1,0,0,1,.22.08,4.7,4.7,0,0,1,1.31.84A59.19,59.19,0,0,0,191.77,111a20.14,20.14,0,0,0-2.73-.66,49.63,49.63,0,0,0-7.84-.41h-1.41a22.09,22.09,0,0,1-.17-2.92,10.94,10.94,0,0,1-1.11,2.94c-3.48.07-5.93.34-5.92.52a40.28,40.28,0,0,0,5.42.37,37.27,37.27,0,0,0-2.67,4.76c-.66,1.58-1.55,3.44-2.32,5a13.18,13.18,0,0,0-1.36,5.08c0-.05-.06-.11-.1-.16a15.81,15.81,0,0,0-5.69-5c-.11-.06-.21-.09-.32-.14a5.12,5.12,0,0,0-2.59-3.67c-1.45-.94-3-1.45-3.79-1.93a20.52,20.52,0,0,0-3.08-1.37l-3.82-1.3a21.76,21.76,0,0,0-3.76-.82,14.29,14.29,0,0,1-5.2-2c2.11,2,2.2,4.58,4.32,7.39,1,1.25,2.18,2.81,3.37,4.07a9.15,9.15,0,0,0,4,2.48,9.39,9.39,0,0,0,4.69.25c2.17-.47,3.06-1.68,4.79-2.42.3.15.59.29.89.47a15.38,15.38,0,0,1,5,4.87c.25.38.48.76.7,1.15s.49,1,.72,1.51c0,.12,0,.25.06.37a12.69,12.69,0,0,0,1.68,4.36c.37,1.27.71,2.55,1,3.85a20.72,20.72,0,0,0-2.33-1.87,21.43,21.43,0,0,0-5.82-2.83c-3.9-1.22-7.09-.78-7-.62s3.09.23,6.7,1.65a23.2,23.2,0,0,1,5.35,3,21.86,21.86,0,0,1,3.79,3.6c.19.86.37,1.71.57,2.56a50.35,50.35,0,0,0,5.22,14c-1.34-1.13-2.76-2.2-4.14-3.2a74.38,74.38,0,0,0-10.81-6,33.45,33.45,0,0,0-4.74-1.77,18.8,18.8,0,0,1-6.28-3.64c2.63,3.1,3.31,6.22,6.26,9.85,1.36,1.58,3,3.53,4.4,5.07a16.77,16.77,0,0,0,9.67,5.19,12.87,12.87,0,0,0,8.38-1.22c.34.45.66.9,1,1.35,1.49,1.86,3.09,3.63,4.73,5.38a58.57,58.57,0,0,1-7.83.58l-5-1.18-6.54-1.49a41.74,41.74,0,0,1-6.87-1.84,17,17,0,0,1-5.46-4.43,52.62,52.62,0,0,1-4.44-5.52c-.9-1.27-1.69-2.52-2.41-3.72a24.85,24.85,0,0,0,.2-9.07,35.2,35.2,0,0,0-3.73-10.85,21.56,21.56,0,0,0-2.63-3.89,19.87,19.87,0,0,1-3.12-5.84c.54,3.57-.73,6.19-.72,10.29,0,1.83,0,4.06-.05,5.89a15.07,15.07,0,0,0,2.88,9.1,12.54,12.54,0,0,0,5.66,4.5,50.59,50.59,0,0,0,2.56,4.5,50.07,50.07,0,0,0,4.36,5.88,18.65,18.65,0,0,0,6,5.1,22.74,22.74,0,0,0,4.09,1.35c-2.54-.38-5.07-.81-7.57-1.26-8.92-1.61-17.9-3.47-26.38-6.55l-2.29-1.89a21.78,21.78,0,0,1-4.26-4,43.86,43.86,0,0,1-2.43-4.67l.41.08a32.64,32.64,0,0,0,.45-9.37,36.2,36.2,0,0,0-2.92-11c-1.5-3.63-3.15-4-5.58-9.89.66,3.49-.68,6.06-.9,10-.09,1.8-.32,4-.5,5.81a14.67,14.67,0,0,0,2.34,9.43,11.56,11.56,0,0,0,5.3,4.52,43.44,43.44,0,0,0,2.64,5.85,10.78,10.78,0,0,0,.8,1l-.43-.3c-1.5-1-3.35-2-5-3.21a16.7,16.7,0,0,1-4-4.46c-2-3.25-2.73-6.26-3-6.19s.14,3.15,2,6.74a17.27,17.27,0,0,0,1.49,2.3c-.21-.19-.43-.37-.64-.58a29.77,29.77,0,0,1-4.86-6c-2.57-4.19-3.27-8-3.54-8a7.05,7.05,0,0,0,.33,2.55,24.43,24.43,0,0,0,2.26,5.94,28,28,0,0,0,2.4,3.73.28.28,0,0,0,0,.42l.06,0-.14-.06c-.9-.45-1.86-.86-2.82-1.24a11.1,11.1,0,0,0-1.59-.56,8.31,8.31,0,0,0-2.19-3.43,13.12,13.12,0,0,0-4.92-2.92,14.2,14.2,0,0,0-7-.48,16.43,16.43,0,0,0-6.2,2.45,11.53,11.53,0,0,0-3.43,3.51c-.89,1.28-1.91,2.77-3.83,5.08,2.64-2,5.41-1.78,8.75-2.28a14.4,14.4,0,0,1,4.74.15,21.71,21.71,0,0,0,7,.28,43.54,43.54,0,0,0,6.54-1.28,9,9,0,0,1,1.63.67c.87.4,1.77.83,2.66,1.32,1.66.86,3.25,1.72,4.59,2.53a27.17,27.17,0,0,0,4.68,3.32c.56.34,1.09.58,1.59.83l2.07,1.44a21.6,21.6,0,0,0-4.25.51c-2.86.68-5,1-5.06,1.15s2.34.33,5.23-.07a22.79,22.79,0,0,1,4.53-.17,15.72,15.72,0,0,1,2.23.38,144.14,144.14,0,0,0,45.9,19.62c2,1.88,3,4.21,5.18,6.71,1.16,1.3,2.47,3,3.48,4.38a15.37,15.37,0,0,0,6.67,5.16c-.69,0-1.37-.11-2-.14-6.14-4.31-13.49-6.76-20.67-9.13a63.07,63.07,0,0,0-9.8-2.65,42.28,42.28,0,0,0-11.89,0h0l-1,.1c-.53,0-1.12,0-1.83,0a25.9,25.9,0,0,1-8.31-1.92,8.47,8.47,0,0,0,1-.44,18.16,18.16,0,0,0-2.43-7.08,17.28,17.28,0,0,0-5.79-5.57,16.59,16.59,0,0,0-3.33-1.56,12.1,12.1,0,0,1-4.36-3c1.4,2.36.89,4.69,2,7.68.52,1.32,1.1,3,1.6,4.35a9.26,9.26,0,0,0,5.19,5.36,8.76,8.76,0,0,0,4.38.62l.15.1a21.54,21.54,0,0,0,5.63,2.3c-2.69.41-5.58.93-8.16,1.45a5.84,5.84,0,0,0-2.44-2.11,9.87,9.87,0,0,0-5.25-.81,12.84,12.84,0,0,0-5.13,1.74,24.36,24.36,0,0,0-3.18,2.32,15.87,15.87,0,0,1-2.53,2,4.53,4.53,0,0,1-2,.58,4.36,4.36,0,0,1-3.29-1.38,13.3,13.3,0,0,0,3.43,3.53,8.91,8.91,0,0,0,5,1.77,49.59,49.59,0,0,0,5.42-.32,11.29,11.29,0,0,0,3.49-.87,10.28,10.28,0,0,0,2.34-1.4c1.34-1,2.47-2.49,4.79-3.57,0-.12-.05-.24-.08-.36l2.59-.34a39.17,39.17,0,0,0-3.85,2.38c-1.76,1.25-3,2.38-2.87,2.55s1.57-.63,3.44-1.62,4.18-2.13,5.9-2.93l.91-.43a54.27,54.27,0,0,1,5.93-.56,15.27,15.27,0,0,0-3.06,1.79c-2.42,1.78-3.51,3.89-3.33,4s1.54-1.65,3.94-3.07a22.34,22.34,0,0,1,7.22-2.63,57.59,57.59,0,0,1,14.83,2.79,70.84,70.84,0,0,1,13.21,6.46c-1.45.07-2.91.13-4.36.25a1.16,1.16,0,0,0-1.4.09,109.07,109.07,0,0,0-22.88,2.62c-6.08,1.38-12.1,3.06-18.29,3.88a58.42,58.42,0,0,1-16.65-.13c-.91-.14-1.81-.34-2.72-.52a14.72,14.72,0,0,1-4.3-3.58,18.05,18.05,0,0,0,1.18-6.48,19.72,19.72,0,0,0-2.58-9.24c-1.48-2.94-3.2-3.07-5.48-8.08.55,2.93-.78,5.08-1,8.44-.09,1.51-.31,3.34-.53,4.84A11.28,11.28,0,0,0,97.2,195a10.17,10.17,0,0,0,6,4.5,4,4,0,0,0,.17-.36,14.54,14.54,0,0,0,1.14,1.35l-.54,0c-1-.27-2-.56-3-.88l-.78-.53a19.45,19.45,0,0,1-4.35-4.31A19,19,0,0,1,93,189a20.14,20.14,0,0,1-.83-5c0-1.29,0-2.09,0-2.09a7.64,7.64,0,0,0-.26,2.1,18.22,18.22,0,0,0,.61,5.18,18.79,18.79,0,0,0,2.79,6,19.45,19.45,0,0,0,3.27,3.57c-.24-.09-.49-.16-.73-.26-2.36-1.13-4.84-2.44-7.4-3.7-.9-.47-1.83-.92-2.75-1.37A64.81,64.81,0,0,1,82,189.49c-.83-.89-1.62-1.84-2.42-2.72l-2-2.39A22.49,22.49,0,0,1,75.85,182c-.49-.81-.92-1.59-1.3-2.34a22.2,22.2,0,0,0,.93-7.75,27.08,27.08,0,0,0-2.76-10,19,19,0,0,0-2.33-3.67,17.38,17.38,0,0,1-2.71-5.49c.3,3.28-1.15,5.57-1.44,9.3-.11,1.67-.34,3.7-.53,5.38A12.94,12.94,0,0,0,67.76,176a10.82,10.82,0,0,0,6,4.63c.29.67.61,1.36,1,2.08a24.22,24.22,0,0,0,1.58,2.58c.27.34.54.71.81,1.07-.66-.21-1.38-.41-2.11-.59-1.83-2.74-5.63-5-9.62-6.14a25.17,25.17,0,0,0-14.91.58,16.44,16.44,0,0,0-4.93,2.71c-1.42,1.1-3.13,2.3-6.16,4.21,3.76-1.47,6.87-.58,11.12-.44a30,30,0,0,1,6,.94,28.89,28.89,0,0,0,9.72.75,23.42,23.42,0,0,0,7.17-1.74l4.2,1.52c.44.15.79.27,1.1.36l.32.29a22.39,22.39,0,0,0,4,4.26,16.67,16.67,0,0,0,1.56,1,10.28,10.28,0,0,0-2,.15A13.14,13.14,0,0,0,77,196.79a21.12,21.12,0,0,0-3.7,3.74c-2.15,2.76-1.57,4.32-4.72,8.88,2.24-2,4.8-1.94,7.85-3.2A31.67,31.67,0,0,1,81,204.76l.26-.09a12.33,12.33,0,0,0-3.38,4.5,14.06,14.06,0,0,0-1.14,5.89,10.18,10.18,0,0,0,1.08,4.3,32.32,32.32,0,0,1,1.94,5.47c-.05-3,1.7-4.84,3.06-7.52A11.51,11.51,0,0,1,85.37,214c2.74-2.38,3.79-5.13,5.21-8.85l.76-.09a35.67,35.67,0,0,0,6-1.44,15.09,15.09,0,0,1,4.6-.89,24.93,24.93,0,0,0,5,1.22,21.12,21.12,0,0,0-4.54,3.73c-.25.26-.46.52-.67.78a13.72,13.72,0,0,0-7.61,4.86,18.08,18.08,0,0,0-4,11.47,12.21,12.21,0,0,0,.91,4.63,50.81,50.81,0,0,1,1.77,6c0-3.24,1.86-5.21,3.36-8.27A21.57,21.57,0,0,1,99,223a16.38,16.38,0,0,0,3.43-6.93,16.18,16.18,0,0,0,.13-7.06l.66-.59a27.92,27.92,0,0,1,6-4c.5-.25.92-.44,1.29-.6a71.48,71.48,0,0,0,22.42-.25,25.76,25.76,0,0,0-2.27,2c-2.57,2.6-2.18,4.22-6,8.56,2.58-1.85,5.21-1.56,8.53-2.58a34.58,34.58,0,0,1,4.9-1.08,13.55,13.55,0,0,0,10.78-9.38,126,126,0,0,1,15.18.24,31.91,31.91,0,0,1-6.61,5.15c-5.05,3-10.67,4.17-16.39,5.09a81.37,81.37,0,0,0-12.25,2.67l-.12-.27a41.14,41.14,0,0,0-3.8,1.81l-.13.07-.93.46h0a16.25,16.25,0,0,1-2.17,1.07,13.61,13.61,0,0,1-4.47,1,13.43,13.43,0,0,1-4.8-.69c-3-1-4.81-2.79-5.05-2.55s1.24,2.51,4.43,4.06a13.16,13.16,0,0,0,3.9,1.18,12.13,12.13,0,0,0-6.22,4.46,15,15,0,0,0-2.68,11,10.61,10.61,0,0,0,1.55,4.18c.75,1.24,1.55,2.7,2.73,5.12-.59-2.89,1-4.92,2-7.76a15.8,15.8,0,0,1,2.15-3.83,12.39,12.39,0,0,0,1.27-2.12c.63,2.12,1.43,3.48,1.67,3.39s-.25-2.29-.43-5.1c0-.61-.06-1.25-.06-1.9,0-.19.09-.37.11-.57a14.86,14.86,0,0,0,.15-2,6.84,6.84,0,0,1,1.86-3c.61-.63,1.17-1.13,1.61-1.56l-.05-.05c1.61-1.07,3.21-2,4.65-2.8s2.52-1.3,3.45-1.74c2-.22,3.94-.31,5.9-.4,8-.39,16.13-1.07,23.83-3.44A42.18,42.18,0,0,0,176,202.84c4.73.79,9.42,1.78,14.1,2.83a44.84,44.84,0,0,1,21.54,19.92c.61,2.2,1.08,4.43,1.48,6.68a17.73,17.73,0,0,0-11.19-5.81,12.24,12.24,0,0,0-4.93.44c-1.53.44-3.31.85-6.24,1.51,3.34,0,5.3,2.05,8.24,3.83a18.27,18.27,0,0,1,3.76,3.22,19.51,19.51,0,0,0,6.22,4.62,21.09,21.09,0,0,0,5.33,1.75c0,.06,0,.12,0,.18a131.75,131.75,0,0,1-5.43,47.93c-6.08,13.6-17.67,26.68-32.26,29.43-8.28,1.56-17.59,0-24.54,4.73-4.06,2.78-6.74,7.44-11.2,9.53-8.46,4-18.3-3.11-27.52-1.63-2.41.39-4.69,1.35-7.08,1.82-5.2,1-10.55-.32-15.68-1.66a22.14,22.14,0,0,0,17.94,5.25c3.29-.43,6.53-1.6,9.84-1.33,3.92.31,7.36,2.57,11,4s9.12.24,11.8-2.63c-2.27,2.57-4,8-4.3,11.42,4.8-7.65,10.25-15.84,18.82-18.71,6.89-2.32,14.47-.7,21.67-1.77a35.55,35.55,0,0,0,4.88-1.12c-.33.29-.66.57-1,.84a45.12,45.12,0,0,1-8.75,5l-15.68,7.51c-4.5,2.15-9.12,4.39-12.45,8.1-.37.42-.7.86-1,1.31a43.35,43.35,0,0,0-14.58,3.3,26.58,26.58,0,0,0-13.48,13.23,22.73,22.73,0,0,1,12.17-10.93,35.1,35.1,0,0,1,13.71-2.28c-2.3,4-4,8.48-7,12-5,5.88-12.92,8.27-20.13,11.13S99.23,383.63,96.85,391c1.7-3.76,4.6-5.86,8.34-7.61s7.78-2.75,11.67-4.12a61.31,61.31,0,0,0,27.68-19.88c3.17-4,5.86-8.52,9.64-12s8.29-5.69,13-7.6a17.15,17.15,0,0,1-4.34,10.32c-4.08,4.49-10.3,6.54-14.42,11a17.73,17.73,0,0,0-4.27,11.47c.57-4,3.07-7.51,6.06-10.24s6.49-4.83,9.77-7.19c6.37-4.59,12.19-10.73,14.39-18.13A62,62,0,0,0,186,331.45a25.64,25.64,0,0,0,8.76-9.14l1.11-.46a86.81,86.81,0,0,1,9.73-3.53A43.73,43.73,0,0,1,181.27,352c-3.28,1.52-6.75,2.63-10,4.21a37.22,37.22,0,0,0-12.85,10.35c-2.88,3.64-5,7.78-7.73,11.57s-6,7.33-10.38,9c-4.51,1.72-10.05,1.43-13.44,4.86,8.78-1,17.54-2.23,24.55-7.61,3.94-3,6.86-7.16,9.84-11.2.12,6.51-.25,13-2.09,19.25-2.22,7.48-6.83,14.53-13.7,18.22,5.81-1.24,10.45-5.3,14-10a51.53,51.53,0,0,0,10-36.66c.33-.26.65-.52,1-.76,4.76-3.37,10.59-4.81,15.89-7.24a43.45,43.45,0,0,0,11.81-8.12,27.54,27.54,0,0,1,.61,4.8c.37,10.55-5.93,20.18-13.14,27.9-5.8,6.21-12.54,12-15.68,19.89-3.32,8.33-2.31,18.7-1,27.56-.12-7.92,2.12-15.66,4.34-23.25a28.16,28.16,0,0,1,2.42-6.33,30.57,30.57,0,0,1,4.34-5.37c4.71-5,9.21-10.2,13.52-15.55a30.39,30.39,0,0,1-4.12,19.32c-2.5,4.09-6,7.58-8,11.93a20.64,20.64,0,0,0-.5,16,31.75,31.75,0,0,1,6.65-17.45c1.45-1.9,3.08-3.66,4.56-5.55a41.37,41.37,0,0,0,8.46-28.1c1.65,4.93,4.81,9.41,7,14.18,3.37,7.25,4.47,16.1.58,23.08-1.3,2.31-3.09,4.35-4.06,6.82a21.8,21.8,0,0,0-1.82,7.63c0,1.73.67,3.79.76,5.54a24.2,24.2,0,0,1,4.92-14.67,49.4,49.4,0,0,0,3.36-4.28,11.53,11.53,0,0,0,1.52-7.72,26.12,26.12,0,0,1,0,9.33c-.38,2.08-1,4.12-1.19,6.22a14.63,14.63,0,0,0,13.38,15.81c-5-3.9-9.49-9.61-8.86-15.93a41.65,41.65,0,0,1,1.4-5.89,27.53,27.53,0,0,0-1.23-17c-1.73-4.21-4.48-7.92-6.56-12s-3.57-8.42-2.34-12.81c-.18,4.14,1.65,8.12,4,11.52s5.23,6.42,7.57,9.84a38,38,0,0,1,4.89,32.94A50,50,0,0,0,227.36,405a32,32,0,0,0-8.43-19.54c-1.12-1.16-2.35-2.22-3.36-3.48-3.23-4-3.79-9.55-3.69-14.71a35.18,35.18,0,0,1,1.35-9.86c1.65-5.24,5.11-9.73,7-14.89a32.77,32.77,0,0,0,1.3-4.68c1.58,4.37,2.29,9,.93,13.33-1.5,4.83-5.32,8.62-7.22,13.31-2,4.84-1,10.78,1.41,15.4a26,26,0,0,1-.36-9.3,11.06,11.06,0,0,1,1.27-4.07,13.87,13.87,0,0,1,2.35-2.74,15,15,0,0,0,3.52-3.33,13.9,13.9,0,0,0,2.57-6.14,23.22,23.22,0,0,1,.93,9.2c-.64,4.69-3.35,8.93-3.77,13.65-.45,5,1.76,9.93,4.78,13.95s6.83,7.37,10.23,11.08a48.47,48.47,0,0,1,10.64,17.44,30.68,30.68,0,0,1-.1,20.2,16.84,16.84,0,0,0,4.86-11.67,17.24,17.24,0,0,0-4.29-12.05,16.59,16.59,0,0,0,7.08,3.73c1.7.42,3.45.57,5.14,1A15,15,0,0,1,272.05,432c.21-4-.1-8.56-3-11.37s-7.8-2.95-11.74-4.47c-7.25-2.8-11.36-10.63-14.19-17.87A52.74,52.74,0,0,0,262,407.84c3,.82,6.18,1.44,8.51,3.47a17.15,17.15,0,0,1,3.51,5c2.13,3.91,4.3,8,4.51,12.43-.15-4.38-.33-8.81-1.61-13s-3.84-8.17-7.69-10.24c-2.49-1.34-5.35-1.81-8-2.8-3.83-1.43-7.19-3.95-11.09-5.2-2.32-.75-4.78-1-7.11-1.78a18.31,18.31,0,0,1-11.13-10.31,17.67,17.67,0,0,1,.76-14.88A14.6,14.6,0,0,1,247.39,380c.62,1.79.87,3.71,1.64,5.44a10.12,10.12,0,0,0,11,5.58c-3.7-.89-7.75-2.29-9.44-5.69-1.26-2.54-.86-5.59-1.8-8.27-1.35-3.83-5.12-6.19-8.73-8.05a15.29,15.29,0,0,1-4.1-3.1c2.72-3.7,5.55-7.72,5.65-12.31.11-4.95-3-9.32-4.76-13.93-.2-.52-.38-1.05-.56-1.58a32.17,32.17,0,0,0,8.68,6.32,38.57,38.57,0,0,0,4.8,1.83,16.36,16.36,0,0,1,4.6,7.85c1.51,6.22-.74,12.86.57,19.13a17.5,17.5,0,0,0,14.58,13.38,32.57,32.57,0,0,1-8.51-8.12A16.6,16.6,0,0,1,258,367.34c.46-3.64,2.41-7,2.79-10.63a16.57,16.57,0,0,0-.81-6.62,51.09,51.09,0,0,1,5.38,3.07,29.09,29.09,0,0,1,6.79,5.91c4.1,5.12,5.5,12,5,18.55-.23,3-.83,6-.94,9.08a29.26,29.26,0,0,0,7.41,20.43c2.29,2.56,5.06,4.76,6.7,7.78,2.22,4.1,2,9.09,1,13.64,2-3.47,3.42-8.21,3-12.2A15.13,15.13,0,0,0,288.94,406c-1.57-1.25-3.42-2.14-4.84-3.55-2.82-2.79-3.53-7.11-3.15-11.05s1.68-7.75,2.24-11.67.3-8.22-2.1-11.37a21,21,0,0,1,10.61,12.29c1.39,4.31,1.35,9,2.76,13.29,3.07,9.41,13.71,15.67,23.43,13.77a24.49,24.49,0,0,1-8.77-1.34,9.43,9.43,0,0,1-3.45-1.73,10.47,10.47,0,0,1-2.14-3A63.48,63.48,0,0,1,298.07,388c5.71,2.4,12.17.46,17.45,3.68,3.14,1.91,4.92,5.39,6.54,8.68A12.2,12.2,0,0,0,313.44,388c-5.28-1.46-11.57.7-16-2.49-3.8-2.72-4.39-8-6.17-12.31a21.08,21.08,0,0,0-7.65-9.38,22,22,0,0,1-4.33-3.16c-5.29-5.83-10.15-11.9-17-15.73-2-1.08-4-2-5.93-3.13a23.11,23.11,0,0,1-10.72-16.66c2.35,1.62,4.43,3.61,6.79,5.21,4.21,2.85,9.13,4.4,13.94,6.06s9.66,3.55,13.48,6.9,6.43,8.5,5.48,13.5a9.73,9.73,0,0,0-.38,2.87,3.72,3.72,0,0,0,.11.48,6.7,6.7,0,0,0,1.8,4c1.75,1.76,4.38,2.26,6.85,2.54a14.45,14.45,0,0,1-3.59-2.19A6,6,0,0,1,288,361a4.11,4.11,0,0,1,.31-2.19,4.86,4.86,0,0,1,.6-.9h.3a40.64,40.64,0,0,1,4.33,2.65,14.36,14.36,0,0,1,3.58,3.79,35.72,35.72,0,0,1,2.88,6.9c.89,2.76.79,5.9,2.4,8.31,2.22,3.33,6.74,4,10.72,4.39a10.73,10.73,0,0,1-4.88-1.92,14.54,14.54,0,0,1-2.65-1.59,10,10,0,0,1-3.9-6.47,21,21,0,0,0-2.82-11.47c-1.59-2.71-4-5.14-7-6a7.68,7.68,0,0,1,8.78,3.92,11.31,11.31,0,0,0-7.17-7.22,18.43,18.43,0,0,1-3-1A10.37,10.37,0,0,1,287,348.6c-4.45-6.51-10-13.3-17.74-14.64a18.31,18.31,0,0,1,12,.74c14.28,5.55,23.12,21.72,29.05,34.92,3.44,7.66,8.35,15.09,16,19.06,2.64,1.38,5.53,2.29,8,3.93s4.59,4.3,4.48,7.28c1-3.68-1.33-7.75-4.43-10s-6.81-3.5-9.74-5.93a32,32,0,0,1-4.51-4.93l-3.58-4.52c1.93,2.06,4.93,3,7.79,3.39,3.3.45,6.72.37,9.85,1.5,3.77,1.36,6.71,4.32,10.09,6.47s7.94,3.44,11.31,1.26a17.37,17.37,0,0,1-11.49-3c-4.58-3.2-8-8.78-13.52-9.46a50.76,50.76,0,0,0-5.65.14c-5.35,0-10.29-3.46-13.14-8-.54-.86-1-1.75-1.5-2.65l-4-7.62c5.12,2.73,11.36,2.59,16.63,5,5.86,2.72,9.81,8.25,13.5,13.55a28.69,28.69,0,0,0-17.91-18.86c-4.24-1.46-9-2-12.48-4.77-3.75-3-5.29-7.89-8.05-11.82a22.25,22.25,0,0,0-23.43-8.44c7-2.9,14.82-6.35,21.9-3.66,5.9,2.24,9.72,7.82,13.46,12.9,2.81,3.82,6.11,7.73,10.23,9.82a15.41,15.41,0,0,1-1.68-1.76q-4.5-5.49-8.59-11.29c1.57,1.88,4.3,2.26,6.73,2.07s4.87-.83,7.29-.48c4.12.61,7.36,4.06,8.91,7.93s1.7,8.12,1.84,12.28c1.24-4.7,1.45-9.81-.3-14.35s-5.68-8.39-10.48-9.21c3.69.18,7.5.38,10.77,2.08,4.08,2.12,6.7,6.23,10.17,9.25a23.18,23.18,0,0,0,15.05,5.67c3.62,0,7.58-.77,10.64,1.18,4.09,2.59,4.25,8.4,3.94,13.23,3.19-2.85,2.94-8.24.4-11.68S368.12,350,364,348.92s-8.46-1.49-12.48-2.94-7.88-4.18-9.3-8.22a7.62,7.62,0,0,0,6.08,2.2c2.22-.07,4.39-.69,6.6-1a22.33,22.33,0,0,1,17.32,5.25c-1.57-4.17-5.24-7.29-9.3-9.11s-8.53-2.53-12.95-3.1c-7.8-1-15.74-1.74-23.53-.59-6.22.91-12.85,2.94-18.56.3-4.86-2.25-7.83-7.44-12.64-9.8-7.42-3.65-16.23.52-24.49,0-10.71-.63-19.48-9.19-24.34-18.76h0c-5.9-14.3-5.36-31.25-3.87-46.77.76-7.87,1.71-15.84,4.79-23.12,2.44-5.78,6.42-11.12,11.68-14.41.73-.18,1.46-.38,2.19-.54a71,71,0,0,1,32.1.39l.66.18a25.71,25.71,0,0,0,2.21,6.17,28.69,28.69,0,0,0,6.19,7.8,19.61,19.61,0,0,0,3.43,2.51,15.42,15.42,0,0,1,4.35,4.22c-1.32-3-.72-5.61-1.78-9.21-.5-1.6-1.05-3.57-1.52-5.2a10.49,10.49,0,0,0-.93-2.29c5.76,2.33,11.36,5.07,16.92,7.81,9.84,4.85,19.69,9.57,30.24,12.68,1.8.53,3.6,1,5.42,1.47a19.72,19.72,0,0,0,2.45,5.18,17.35,17.35,0,0,0,6.05,5.24,16.72,16.72,0,0,0,3.39,1.41,12.14,12.14,0,0,1,4.47,2.81c-1.49-2.32-1.07-4.66-2.34-7.62-.59-1.3-1.26-2.93-1.83-4.29,0-.11-.1-.21-.15-.32,1.59.24,3.19.44,4.79.61a32,32,0,0,0,8.9,3.34,29.87,29.87,0,0,0,16-.94,16.26,16.26,0,0,0,5.33-3.11c1.46-1.25,3.27-2.69,6-5.3a11.1,11.1,0,0,1-5.43,1.83C404.21,243.91,402.27,243.81,400,243.83Zm-92.73-86.64c-.52,1.64-1,3.41-1.51,5.21-.13-1.19-.31-2.47-.5-3.74a9.87,9.87,0,0,0,1.82-2.93c.13.19.23.4.37.58l.09-.05ZM290.81,89.26a13.48,13.48,0,0,0,2.84-3.87c.12,1.71-.59,3.34-.91,5.32-.61.43-1.17.86-1.69,1.3s-1,.9-1.44,1.32A39.71,39.71,0,0,0,290.81,89.26Zm-7.57,17.42A42.4,42.4,0,0,1,291.44,95a9.35,9.35,0,0,0-.41,5.68,12.21,12.21,0,0,0,1.24,3.16c-.8,1.19-1.75,2.46-2.81,3.77a60.69,60.69,0,0,0-6.57,9.47c-.58,1-1.1,2.11-1.59,3.16-.31.43-.58.83-.81,1.18l.22.14c-.2.45-.39.89-.56,1.33A68.82,68.82,0,0,1,283.24,106.68ZM272.7,123c.08-.16.17-.31.24-.47.06.39.13.78.19,1.16C273,123.43,272.84,123.19,272.7,123Zm1.92,55.26c-2.17,1.12-4.74,2.11-7.2,3.1l.16-.14,8.18-7.49,1.06-1A11.71,11.71,0,0,0,274.62,178.22ZM285,160.63c0,.33.09.67.15,1-.47.68-1,1.36-1.48,2.05A18.15,18.15,0,0,0,285,160.63Zm-8.16-2.71a15.29,15.29,0,0,0,4.44,8.65,81,81,0,0,1-6.35,6.17l-8.27,7.38-2.4,2.15A70.68,70.68,0,0,0,276.81,157.92Zm-149.34-.51.08-.08.29.25ZM96.67,201.6a45.28,45.28,0,0,1-5.4,1.77l.09-.25a6.63,6.63,0,0,0-4.52-1c-.27,0-.55.1-.83.16.15-.12.32-.24.46-.36a14.69,14.69,0,0,1,5-3.34,3.75,3.75,0,0,0-.28-1c2.34,1.24,4.63,2.47,6.86,3.52C97.59,201.26,97.12,201.43,96.67,201.6Zm20.65,18.94.62,0c-.18.14-.34.29-.51.43C117.39,220.81,117.36,220.67,117.32,220.54Zm61.24-77.89h0l-.29-.51c-.52-1-1-2-1.5-3.07l.13,0c-.08-.61-.18-1.36-.3-2.31,0-.32-.08-.66-.11-1a21,21,0,0,0,4-7.33,27.1,27.1,0,0,0,1-10.84,17.47,17.47,0,0,0-1-4.37c-.19-.66-.39-1.38-.56-2.27l1.22.08a60.69,60.69,0,0,1,7.61.71,28,28,0,0,1,6.1,2.08c2.55,2.22,5.2,4.34,7.84,6.41l-.78,0c-3.83-1-8.34-1.7-12.06-2.64-4.69-1.11-8-3-8.08-2.79s3,2.42,7.78,3.83c2.14.68,4.51,1.25,6.86,1.81-1.65,0-3.35.07-4.87.07-3,0-5.31,0-5.33.19s2.28.64,5.28.9a71.92,71.92,0,0,0,9.44.21l.84,0c.86.23,1.69.46,2.45.71,1,.33,1.89.65,2.64.94,2.72,2.09,5.37,4.13,7.84,6.17,9.07,7.47,17,16.32,19.76,28.07.25,1.08.44,2.18.6,3.29-.25-.29-.5-.58-.78-.88a31.58,31.58,0,0,0-5.74-8.06c-4.46-4.54-10.38-7.11-15.44-9.28l-1.38-.59c.07-.11.16-.21.22-.32-2.35-1.84-4.83-3.43-7.1-4.87a48,48,0,0,0-9.26-4.23c-3.44-1.29-4.85-.38-10.52-2.79,2.79,2,3.49,4.67,6.14,7.57l3.91,4.27a12.66,12.66,0,0,0,9.08,3.86,9.62,9.62,0,0,0,6.47-2.24l1.77.83c5,2.35,10.58,5,14.59,9.28a27.86,27.86,0,0,1,2,2.44,25.35,25.35,0,0,0-8-3.09,24.16,24.16,0,0,0-8.6-.1,7.7,7.7,0,0,0-2.6-1.08,12.72,12.72,0,0,0-4.47-.1,13.66,13.66,0,0,0-4.45,1.51,28.57,28.57,0,0,0-3.37,2.24c-1.08.8-1.69,1.54-2.63,2.34a6.53,6.53,0,0,1-1.84,1.11,6,6,0,0,1-2.28.43A59.79,59.79,0,0,1,178.56,142.65ZM209,198.1q-5.85-1.28-11.8-2l.45-.13a19.07,19.07,0,0,0-4.77-8.36,27,27,0,0,0-9.75-6.46c-.22-.09-.42-.18-.62-.25,2.11.34,4.24.65,6.36.9a59,59,0,0,0,11.88,1.6,47.06,47.06,0,0,1,8.92,14.85Zm18.34-4.77c-.27.64-.51,1.28-.76,1.93-5-2.56-8.79-7.15-12-11.84-3.58-5.24-6.8-10.87-11.61-15-2.68-2.31-5.78-4.09-8.62-6.21-1-.75-2-1.56-2.91-2.39.79.33,1.53.66,2.33,1a12.29,12.29,0,0,0,4.57,1c1.58,0,3.45-.06,5-.12a10.09,10.09,0,0,0,6.38-2.58,17.54,17.54,0,0,0,3.43-4.56,23.49,23.49,0,0,1,7.47.44,24.38,24.38,0,0,1,9.77,4.68,22.91,22.91,0,0,1,2.06,1.84,28.78,28.78,0,0,1,2.17,6.28,32.84,32.84,0,0,1,.59,4c-.08.6-.17,1.19-.27,1.78a9.28,9.28,0,0,0-.45-1,11.57,11.57,0,0,0-8.41-6,8.38,8.38,0,0,0-4.08.35c-1.27.41-2.74.82-5,1.46,2.5,0,3.73,2,5.58,3.65a10.24,10.24,0,0,1,2.18,2.9,9.06,9.06,0,0,0,3.77,3.91,17,17,0,0,0,4.51,1.69C231.43,184.87,229.19,189,227.35,193.33ZM235.51,138c-.12.49-.23,1-.35,1.49-3.81-4.86-8.77-8.83-13.66-12.68a161.4,161.4,0,0,0-14.2-10.35l-.82-.49-.37-.46c-.31-.4-.61-.82-.91-1.26-.06-.13-.11-.25-.16-.39a40.09,40.09,0,0,1-2.44-10.09c.2.19.39.37.6.54A21.66,21.66,0,0,0,208,96.17a25,25,0,0,0,1.23-5.35c.55.35,1.13.71,1.77,1a21,21,0,0,1,3.68,2.55,12.92,12.92,0,0,0,12.19,2.3,96,96,0,0,1,10.82,9l2.68,2.67.17-.16c.38,2,.68,3.89.92,5.63.13.94.24,1.78.35,2.58-.61,2.7-1.39,5.39-2.22,8.06a17.66,17.66,0,0,0-6.42-8.72c-2.92-2.16-4.45-1.57-9.31-4.33,2.25,2.06,2.38,4.65,3.74,7.63a26.12,26.12,0,0,1,1.5,4.5,13.54,13.54,0,0,0,7.9,9.15C236.46,134.49,236,136.23,235.51,138Zm2.87,62c-.19.31-.38.65-.58,1,1.56-6.89,5.28-13.76,6.29-20.72a64.51,64.51,0,0,0,.62-10.51c.06.06.11.13.17.18a19.48,19.48,0,0,0,5.58-7.1,26.36,26.36,0,0,0,2.41-10.4,18.07,18.07,0,0,0-.4-4.4,18.8,18.8,0,0,1,0-6.19c-1.13,3.12-3.44,4.57-5.4,7.76-.86,1.44-2,3.14-3,4.52a11.55,11.55,0,0,0-1.15,2,51.36,51.36,0,0,0-3.42-9.64c2.63-4.51,4.16-9.65,5.5-14.73.93-3.53,1.8-7.13,2.44-10.76,2,2.13,2.49,4.73,3.87,7.72a25.29,25.29,0,0,1,1.6,5,19.46,19.46,0,0,0,3.43,7.65,18.33,18.33,0,0,0,4.86,4.61c.23,1.72.47,3.88.55,6.28a57.22,57.22,0,0,1-.43,9.33,76.74,76.74,0,0,1-1.75,8.79c-.12.5-.22,1-.3,1.45s-.44.71-.67,1C252.28,182.29,244.28,190.38,238.38,200Zm7.24,9.52c-.17.07-.34.13-.51.21s-.41.21-.62.3l-2.3,1.05a39.16,39.16,0,0,1,4.81-9.34c.4-.31.82-.62,1.27-.94a68.43,68.43,0,0,1,9.37-5.66,67.41,67.41,0,0,1,10.7-4.22l1.31-.37a3.33,3.33,0,0,1,.57.27c.45.28.84.59,1.29.88a7.4,7.4,0,0,0,3.74,1.27,9.48,9.48,0,0,0,2.81-.21c-4.55,2.78-9.22,5.38-13.94,7.84C258,203.77,251.85,206.69,245.62,209.53Zm36.14-.38a79.52,79.52,0,0,0-10.47.1,120.39,120.39,0,0,0,17-11.25,16.47,16.47,0,0,0,8.06,2,20.79,20.79,0,0,0,10.24-2.88c3.14-1.73,3.21-3.41,8.19-6.32-3,.94-5.42-.14-8.89-.13a40,40,0,0,1-5-.31,12.2,12.2,0,0,0-4,.18,111.61,111.61,0,0,0,9.58-10.35,125.64,125.64,0,0,1,17.43-5.13c1.1-.24,2.14-.45,3.15-.64a22,22,0,0,0,7.1,2.43,21.37,21.37,0,0,0,5.3.2c-1,1.62-2.5,2.92-3.89,4.78a24.78,24.78,0,0,1-3.43,3.58,15.84,15.84,0,0,0-5.37,12.89c-1.75,1.42-3.85,3.11-6.27,4.76a42.81,42.81,0,0,1-8.73,4.78c-1.7.46-3.1.9-4.27,1.28l0,.08c-3.58.84-7.23.88-10.46,1.19-1,.08-1.83.19-2.66.31A105.1,105.1,0,0,0,281.76,209.15Z"/><path class="cls-1" d="M344.45,213.29a32.38,32.38,0,0,1-4.72-.34,12.12,12.12,0,0,0-12.48,6.74,14,14,0,0,0,8.14,2.77,17.9,17.9,0,0,0,9.88-2.75c3-1.76,3-3.42,7.56-6.49C350,214.26,347.71,213.25,344.45,213.29Z"/><path class="cls-1" d="M358.52,178.66a15.06,15.06,0,0,0-8.19,12.05c2.78.8,6.26.09,9.13-1.42a17.33,17.33,0,0,0,7.67-8.58,12.19,12.19,0,0,0,1-4.43,38.83,38.83,0,0,1,.8-6c-1.31,2.83-3.79,3.74-6.34,5.82A21.26,21.26,0,0,1,358.52,178.66Z"/><path class="cls-1" d="M378.92,160.52c2.41,1.2,3.88.38,7.9,2.47-1.7-1.65-1.48-3.8-2.61-6.21a31,31,0,0,1-1.4-3.63c-1.26-4.12-6.2-6.34-10.55-4.71a12,12,0,0,0,1.09,7A11.24,11.24,0,0,0,378.92,160.52Z"/><path class="cls-1" d="M372.26,205.14a11.45,11.45,0,0,0,6.49-3.85,10.83,10.83,0,0,0,2.12-3.75,13.14,13.14,0,0,0,.7-4.9,7.24,7.24,0,0,0-1.42-3.94,7.79,7.79,0,0,0-3.68-3.09,2,2,0,0,1,.47,2.34,19.37,19.37,0,0,1-1.49,2.56,11.14,11.14,0,0,1-2.29,2.62C370,196,369.54,201.26,372.26,205.14Z"/><path class="cls-1" d="M387.07,229.59a5.81,5.81,0,0,0,2.75-.38,13.67,13.67,0,0,0,2.33-1.16,15.8,15.8,0,0,0,1.84-1.27,15.46,15.46,0,0,0,5.16-9.09c.61-3.43-.57-4.55-.44-9.84-.74,2.78-2.94,3.92-4.93,6.22a20.36,20.36,0,0,1-3.28,3,11.63,11.63,0,0,0-4.1,5.56,8,8,0,0,0-.49,3,4.61,4.61,0,0,1-.92,2.87A3.32,3.32,0,0,0,387.07,229.59Z"/><path class="cls-1" d="M365.89,108a8.77,8.77,0,0,1-2.29,1.78,5.41,5.41,0,0,0-2.64,4.1,8.73,8.73,0,0,0,1.39,5.77,9.44,9.44,0,0,0,6.3-1.91,8.53,8.53,0,0,0,3.05-6.89,6.53,6.53,0,0,0-1-3.4,21.88,21.88,0,0,0-2.51-3.55,2.16,2.16,0,0,1-.47,2.21C367.19,106.78,366.5,107.31,365.89,108Z"/><path class="cls-1" d="M299.75,59.72c-1.94,3.57-.41,8.23,3.52,10.7A10.58,10.58,0,0,0,307.92,65a10.88,10.88,0,0,0-.28-7.91c-1-2.58-2.6-3-4.48-7,.34,2.3-1.2,3.8-2,6.22A20.1,20.1,0,0,1,299.75,59.72Z"/><path class="cls-1" d="M160.18,36.24c-.24,3.13-2,5.1-2.56,8.72-.24,1.63-.54,3.61-.78,5.23a11.22,11.22,0,0,0,2.24,8.3,9.19,9.19,0,0,0,6.8,3.8,24.12,24.12,0,0,0,.68-8.2,27.4,27.4,0,0,0-2.46-8.84,21.52,21.52,0,0,0-2-3.51A13,13,0,0,1,160.18,36.24Z"/><path class="cls-1" d="M188.81,45.46a10.91,10.91,0,0,0,3.35-7.5,13.53,13.53,0,0,0-3.28-9.33c-2.14-2.52-3.76-2.35-7.61-5.5,1.59,2.15,1,4.45,1.38,7.24a18,18,0,0,1,0,4.09C182.12,38.78,184.56,43.09,188.81,45.46Z"/><path class="cls-1" d="M151.58,60.18a12.89,12.89,0,0,0-7.34-2.59,22,22,0,0,0-3.3.19,5.92,5.92,0,0,1-2-.21,5.12,5.12,0,0,1-2.58-1.78l1.74,3.68a11.83,11.83,0,0,0,2.46,3.45c1,.95,2.13,2,3,3a8.24,8.24,0,0,0,6.08,2.65,8.59,8.59,0,0,0,6.2-2.55A13.58,13.58,0,0,0,151.58,60.18Z"/><path class="cls-1" d="M125.26,85.22a16.16,16.16,0,0,0-2-7.43,16.39,16.39,0,0,0-2-3,11.29,11.29,0,0,1-2-4.74c-.12,2.67-1.8,4.29-2.46,7.37-.26,1.37-.65,3-1,4.45A8.81,8.81,0,0,0,117.5,89a8,8,0,0,0,6.17,3.3A18.56,18.56,0,0,0,125.26,85.22Z"/><path class="cls-1" d="M97.47,93.44c.92,3.29,4.54,4.78,9,3.89a8.54,8.54,0,0,0,0-6.69A8.37,8.37,0,0,0,100.86,86c-2.47-.67-3.75.32-7.7-.09,1.84.82,2,2.82,3.08,4.62A12.05,12.05,0,0,1,97.47,93.44Z"/><path class="cls-1" d="M290.38,52.26A21.74,21.74,0,0,0,294,43.5a16,16,0,0,0,.26-4.06,15.86,15.86,0,0,1,1-5.66c-1.62,2.57-4.05,3.33-6.44,5.84-1.05,1.14-2.41,2.46-3.55,3.55a11.31,11.31,0,0,0-3.38,7.33,9.86,9.86,0,0,0,2.24,7.23A18.21,18.21,0,0,0,290.38,52.26Z"/><path class="cls-1" d="M276.61,36.17a10.32,10.32,0,0,0,.89-8.5,8.57,8.57,0,0,0-1.84-3.13,29.13,29.13,0,0,1-2.78-3.9c.54,2.21-1,3.75-1.77,6a12.85,12.85,0,0,1-1.68,3c-2.23,3-1.69,7,1.15,10.76A9,9,0,0,0,276.61,36.17Z"/><path class="cls-1" d="M233.62,46.93a15.41,15.41,0,0,0,3.61-7.56,18.74,18.74,0,0,0-1-9.7c-1.05-3.16-2.7-3.55-4.39-8.75.21,3-1.37,4.92-2.06,8.15a43.93,43.93,0,0,1-1.28,4.62C226.82,38.63,229.2,44.7,233.62,46.93Z"/><path class="cls-1" d="M201,28.35c2.55.82,3.47,3,5.6,4.94a22.4,22.4,0,0,1,2.77,3.15,10.62,10.62,0,0,0,12.32,3.33,11.75,11.75,0,0,0-3.07-7.43,14.09,14.09,0,0,0-8.36-4.4C207.06,27.43,206,28.63,201,28.35Z"/><path class="cls-1" d="M175.07,46.45a13.6,13.6,0,0,0,2.15-7.71,15.78,15.78,0,0,0-3-8.7c-1.75-2.63-3.43-2.59-6.36-6.82,1,2.6-.1,4.76,0,7.82a35,35,0,0,1-.23,4.45A10.37,10.37,0,0,0,175.07,46.45Z"/><path class="cls-1" d="M137.79,49.23C140,52,144,52.22,148,50a8.75,8.75,0,0,0-2.56-6.49A9.19,9.19,0,0,0,138,41c-2.7.26-3.53,1.65-7.5,2.77,2.12.06,3.1,1.88,4.91,3.16A12.78,12.78,0,0,1,137.79,49.23Z"/><path class="cls-1" d="M128.28,71.73a11.57,11.57,0,0,0,2-6.27,9.3,9.3,0,0,0-2.63-6.21c-1.57-1.89-3.26-1.78-5.83-5.14.73,2-.47,3.72-.56,6.19a28.22,28.22,0,0,1-.39,3.61C120.19,67.92,123.71,71.72,128.28,71.73Z"/><path class="cls-1" d="M96.38,75.59a8.11,8.11,0,0,1,1.75,2.55,5.85,5.85,0,0,0,3.18,3.17,16.53,16.53,0,0,0,5.78,1.25,7.64,7.64,0,0,0,.16-7.49,9.43,9.43,0,0,0-7.55-5,7.18,7.18,0,0,0-3.66.63c-1.13.48-2.43,1-4.36,1.73C93.83,72.31,94.85,74.18,96.38,75.59Z"/><path class="cls-1" d="M57.71,131.49c.4-2.43,2.57-3.29,4.49-4.71a9,9,0,0,1,3.22-1.41A8.89,8.89,0,0,0,70,122.83a20.55,20.55,0,0,0,3.65-5.21c-1.72-2.06-5.06-2.86-8-2.23a11.24,11.24,0,0,0-8,6.86,8.12,8.12,0,0,0-.48,4.1C57.26,127.69,57.39,129.21,57.71,131.49Z"/><path class="cls-1" d="M81.33,92.11a6.51,6.51,0,0,0,7,1.26,62.7,62.7,0,0,0-.15-6.59c-.22-2.13-1.16-4-2.53-6.28s-3-2.61-4.87-6.94c.35,2.48-1.2,4.14-1.61,7.08-.18,1.36-.41,3-.6,4.41A8.18,8.18,0,0,0,81.33,92.11Z"/><path class="cls-1" d="M355.14,95.57a35.67,35.67,0,0,0,6-7.71,25.69,25.69,0,0,0,1.83-3.81,13.79,13.79,0,0,1,3.64-4.92c-2.88,1.7-5.61,1.53-9.07,3.33-1.51.83-3.39,1.83-4.91,2.71A12.18,12.18,0,0,0,347,92.43a9.6,9.6,0,0,0,1,8.07A28.29,28.29,0,0,0,355.14,95.57Z"/><path class="cls-1" d="M335.4,75.57a29.09,29.09,0,0,0,5.1-7.16,29.75,29.75,0,0,0,2.91-10.07c.48-3.63-.76-4.75.07-10.7-1.15,3.1-3.54,4.43-5.7,7.47-.95,1.38-2.22,3-3.28,4.35a12.93,12.93,0,0,0-2.7,8.67A9.79,9.79,0,0,0,335.4,75.57Z"/><path class="cls-1" d="M318.43,63.84a13.74,13.74,0,0,0,5.94-4.23,13.42,13.42,0,0,0,2.73-7.42c.33-2.78-1-3.89-.15-8.6-1.11,2.27-3.28,2.89-5.24,5-.87.95-2,2-3,2.92A8.32,8.32,0,0,0,316,57.59,8.57,8.57,0,0,0,318.43,63.84Z"/><path class="cls-1" d="M251,20.62a13.14,13.14,0,0,0-6.94,5.55,10.22,10.22,0,0,0-1.48,8A24.11,24.11,0,0,0,251,31.4a27,27,0,0,0,8.08-6.92c2.35-2.82,1.88-4.42,5.67-9-2.59,2-5.31,1.91-8.71,3.33C254.55,19.41,252.63,20.08,251,20.62Z"/><path class="cls-1" d="M214.94,10.55c.24.95.26,2,.53,3.17a16.72,16.72,0,0,1,.3,3.6,7.66,7.66,0,0,0,2.6,5.75,7,7,0,0,0,6.49,1.83,19.39,19.39,0,0,0,.6-6.76,11.62,11.62,0,0,0-4.05-7A8.26,8.26,0,0,0,218,9.4c-1.23-.32-2.62-.78-4.67-1.22A3.42,3.42,0,0,1,214.94,10.55Z"/><path class="cls-1" d="M390.88,181.15a14.8,14.8,0,0,0,6.42-1.71,9.82,9.82,0,0,0,3.6-3.31c.87-1.26,1.9-2.74,3.35-5.12a6.25,6.25,0,0,1-3.66,1.77,40.25,40.25,0,0,1-4.27.25,10.76,10.76,0,0,1-4.29-.71,17,17,0,0,0-3.21-.91,18.38,18.38,0,0,0-3.84-.28c-2.77.05-5.89,1-7.48,3a21.25,21.25,0,0,0,7,5.67A14,14,0,0,0,390.88,181.15Z"/><path class="cls-1" d="M401.38,188.78a10.36,10.36,0,0,0-7.44,1.71,9.43,9.43,0,0,0-4.1,6,16.6,16.6,0,0,0,7.79,1.79,18.8,18.8,0,0,0,8.67-2.44,15.26,15.26,0,0,0,3.17-2.31,15.18,15.18,0,0,1,4.78-2.79c-2.87.37-4.88-1.06-8.15-1.38C404.64,189.28,402.86,189,401.38,188.78Z"/><path class="cls-1" d="M405.53,148.89a10.71,10.71,0,0,0-.67-4.11,32.27,32.27,0,0,1-1.32-5.34c-.25,2.76-2.23,4.17-3.83,6.61a18.51,18.51,0,0,1-2.79,3.19,12.18,12.18,0,0,0-3,12.69,11.33,11.33,0,0,0,7.68-3.54A14.37,14.37,0,0,0,405.53,148.89Z"/><path class="cls-1" d="M419.49,219.1c-.37-1.43-.81-3.16-1.17-4.59a9,9,0,0,0-5.05-5.8,7.76,7.76,0,0,0-7.14.27,22.86,22.86,0,0,0,2.29,6.89,18,18,0,0,0,5,5.62,19.76,19.76,0,0,0,3,1.91,10.45,10.45,0,0,1,3.7,3.7C419.31,224.49,420.22,222.29,419.49,219.1Z"/><path class="cls-1" d="M390.53,112.79a8.63,8.63,0,0,0-5.79,1.72c-2.05,1.39-3.71,3.91-3.34,6.3,2.55.78,4.53,1.52,6.94,1.57a10.71,10.71,0,0,0,4.68-1.06,10.54,10.54,0,0,0,4.52-3.94,5.74,5.74,0,0,0,.74-4.35c-.1-.65-.24-1.32-.31-2.15a6.85,6.85,0,0,1,.42-3.15,15.42,15.42,0,0,1-2.47,3,9.48,9.48,0,0,1-2.59,1.74A5.1,5.1,0,0,1,390.53,112.79Z"/><path class="cls-1" d="M387.12,137.42a8,8,0,0,0-1.4,7.79,56.11,56.11,0,0,0,7.58-1.7,38.21,38.21,0,0,0,7.47-3.43,14.51,14.51,0,0,0,1.69-1l1.55-1a9.79,9.79,0,0,1,5.59-1.46,22,22,0,0,1-4.16-1.55,15,15,0,0,0-4.7-1.43c-1.69-.14-3.77-.29-5.52-.26A10.46,10.46,0,0,0,387.12,137.42Z"/><path class="cls-1" d="M369.63,95.92c2.57,1,5.58,1,7.83.88a22.12,22.12,0,0,0,3.5-.46,22.61,22.61,0,0,1,3.22-.61,28.51,28.51,0,0,0,3.79-.51c.67-.12,1.42-.24,2.31-.36a19.23,19.23,0,0,0,3-.6,4.35,4.35,0,0,1-3.05-1.48,17.09,17.09,0,0,0-8.53-5.29,9.2,9.2,0,0,0-4.77-.08A10,10,0,0,0,373,89.35,9.26,9.26,0,0,0,369.63,95.92Z"/><path class="cls-1" d="M206.89,21.49l.07,0h0Z"/><path class="cls-1" d="M207.09,21.56l-.08-.07s0,0,0,0h0l.06,0S207.13,21.59,207.09,21.56Z"/><path class="cls-1" d="M187.34,21.27a21.17,21.17,0,0,0,11.16,3.16,14.39,14.39,0,0,0,4.57-.7l1.16-.3a7.62,7.62,0,0,0,1.38-.4,4.27,4.27,0,0,0,1.32-.78.75.75,0,0,0,.27-.53c0-.13-.13-.17-.24-.21a.81.81,0,0,1-.44.07,2.84,2.84,0,0,1-1.47-.57c-1.19-.77-2.47-1.72-4.05-2.56a33,33,0,0,1-4.35-2.81c-4.41-3.35-11-4-15.53-1.45C182.13,17,184.63,19.5,187.34,21.27Z"/><path class="cls-1" d="M154.09,33.44a32.23,32.23,0,0,1,3.65-1.89,8.75,8.75,0,0,0,4.12-11.47,12.77,12.77,0,0,0-7.06,2,12.92,12.92,0,0,0-4.92,6.41,11.36,11.36,0,0,0-.71,3.52,7.12,7.12,0,0,1-.42,2,3.8,3.8,0,0,1-2.34,2.27A19.77,19.77,0,0,0,150.56,35,22.52,22.52,0,0,0,154.09,33.44Z"/><path class="cls-1" d="M109.33,64.28a13.65,13.65,0,0,0,8-6.59,10.1,10.1,0,0,0,1.18-4,40.41,40.41,0,0,1,1-5.36c-1.31,2.39-3.69,2.81-6.12,4.23a15.41,15.41,0,0,1-3.82,1.5,10.73,10.73,0,0,0-5.42,3.29,13.73,13.73,0,0,0-3.2,6.08A10.64,10.64,0,0,0,109.33,64.28Z"/><path class="cls-1" d="M308.19,34.51a11.33,11.33,0,0,0,4.43.41,46.35,46.35,0,0,1,5.84,0c-2.86-.86-4-3.18-6.17-5.39a18.81,18.81,0,0,1-2.69-3.64,13.55,13.55,0,0,0-5-5,14.84,14.84,0,0,0-7-2.09c-.78,2.74,0,6.15,1.63,8.9A15.87,15.87,0,0,0,308.19,34.51Z"/><path class="cls-1" d="M364.37,77.06a24.61,24.61,0,0,0,3.71-.24,10.42,10.42,0,0,1,5.39,1,14.2,14.2,0,0,1-2.75-3,15.62,15.62,0,0,0-3.06-3.36c-1.25-.92-2.78-2.09-4.13-3a9.78,9.78,0,0,0-8.21-1.21,8,8,0,0,0-5.5,5.09,30.13,30.13,0,0,0,6.69,3.49A24.43,24.43,0,0,0,364.37,77.06Z"/><path class="cls-1" d="M255.65,12.75c3.4-1.66,3.55-3.36,9-6.08-3.27.82-5.79-.34-9.53-.39a50.8,50.8,0,0,1-5.38-.36c-5.78-.73-12.14,2.69-14.14,7.48a17.92,17.92,0,0,0,9.09,2.19A24.51,24.51,0,0,0,255.65,12.75Z"/><path class="cls-1" d="M177.51,203.59c5.49,3,12.14,1.5,17.78,4.09a49.45,49.45,0,0,1,14.39,10.26c4,4.07,7.94,8.74,9.81,14.2a24.13,24.13,0,0,1,1.17,9.39,21.42,21.42,0,0,0,0,4.16,31.15,31.15,0,0,0,1.26,4.92c1.94,6.32,1.09,13.06-1.2,19.18-1.12,3-2.8,5.74-4,8.7a59.2,59.2,0,0,0-2.56,8.35,41.69,41.69,0,0,1-7.09,15.22A49.16,49.16,0,0,1,194,314.44,38.29,38.29,0,0,1,173.19,320c-7.87,0-15.39-2.07-23.05-3.61-.56-.11-.8.71-.24.86,13,3.64,27.93,6.23,40.68.21a45.44,45.44,0,0,0,14-10.73,44.46,44.46,0,0,0,9-14.51c1-2.84,1.52-5.84,2.34-8.75a47.9,47.9,0,0,1,3.6-9,36.36,36.36,0,0,0,4.28-19c-.22-3.11-1.53-5.93-2.17-8.95-.7-3.3.16-6.68-.32-10-.84-5.75-3.74-10.56-7.42-14.93a54.77,54.77,0,0,0-15.32-12.87,25,25,0,0,0-9.69-3.2c-3.79-.43-7.69-.49-11.11-2.38a.25.25,0,0,0-.25.43Z"/><path class="cls-1" d="M204.3,217a19.34,19.34,0,0,1,9.39,9.73,36.09,36.09,0,0,1,1.77,7.11c.58,3,1.51,6,2.37,9a46.46,46.46,0,0,1,2,9,19.13,19.13,0,0,1-1.28,7.81,47.74,47.74,0,0,0-2.29,7.38,62.29,62.29,0,0,1-1.11,6.22,15.66,15.66,0,0,1-3.23,6.24,11,11,0,0,1-6.61,3.29c-.48.08-.37.89.12.85,4.42-.33,7.81-3.3,9.57-7.24a23.49,23.49,0,0,0,1.73-6.42,37.68,37.68,0,0,1,1.69-7.57,33.56,33.56,0,0,0,2.17-7.9,25.79,25.79,0,0,0-1.13-8.76c-.86-3.29-2-6.5-2.78-9.81-.66-2.7-.92-5.49-1.82-8.13a20,20,0,0,0-10.19-11.34c-.38-.19-.72.38-.34.58Z"/><path class="cls-1" d="M180.56,204.51c4.32,0,8.65-.48,13-.23a26.14,26.14,0,0,1,12.38,4.05,41.68,41.68,0,0,1,15.7,16.4,23.8,23.8,0,0,1,2.3,6.08,31.66,31.66,0,0,1,.45,6.23,35.62,35.62,0,0,0,2.1,11.55c1.41,4.19,2.21,8.23,1.19,12.62-.91,3.93-2.82,7.55-4.43,11.22a34.36,34.36,0,0,0-2.15,7.21,26.88,26.88,0,0,1-2.32,7.55c-2.07,3.85-5.73,6.49-8.14,10.09-.27.41.38.78.65.38,2.32-3.36,5.7-5.84,7.86-9.34,2.46-4,2.55-8.8,4-13.16,1.39-4.12,3.72-7.86,5-12.05a20.93,20.93,0,0,0,.14-11.79c-1.17-4.18-2.9-8-3-12.43-.15-4.26-.05-8.25-1.81-12.24a41.39,41.39,0,0,0-14.84-17.49c-3.9-2.65-8-4.76-12.73-5.35-5.07-.64-10.19.11-15.27.15a.28.28,0,0,0,0,.55Z"/><path class="cls-1" d="M223.19,227.45c1.4,2.79,2.11,5.82,3.21,8.73a67.35,67.35,0,0,0,3.8,7.42,24.3,24.3,0,0,1,2.8,8,58.23,58.23,0,0,1,.3,8.76c-.05,5.48-.3,11,.52,16.43a31.47,31.47,0,0,0,6.3,14.8,21.84,21.84,0,0,0,12.7,8.1c.48.1.68-.63.21-.74a20.94,20.94,0,0,1-11.91-7.33,30.88,30.88,0,0,1-6.59-15.24c-.8-5.51-.48-11.11-.46-16.66a56.35,56.35,0,0,0-.34-8.22,23,23,0,0,0-2.2-6.86c-1.42-2.93-3.29-5.59-4.46-8.65a76.26,76.26,0,0,0-3.47-8.78c-.15-.27-.55,0-.41.24Z"/><path class="cls-1" d="M225.09,241.87c1.44,5.2,5.25,9.45,5.6,15s-.64,11.24-1,16.83c-.31,4.94-.26,10,1.37,14.77a22.39,22.39,0,0,0,8.58,11.17c4.27,2.92,9.93,5.2,15.19,5a.39.39,0,0,0,0-.78c-10-.81-19.8-6-23.06-16s.38-20.54-.27-30.77a18.15,18.15,0,0,0-2.08-7.23c-1.35-2.68-3-5.21-4-8.07a.19.19,0,0,0-.37.1Z"/><path class="cls-1" d="M226.58,264.71c-1.32,4.48-.58,9.46-.6,14.06,0,5.25.23,10.65,1.94,15.66a28.19,28.19,0,0,0,17.28,17.66c4.13,1.46,10,2.77,13.94.13a.39.39,0,0,0-.39-.67c-3.9,2.07-8.44,1.39-12.49.08a27.2,27.2,0,0,1-10.74-6.4,28.35,28.35,0,0,1-6.73-10.66,44,44,0,0,1-2-14.34q0-3.89-.13-7.77a25.25,25.25,0,0,1,.63-7.56.35.35,0,0,0-.68-.19Z"/><path class="cls-1" d="M226.08,267.74c-1.8,4.79-2.34,9.84-2.94,14.89-.53,4.53-.81,10.17-3.83,13.86-2.46,3-6,4.88-8.43,7.95a18,18,0,0,0-2.69,4.68,40.92,40.92,0,0,0-1.44,5.95c-1.06,4.6-3.55,8.51-8.12,10.15a.36.36,0,0,0,.2.7c3.68-.69,6.24-3.82,7.64-7.1,1.67-3.9,1.54-8.21,3.76-11.93s5.88-5.88,8.88-8.92,3.82-7.58,4.41-11.8c.84-6.13,1.11-12.38,3.15-18.27.12-.37-.45-.52-.59-.16Z"/><path class="cls-1" d="M226.35,285.53a36.81,36.81,0,0,0-.71,6.79,28.57,28.57,0,0,1-1.17,6.87,21.35,21.35,0,0,1-2.8,6.07A25.1,25.1,0,0,1,217,310a49.18,49.18,0,0,0-4.49,4,22.1,22.1,0,0,0-3.42,5.17c-2.11,4.15-3.76,8.59-6.44,12.43a16,16,0,0,1-4.21,4.23,34.93,34.93,0,0,1-5.46,2.67c-.56.24-.16,1.2.42,1a20.43,20.43,0,0,0,8.72-5.46c3-3.38,4.73-7.66,6.62-11.69A35.69,35.69,0,0,1,212.2,316a29.5,29.5,0,0,1,4.63-4.58,31.1,31.1,0,0,0,4.54-4.42,22.16,22.16,0,0,0,3-5.49,26.93,26.93,0,0,0,1.75-7c.32-3,.1-6,.78-8.88a.31.31,0,0,0-.59-.16Z"/><path class="cls-1" d="M229,297.28c-.85,2.47-.58,5.14-1.24,7.66a34.34,34.34,0,0,1-3.24,8c-2.26,4.07-5.86,6.91-9.3,9.93-3.67,3.23-6,7.27-7.94,11.7a39.46,39.46,0,0,1-3.1,6.37,18.34,18.34,0,0,1-5,5,18.94,18.94,0,0,1-8.4,3.31c-3.11.37-6.17-.12-9.27-.06-.53,0-.69.86-.13,1,5.25.95,11.16.8,15.95-1.76a20.78,20.78,0,0,0,9.49-9.86c2.11-4.76,4-9.64,7.65-13.47,3.26-3.4,7.21-6,9.86-10a33.62,33.62,0,0,0,3.79-8.29,20,20,0,0,0,.9-4.4,22,22,0,0,1,.74-4.84c.16-.46-.56-.66-.72-.2Z"/><path class="cls-1" d="M190.79,354.11a13.44,13.44,0,0,1-6.54.67,19.38,19.38,0,0,1-6.33-1.75c-.5-.24-1.13.41-.64.83,1.85,1.55,4.53,2.05,6.87,2.22a14.57,14.57,0,0,0,7.19-1c.64-.3.08-1.21-.55-.94Z"/><path class="cls-1" d="M184.77,359.9c-1.5,0-3,0-4.5,0a20.44,20.44,0,0,1-4.21-.22,11.81,11.81,0,0,1-3.27-1.5,10.12,10.12,0,0,0-3.21-1.58.51.51,0,0,0-.39.93c1,.68,2.21,1.24,3.29,1.86a11.35,11.35,0,0,0,3.39,1.42,18.29,18.29,0,0,0,4.12.18c1.59-.06,3.18-.16,4.78-.19a.43.43,0,0,0,0-.85Z"/><path class="cls-1" d="M216.34,322.25c-5.58,4.09-6.1,10.62-7.4,16.88-1.57,7.56-6.31,13.4-12.94,17.19-.59.33-.07,1.19.53.9a25.26,25.26,0,0,0,12.85-15.73c1.8-6.57,1.33-14.09,7.32-18.63.35-.27,0-.88-.36-.61Z"/><path class="cls-1" d="M217.88,321.18c-4.56,4.19-4.57,11.64-5.12,17.34-.71,7.41-2.26,15.28-7.56,20.86-3.46,3.63-7.7,6.09-12.77,6.22-.51,0-.67.84-.12.93,3.85.64,7.8-1.53,10.72-3.82a24.2,24.2,0,0,0,7.24-9.14c3-6.62,3.06-13.82,3.95-20.89.48-3.83,1.27-8.19,4.22-10.94.38-.35-.18-.91-.56-.56Z"/><path class="cls-1" d="M219.75,319.08c-3.21,4.37-3.79,10.15-4.12,15.39a52.35,52.35,0,0,0,.22,9.45,87.93,87.93,0,0,1,.78,10.38c0,.59.8.55.88,0,.43-3.2-.19-6.51-.59-9.68a52.05,52.05,0,0,1-.38-9.42c.28-5.31.68-11.25,3.87-15.74.28-.4-.37-.77-.66-.38Z"/><path class="cls-1" d="M192.33,371.65c4.35,1.72,9.22-1.2,13.17-2.74A13.56,13.56,0,0,0,211,365c1.62-1.83,2.65-4.09,4.07-6.07.28-.4-.28-.93-.67-.67-1.81,1.19-2.36,3.82-3.69,5.45a13,13,0,0,1-5.44,4.22c-2,.79-3.91,1.72-5.94,2.41s-4.53,1.36-6.75.56c-.48-.17-.66.57-.21.75Z"/><path class="cls-1" d="M229.38,298.39c-.66,4.15-.36,8.32-.47,12.49a25.74,25.74,0,0,1-3.17,12.57c-1.9,3.28-4.18,6.32-4.92,10.12a31,31,0,0,0-.45,6.31,41.75,41.75,0,0,0,.12,6.33c.08.42.71.38.82,0,.53-2,.13-4.32.1-6.33a27.36,27.36,0,0,1,.59-7c.94-3.79,3.53-6.83,5.27-10.25,3.84-7.57,1.86-16.06,2.68-24.16,0-.32-.52-.4-.57-.08Z"/><path class="cls-1" d="M228.82,315.91c-1.73,6.74-.23,13.75-1.35,20.57a30.27,30.27,0,0,1-2.68,8.55c-1.37,2.75-3.33,4.93-5,7.44-.25.37.29.75.6.46a26.24,26.24,0,0,0,5.11-7.3,30.73,30.73,0,0,0,2.74-8.31c1.27-7-.29-14.25,1.2-21.25a.3.3,0,0,0-.58-.16Z"/><path class="cls-1" d="M229.33,299.29c1,8.14,2.75,16.25,2.56,24.49s-2.35,16.27-4.57,24.19c-.62,2.22-1.23,4.43-1.91,6.63a64,64,0,0,0-2.12,6.73.36.36,0,0,0,.65.27,22.71,22.71,0,0,0,2.07-5.37c.64-2,1.21-4.09,1.78-6.14,1.14-4.06,2.31-8.12,3.23-12.23A72.2,72.2,0,0,0,232.23,313c-.57-4.61-1.46-9.17-2.26-13.74-.06-.36-.69-.28-.64.08Z"/><path class="cls-1" d="M232.1,324.28c1.13,3.48.7,7.59.77,11.21a73.2,73.2,0,0,1-.79,13.23c-1.29,7.57-4.93,14-8.52,20.7a.41.41,0,0,0,.7.42c4.05-6.57,7.57-13.6,8.76-21.3a73.91,73.91,0,0,0,.66-13.05c-.09-3.69.31-7.85-1-11.37-.13-.37-.72-.22-.59.16Z"/><path class="cls-1" d="M233.13,338.53c.94,4,2.21,7.9,2.7,12a30.19,30.19,0,0,1-1.11,12.06,42.15,42.15,0,0,1-4.88,10.71,37.24,37.24,0,0,1-3.67,4.9c-1.33,1.51-2.89,2.78-4.21,4.29a.44.44,0,0,0,.53.68A17.76,17.76,0,0,0,227,379a41.66,41.66,0,0,0,3.68-5,44.81,44.81,0,0,0,4.94-11,30.66,30.66,0,0,0,1.2-12.08c-.48-4.32-1.82-8.46-3-12.63a.37.37,0,0,0-.71.2Z"/><path class="cls-1" d="M232.42,323.38a36,36,0,0,0,4.58,13.7,46.18,46.18,0,0,0,4.07,6.22c1.38,1.77,3,4,5.05,5.12.37.2.94-.24.64-.65-1.32-1.74-3.13-3.12-4.53-4.82a44.62,44.62,0,0,1-4.26-6.21,47.13,47.13,0,0,1-5.06-13.43c-.06-.27-.52-.22-.49.07Z"/><path class="cls-1" d="M232.06,319.91c1.09,6,4.08,12.57,8.48,16.93a17.94,17.94,0,0,0,8.72,4.56c1.69.41,3.42.66,5.14,1s3.62,1,5.36,1a.55.55,0,0,0,.28-1c-1.33-.79-3.19-.9-4.7-1.13s-3.33-.47-5-.8a17.56,17.56,0,0,1-9.08-4.31,31.91,31.91,0,0,1-8.55-16.37c-.09-.44-.75-.25-.67.18Z"/><path class="cls-1" d="M229.36,298.2c.31,3.19,2.08,5.82,3.59,8.56,1.72,3.14,2.76,6.59,4.61,9.66a106.4,106.4,0,0,0,6.61,8.95c2,2.64,4.24,4.93,5.91,7.81a.44.44,0,0,0,.8-.34c-.71-2.82-3.34-5.09-5.13-7.26-2.31-2.8-4.68-5.69-6.71-8.7s-3.18-6.31-4.84-9.46-3.84-5.75-4.25-9.22c0-.38-.63-.39-.59,0Z"/><path class="cls-1" d="M230.24,301.55c1,4.72,3,9.15,3.92,13.91.84,4.45,1.78,8.78,4.25,12.63a24.4,24.4,0,0,0,17.25,10.85c.58.07.66-.84.13-1-3.43-1.05-6.76-1.76-9.85-3.69a22.09,22.09,0,0,1-7.17-7.44c-2.3-3.8-3.07-8.13-4-12.42-.94-4.46-2.94-8.57-4.07-13-.08-.32-.55-.18-.48.13Z"/><path class="cls-1" d="M236,313.48a23.93,23.93,0,0,0,14.1,6.69,29.32,29.32,0,0,0,8.21-.09c2.51-.39,5.37-1.05,7.44-2.58.4-.3.19-1.09-.37-.88a44.89,44.89,0,0,1-7,2.36,26.71,26.71,0,0,1-7.73.29A23.67,23.67,0,0,1,236.45,313c-.29-.29-.74.16-.45.46Z"/><path class="cls-1" d="M242.07,322.59A31.11,31.11,0,0,0,260,326.08c5.87-.59,12.15-2.82,16-7.5a.57.57,0,0,0-.81-.81,28.36,28.36,0,0,1-7.1,5,27.87,27.87,0,0,1-8.52,2.19,31.36,31.36,0,0,1-17.19-3,.35.35,0,0,0-.35.61Z"/><path class="cls-1" d="M249.81,329.77c7.11,2.32,15.6,2.68,22.36-.92a63.16,63.16,0,0,0,9-5.79,32.89,32.89,0,0,0,4.13-3.69c1-1.09,2.41-2.54,2.63-4.05.08-.52-.52-1-.94-.55-1.07,1.11-1.75,2.58-2.82,3.73a32.92,32.92,0,0,1-4.08,3.65,72.86,72.86,0,0,1-8.24,5.44c-6.43,3.69-14.93,3.54-21.86,1.44-.48-.15-.67.59-.2.74Z"/><path class="cls-1" d="M275.41,326.77c3,1.82,6.6,1,9.66-.15,3.32-1.23,6.57-3.39,10.1-1.65,1.55.76,2.92,1.85,4.41,2.71a35,35,0,0,0,4.12,2,16,16,0,0,0,8.37,1.32c3.08-.47,6.75-2.71,7.74-5.83a.68.68,0,0,0-1.14-.66c-1.15,1.09-1.91,2.48-3.24,3.43a8.58,8.58,0,0,1-3.83,1.51,15.38,15.38,0,0,1-8-1.47c-2.83-1.22-5.24-3.21-8.05-4.43s-5.37-.47-8,.73c-3.47,1.56-8,3.82-11.66,1.69a.45.45,0,0,0-.45.77Z"/><path class="cls-1" d="M323.58,331.27c4.89,3.94,11.42,3.7,17.36,3.78a34.79,34.79,0,0,1,9.16.94,12.27,12.27,0,0,1,4,1.94c1.35,1,2.1,2.43,3.23,3.63a.56.56,0,0,0,.93-.54c-.64-2.09-2.81-3.92-4.65-5a17,17,0,0,0-6.41-1.93c-5.07-.63-10.19.1-15.26-.48a16.16,16.16,0,0,1-8-2.89c-.29-.21-.67.28-.39.51Z"/><path class="cls-1" d="M347.35,335.51a42.84,42.84,0,0,1,7.42.32,48.26,48.26,0,0,1,7.66,1.3,22.18,22.18,0,0,1,6.31,3c2,1.4,3.62,3.22,5.52,4.78.52.43,1.47-.13,1-.79A22.43,22.43,0,0,0,363.33,336a41.35,41.35,0,0,0-7.52-1.2,38.6,38.6,0,0,0-8.46-.05c-.45.06-.48.76,0,.73Z"/><path class="cls-1" d="M302,331.82c3.12,2.92,7.18,3.61,11.2,4.49a17.89,17.89,0,0,1,5.6,2,9.55,9.55,0,0,1,2.4,2.08,26.69,26.69,0,0,1,2,3.25.5.5,0,0,0,.9-.38c-1-4.33-5.36-6.73-9.32-7.65-4.25-1-8.8-1.26-12.27-4.22-.32-.27-.78.17-.47.46Z"/><path class="cls-1" d="M270.16,329.83c3.73,5,10,3.22,15.21,4.87a16.21,16.21,0,0,1,8,6.06,11.6,11.6,0,0,1,2,9.85.5.5,0,0,0,1,.27c2.34-6.39-2.8-13.18-8.24-16-2.66-1.39-5.48-1.63-8.42-1.84-3.41-.25-6.78-.75-9-3.58-.22-.29-.72.09-.5.38Z"/><path class="cls-1" d="M247.17,346.39c2.82.19,5.27,1.77,8.14,1.77,3.21,0,6.3-.63,9.46.29,5.48,1.59,9.32,5.93,13.88,9.06.5.35,1.13-.45.66-.86-4.16-3.53-8.73-7.6-14.08-9.13-3.08-.88-6.09-.4-9.23-.24a13.51,13.51,0,0,1-4.8-.67,15,15,0,0,0-4-.81c-.38,0-.38.57,0,.59Z"/><path class="cls-1" d="M262,352.23a16.61,16.61,0,0,1,14.48,11.55,21.21,21.21,0,0,1,.55,10.1,25.14,25.14,0,0,1-4.51,9.19c-.32.45.41,1,.78.6a21.05,21.05,0,0,0,4.17-20.75c-2.05-6.4-8.69-11.55-15.47-11.47a.39.39,0,0,0,0,.78Z"/><path class="cls-1" d="M277,356.22c.18,3.11,2,5.7,3.07,8.54a29.21,29.21,0,0,1,1.9,10.58,18.13,18.13,0,0,1-3.18,10.12c-1.72,2.36-4.5,4.24-5.72,6.91-.22.48.36,1,.78.6,1.07-1.14,2-2.41,3.06-3.55a37.17,37.17,0,0,0,2.9-3.36,18.59,18.59,0,0,0,3.26-9.59,28.28,28.28,0,0,0-1.54-10.55c-1.07-3.27-3.47-6.24-3.87-9.7-.05-.41-.68-.43-.66,0Z"/><path class="cls-1" d="M282.65,386.38a26.9,26.9,0,0,0-2.44,7.19,16.66,16.66,0,0,0,.77,7.51,54.83,54.83,0,0,0,3,6.9,44.11,44.11,0,0,1,3,7.74c.12.45.89.38.83-.11-.65-4.91-3.67-9.1-5.39-13.66a17,17,0,0,1-1.26-7.64,26.91,26.91,0,0,1,2.27-7.59c.19-.46-.6-.8-.8-.34Z"/><path class="cls-1" d="M288.13,330.75c3,4.19,7.22,7.36,9.91,11.77a21.71,21.71,0,0,1,2.8,14.67.5.5,0,0,0,1,.26c1.55-4.65,0-10.55-2.33-14.69-2.72-4.84-7.38-8.13-10.74-12.47-.27-.34-.85.11-.6.46Z"/><path class="cls-1" d="M305.65,350.29c1.39,2.77,1.37,6,1.28,9.06-.05,1.55-.14,3.09-.15,4.64a15.12,15.12,0,0,0,.35,4.24c.12.39.76.33.74-.1-.08-1.53-.23-3-.21-4.56s.12-3.28.15-4.93c.05-3-.07-6.05-1.55-8.7a.35.35,0,0,0-.61.35Z"/><path class="cls-1" d="M276.49,335.42c.88,2,2.22,4,2.23,6.28,0,1.73-1,4.09.21,5.59a.38.38,0,0,0,.64-.26,12,12,0,0,1-.06-2.81,14.45,14.45,0,0,0,.17-3.15c-.26-2.21-1.5-4.12-2.41-6.11-.25-.53-1-.07-.78.46Z"/><path class="cls-1" d="M283.25,342.07a32.26,32.26,0,0,1,4.42,11.21,18.64,18.64,0,0,1,.08,6.19,16,16,0,0,1-.71,2.8,31.46,31.46,0,0,0-1.23,2.94.35.35,0,0,0,.57.33c1.35-1.33,1.94-3.83,2.26-5.63a19.69,19.69,0,0,0,.07-6.13,30.82,30.82,0,0,0-4.83-12.08.37.37,0,0,0-.63.37Z"/><path class="cls-1" d="M231.28,378.16A18.19,18.19,0,0,1,229.2,385c-1,2.06-2.28,4-3.11,6.15-.15.39.47.63.68.28a64.08,64.08,0,0,0,3.37-6.54,18,18,0,0,0,1.77-6.77c0-.41-.61-.4-.63,0Z"/><path class="cls-1" d="M232,383.72a14,14,0,0,0,.45,7.94,15.28,15.28,0,0,0,5,6.18c2.55,2,4.61,4.09,5.13,7.42.49,3.12-.45,6.06-1.1,9.06a.43.43,0,0,0,.83.24c1.94-5,2.23-11.3-1.74-15.39-2.2-2.25-5-3.65-6.62-6.44a12.58,12.58,0,0,1-1.2-8.81c.09-.48-.65-.69-.75-.2Z"/><path class="cls-1" d="M241.86,394.14a42.17,42.17,0,0,0,6.59,5.63,25.88,25.88,0,0,0,7.31,3.13,49.79,49.79,0,0,0,7,1.62c1.74.23,5,.57,6.25-1a.53.53,0,0,0-.52-.88,16.19,16.19,0,0,1-2.77.76,16.58,16.58,0,0,1-3.3-.13,53.7,53.7,0,0,1-6.63-1.46,23.89,23.89,0,0,1-7-2.94,42,42,0,0,1-6.34-5.27.4.4,0,0,0-.57.57Z"/><path class="cls-1" d="M212.49,370.25c-3.52,6.63.88,13.95,5.76,18.52,4.71,4.42,11.14,8.74,11.2,15.89,0,.37.61.48.67.09.91-6.2-5.09-11.18-9.22-14.82-5.24-4.64-11.63-11.87-7.77-19.3.23-.43-.42-.8-.64-.38Z"/><path class="cls-1" d="M210.34,384.08c0,4.45-.12,8.7,2.32,12.6,1,1.65,2.26,3.18,3.17,4.9a9.75,9.75,0,0,1,.87,7,34.71,34.71,0,0,1-2.7,6.35,19.77,19.77,0,0,0-1.69,5.92,30.79,30.79,0,0,0,.75,10.86c.68,2.8,1.8,7.17,4.74,8.46.29.14.68-.25.38-.49-2.35-1.88-3.31-5.31-4-8.1a29.18,29.18,0,0,1-.78-10.73,21.29,21.29,0,0,1,2.2-6.76,24.13,24.13,0,0,0,2.21-5.64c.82-4-.73-7.07-2.94-10.22a18.35,18.35,0,0,1-3.18-6.12,33.79,33.79,0,0,1-.51-8,.42.42,0,0,0-.83,0Z"/><path class="cls-1" d="M200.69,378.45c-5.28,2.77-4.09,9-5.45,13.88-1,3.43-3.49,6.75-6,9.26a23.93,23.93,0,0,1-4.7,3.62c-1.57,1-3.59,1.81-4.86,3.17a.57.57,0,0,0,.69.89,38.63,38.63,0,0,0,4.84-2.92,26.9,26.9,0,0,0,4.31-3.2,27.89,27.89,0,0,0,6.37-9c2-4.75,0-11.82,5.32-14.68.63-.34.07-1.3-.57-1Z"/><path class="cls-1" d="M172.48,410.39c-2.1-3.35-1.71-7.2.31-10.5a16.08,16.08,0,0,1,3.55-4,38.7,38.7,0,0,1,4.36-2.77,12.59,12.59,0,0,0,5.31-6,17.58,17.58,0,0,0,1.28-5.77,25.06,25.06,0,0,0-.14-6.18.61.61,0,0,0-1.17,0c-.4,2.15,0,4.46-.12,6.64a15.08,15.08,0,0,1-1.6,6.07c-1.58,3-4.48,4.22-7.15,6-5.38,3.64-9.3,10.83-5.27,16.86.26.39.89,0,.64-.38Z"/><path class="cls-1" d="M171.64,363c-2,.1-4,1.21-6,.84a9.4,9.4,0,0,1-2.84-1.07c-.81-.44-1.72-1.29-2.69-1.27a.45.45,0,0,0-.38.67c.41.87,1.67,1.38,2.49,1.8a10,10,0,0,0,3.09,1.07,7.75,7.75,0,0,0,3.14-.24,18.13,18.13,0,0,1,3.24-.83c.61-.06.63-1,0-1Z"/><path class="cls-1" d="M172.16,367.11a7.29,7.29,0,0,0-5.35,2.86,12.15,12.15,0,0,0-1.78,5.88c-.22,2.29-.11,4.62-.42,6.9a17.13,17.13,0,0,1-3.16,7.64,12.36,12.36,0,0,1-3.55,3.36,8.41,8.41,0,0,1-2.15.94,10,10,0,0,0-2.09.58.45.45,0,0,0,.11.82c1.33.56,3.22-.32,4.38-1a13.08,13.08,0,0,0,3.76-3.31,18.17,18.17,0,0,0,3.84-9c.67-5.31-.91-13.75,6.41-14.7.63-.09.64-1.09,0-1Z"/><path class="cls-1" d="M156.58,366.73c-.74,2.08-1.12,4.26-1.73,6.38a21.21,21.21,0,0,1-3.57,6.44c-1.41,2-2.82,4-4.11,6a28,28,0,0,0-3.35,6.59.57.57,0,0,0,1,.44c1.18-2.2,2.2-4.45,3.53-6.57s2.87-4.3,4.35-6.41a18.93,18.93,0,0,0,3.14-6c.6-2.2.79-4.47,1.49-6.65.17-.51-.61-.71-.79-.22Z"/><path class="cls-1" d="M202.29,319.52a9.9,9.9,0,0,0-8.48-1.3c-3,.92-5.65,2.86-8.2,4.68s-5.32,3.8-8.59,4.49c-4.75,1-9.42-.39-13.69-2.45a14.52,14.52,0,0,1-8-8c-.27-.5-1-.13-.87.37.6,3.3,3,5.87,5.74,7.62a27.67,27.67,0,0,0,11.52,4.2,17.42,17.42,0,0,0,11-2.52c2.81-1.74,5.32-3.92,8.18-5.59,3.52-2,7.23-2.74,10.86-.52.62.38,1.18-.58.57-1Z"/><path class="cls-1" d="M159.72,329.7a23.93,23.93,0,0,1-6.17-3.72,14.59,14.59,0,0,1-2.55-2.66,9.11,9.11,0,0,1-.85-1.49,7.34,7.34,0,0,0-.69-1.57.54.54,0,0,0-1,.12c-.37,1.22.51,2.67,1.19,3.63a14.2,14.2,0,0,0,2.79,2.95,26.4,26.4,0,0,0,6.92,4c.76.29,1.06-.9.34-1.21Z"/><path class="cls-1" d="M153.37,331.78a10.09,10.09,0,0,1-5.46-1.53,11.64,11.64,0,0,1-2.5-1.79,7.5,7.5,0,0,1-.88-1c-.24-.35-.42-.74-.66-1.09a.62.62,0,0,0-1.14.31,4.29,4.29,0,0,0,1.54,2.65,13.07,13.07,0,0,0,2.84,2,11.46,11.46,0,0,0,6.26,1.6c.74-.08.76-1.22,0-1.16Z"/><path class="cls-1" d="M149,334.94c-1.57-.2-3-.88-4.51-1.23a9.36,9.36,0,0,0-4.58.26c-3.72,1-7.2,2.43-11,3-3.36.46-7.19,1-9.89-1.55a20.24,20.24,0,0,1-3-3.72c-.79-1.21-1.37-2.57-2.23-3.72a.61.61,0,0,0-1.12.47,11.39,11.39,0,0,0,2,4,22.36,22.36,0,0,0,3.13,3.92c2.54,2.43,5.86,2.7,9.2,2.33a53.27,53.27,0,0,0,11.2-2.74c1.92-.64,3.92-1.33,6-1,1.65.27,3.18.87,4.86,1,.66,0,.63-.93,0-1Z"/><path class="cls-1" d="M163.8,334.21a14.74,14.74,0,0,0-7.41,6.71,27.16,27.16,0,0,0-1.95,4.66,30.61,30.61,0,0,0-1.39,5.15.6.6,0,0,0,1.16.32c.58-1.52.87-3.15,1.35-4.7a29.21,29.21,0,0,1,1.74-4.53,13.89,13.89,0,0,1,6.87-6.73c.49-.21.13-1.08-.37-.88Z"/><path class="cls-1" d="M151.62,340.58a27.25,27.25,0,0,0-3.2,7.24,23.69,23.69,0,0,0-.63,3.64c-.07.65-.11,1.3-.14,2a6.29,6.29,0,0,0,.07,2.25.53.53,0,0,0,1,0,6.44,6.44,0,0,0,.15-2c0-.62.06-1.24.11-1.86a25,25,0,0,1,.58-3.65,26.47,26.47,0,0,1,3-7,.54.54,0,0,0-.94-.55Z"/><path class="cls-1" d="M192.43,325.66a32.67,32.67,0,0,1-9.19,3.14,39.26,39.26,0,0,1-4.85.2,9.37,9.37,0,0,0-4.48.78c-.49.28-.31,1.2.31,1.13a47.41,47.41,0,0,1,4.77-.38,27.48,27.48,0,0,0,5-.36,35.94,35.94,0,0,0,9.1-3.45c.71-.36.09-1.39-.62-1.06Z"/><path class="cls-1" d="M145.51,346.53c-1.94,3.14-2.49,6.71-3.35,10.23a16.58,16.58,0,0,1-5.22,9,34.46,34.46,0,0,1-8.44,5.48,19.05,19.05,0,0,1-4.73,1.51,16.26,16.26,0,0,1-4.62-.13c-.66-.07-.86.92-.33,1.22,2.72,1.5,6.64.31,9.29-.77a34.24,34.24,0,0,0,9.12-5.69,17.21,17.21,0,0,0,5.71-8.65c1.1-3.93,1.34-8.1,3.38-11.72a.47.47,0,0,0-.81-.48Z"/><path class="cls-1" d="M170.54,332.81c-1.7,2-2.18,5.09-2.38,7.61a18.17,18.17,0,0,0,.14,4.42c.19,1.12.52,2.49,1.56,3.11a.47.47,0,0,0,.64-.64,12.29,12.29,0,0,1-1-2.88,16.84,16.84,0,0,1-.18-4,21.27,21.27,0,0,1,.6-4,8.05,8.05,0,0,1,1.28-3c.36-.46-.27-1.11-.66-.65Z"/><path class="cls-1" d="M212.77,243.77a16.5,16.5,0,0,1,2.87,9.54c0,3.29-.71,6.89-3.12,9.3-.36.36.21.94.58.57,2.49-2.49,3.35-6.18,3.35-9.61a16.91,16.91,0,0,0-3.09-10.15c-.26-.34-.85,0-.59.35Z"/><path class="cls-1" d="M206.37,195.75c3.5,3.42,7.73,6.32,10.15,10.67a30.94,30.94,0,0,1,2.58,7.38,26,26,0,0,1,1.05,8.44c0,.42.69.53.75.1a21.48,21.48,0,0,0-.59-8,35.8,35.8,0,0,0-2.62-8c-2.41-4.71-7-7.71-10.79-11.18-.36-.33-.89.19-.53.54Z"/><path class="cls-1" d="M243.59,206.85a48.41,48.41,0,0,0-5,13.18,23.85,23.85,0,0,0,1.29,13.52,27.11,27.11,0,0,1,2,6.69,19,19,0,0,1-1,7.5c-1.3,4.43-2.89,8.72-1.94,13.39a19.67,19.67,0,0,0,7,11.48c.48.37,1.08-.43.64-.83a21,21,0,0,1-6.35-10.41c-1.13-4.69.54-9.07,1.78-13.55a21.91,21.91,0,0,0,1-6.57,19.26,19.26,0,0,0-1.24-5.7,51.43,51.43,0,0,1-2.16-6.22,21,21,0,0,1-.3-7c.58-5.28,2.68-10.31,4.94-15.07.22-.48-.46-.89-.71-.42Z"/><path class="cls-1" d="M225.93,191.11c-.22,8.48.74,17.12,3.85,25.06.74,1.9,1.53,3.78,2.15,5.72a20,20,0,0,1,.87,6.74c-.13,4.09-.44,8,1,11.9a32.88,32.88,0,0,0,6.46,10.63c.44.5,1.13-.22.72-.72a35,35,0,0,1-6-10c-1.44-3.92-1.08-7.72-1-11.8s-1.14-7.68-2.67-11.46a58.63,58.63,0,0,1-3.41-11.52,98.46,98.46,0,0,1-1.4-14.54.26.26,0,0,0-.52,0Z"/><path class="cls-1" d="M225.38,187.25c9.61,6,7.09,19.86,6.83,29.38,0,1.39-.05,2.79,0,4.18a9.14,9.14,0,0,0,.5,3.54.33.33,0,0,0,.6-.08,18.56,18.56,0,0,0-.2-3.32c-.07-1.29-.06-2.58,0-3.88.06-2.81.24-5.62.34-8.44.17-5.27.17-10.91-2.08-15.8a14.28,14.28,0,0,0-5.57-6.27c-.45-.28-.85.42-.41.69Z"/><path class="cls-1" d="M247.23,205.54c-3.75,4.39-4,11.17-4.36,16.67a54,54,0,0,0,.4,11.15c.3,2,.72,4,1.21,5.93a31.48,31.48,0,0,0,1.9,6c.19.38.73.1.65-.28-.36-1.93-1.08-3.79-1.57-5.69s-.87-3.63-1.17-5.47a51.21,51.21,0,0,1-.52-11.13,65.17,65.17,0,0,1,.88-8.48c.52-2.81,1.33-5.79,3.22-8,.38-.44-.26-1.09-.64-.64Z"/><path class="cls-1" d="M264.23,198.54c.83,6.22-6.09,9.32-10.53,11.91-2.31,1.35-4.49,2.78-5.89,5.13a16.79,16.79,0,0,0-2.06,8.84,21.76,21.76,0,0,0,.76,5.38,10.89,10.89,0,0,0,2,4.41.51.51,0,0,0,.84-.49c-.47-1.39-1.18-2.67-1.58-4.1a20.49,20.49,0,0,1-.74-4.86,15.09,15.09,0,0,1,2.39-9.31c1.57-2.19,4.12-3.44,6.39-4.76a32,32,0,0,0,6.82-4.81,8.62,8.62,0,0,0,2.7-7.49c-.08-.61-1.16-.47-1.08.15Z"/><path class="cls-1" d="M252.16,229.37c-4.14-6.69,2.59-14,7.93-17.55s13.2-4.57,15.91-11.23c1-2.35,1.67-6.82-1.59-7.79-.53-.16-1,.6-.57,1a3.72,3.72,0,0,1,1.63,3.55,10.07,10.07,0,0,1-1.39,4.25c-1.8,3.13-5.49,4.75-8.64,6.19a35.73,35.73,0,0,0-8.22,4.78,22.09,22.09,0,0,0-6.19,7.66,9.66,9.66,0,0,0,.53,9.52c.24.37.84,0,.6-.36Z"/><path class="cls-1" d="M256.51,224c.58-6,7.43-9,12.47-10.61,4.68-1.51,10.87-3.17,14.78.88a11.44,11.44,0,0,1,2.26,3.62c.66,1.61.87,3.35,1.49,5a.56.56,0,0,0,1.09-.14,15,15,0,0,0-3.15-8.55,9.69,9.69,0,0,0-6.69-3.68c-3.16-.37-6.31.48-9.3,1.43a29.85,29.85,0,0,0-8.67,4c-2.69,2-4.76,4.68-5,8.09,0,.45.65.43.69,0Z"/><path class="cls-1" d="M268.08,219.81a8.84,8.84,0,0,1,6.37-4,5.89,5.89,0,0,1,3.48.59,6.57,6.57,0,0,1,2.51,3c.18.34.66.09.59-.26-.58-3-3.71-4.46-6.52-4.16a9.31,9.31,0,0,0-7,4.52.33.33,0,0,0,.57.33Z"/><path class="cls-1" d="M310.73,227.69a27.83,27.83,0,0,1,3.47-2.76,8.83,8.83,0,0,1,4-1.26c1.74-.16,3.49,0,5.23-.14,1.43-.07,3.6-.24,4.55-1.45a.4.4,0,0,0-.39-.67c-.89.14-1.71.65-2.62.84a15.11,15.11,0,0,1-2.69.23,26.59,26.59,0,0,0-5.2.34c-2.79.61-4.82,2.45-6.9,4.29-.4.35.18.92.58.58Z"/><path class="cls-1" d="M315.82,229.91a15.26,15.26,0,0,1,9.83-1.14,16.18,16.18,0,0,1,4.49,1.51,25.59,25.59,0,0,1,4.35,3.19c3.07,2.54,6.21,5,9.37,7.44,1.68,1.3,3.38,2.59,5.08,3.87s3.31,2.89,5.18,3.74a.52.52,0,0,0,.62-.81c-1.37-1.61-3.47-2.78-5.14-4.06q-2.88-2.16-5.73-4.37c-3.54-2.74-7-5.6-10.49-8.41a16.65,16.65,0,0,0-18-1.69.42.42,0,0,0,.42.73Z"/><path class="cls-1" d="M341.84,231c.78,3.59,3.71,6,6.35,8.33a30,30,0,0,1,3.95,3.86,11,11,0,0,1,2.16,5.05c.11.6,1,.45,1-.14,0-3.72-3.12-6.69-5.71-8.93s-6-4.73-6.84-8.43c-.14-.62-1.08-.36-1,.26Z"/><path class="cls-1" d="M281.52,205.64c-1.34-3.07.63-5.76,2.73-7.86,1.91-1.91,4.09-3.53,5.92-5.52a16.38,16.38,0,0,0,3.9-6.65,15.24,15.24,0,0,0,0-8.31.49.49,0,0,0-.95.13c-.06,1.61.23,3.2.16,4.82a13.77,13.77,0,0,1-.77,4.07,18.52,18.52,0,0,1-5.31,7.2c-3.41,3.1-8.82,7.32-6.46,12.55.23.51,1,.07.74-.43Z"/><path class="cls-1" d="M301.14,188.33c-5-3.65,3.73-10.44,6.19-12.93,4.11-4.19,7.36-9.68,6.23-15.78-.12-.63-1.07-.46-1.09.15-.08,3.58-.34,6.76-2.19,9.92-1.65,2.8-4,5-6.25,7.24-2.68,2.7-7.92,8.77-3.24,12,.37.25.7-.34.35-.6Z"/><path class="cls-1" d="M234.52,239c.44-8.15.11-16.4,2.17-24.37A52.49,52.49,0,0,1,241,203.74a57,57,0,0,0,4.49-10,34.65,34.65,0,0,0,1.41-11.58.68.68,0,0,0-1.36,0c-.23,3.62-.26,7.13-1.22,10.66a55.13,55.13,0,0,1-4.44,10.26,54.27,54.27,0,0,0-4.1,10.35,57.29,57.29,0,0,0-1.76,11.87c-.24,4.56-.13,9.14-.18,13.72,0,.41.62.41.64,0Z"/><path class="cls-1" d="M245.45,206.59c-1.1-2.76.25-5.78,1.58-8.21s3.08-4.76,4.58-7.16a25.81,25.81,0,0,0,3.45-9.18,23,23,0,0,0,.36-5,11,11,0,0,0-.89-4.68.6.6,0,0,0-1.11.3c.11,1.74.63,3.4.64,5.18a24,24,0,0,1-.68,5.59,26.6,26.6,0,0,1-3.87,8.58c-2.65,4-7.13,9.85-5,14.93.21.52,1.12.14.91-.38Z"/><path class="cls-1" d="M269.5,141.8c1.55,7.79,5.48,16,1.72,23.79-2.23,4.63-5.86,9.86-10.58,12.2a5.71,5.71,0,0,1-3.66.66c-1.44-.29-2.36-1.37-3.4-2.31a.61.61,0,0,0-1,.73,5.8,5.8,0,0,0,6.53,3c2.8-.6,5.18-2.72,7.07-4.75,4.42-4.77,7.95-10.62,7.86-17.3-.08-5.62-2.4-10.87-3.69-16.27-.14-.59-1-.34-.9.25Z"/><path class="cls-1" d="M267.34,149.12c.87,4.66,1.54,10.27-.1,14.83-1.37,3.82-4.83,8.78-9.35,8.57-.66,0-.84,1.07-.16,1.18,4.78.81,8.68-4.91,10.25-8.67,2-4.92,1.27-11.08.27-16.16-.12-.59-1-.34-.91.25Z"/><path class="cls-1" d="M216.19,117c-3.3,8.72,4.72,17.05,10.12,22.88,3,3.24,6.38,6.36,8.77,10.12,3.43,5.39,2.95,12,2.56,18.06-.21,3.23-.32,6.38.73,9.48a45.74,45.74,0,0,0,4.36,8.35.6.6,0,0,0,1-.61,50,50,0,0,1-4-7.4,19.94,19.94,0,0,1-1-8.54c.35-6.07,1-12.44-1.67-18.11-1.72-3.64-4.78-6.64-7.51-9.53-3.31-3.5-6.78-6.92-9.55-10.89s-4.86-8.77-3.1-13.62c.16-.44-.53-.62-.69-.19Z"/><path class="cls-1" d="M228.3,182.89a23.93,23.93,0,0,1,4.48,4.84,15.7,15.7,0,0,1,2.08,4.7,8.82,8.82,0,0,0,1.55,3.67,2.32,2.32,0,0,0,3.28.17.46.46,0,0,0-.44-.76c-.53.18-1.05.55-1.62.31a2.28,2.28,0,0,1-1-1.17,23.3,23.3,0,0,1-1.14-3.55c-1.11-3.58-3.81-6.43-6.61-8.8-.4-.34-1,.24-.59.59Z"/><path class="cls-1" d="M224,125.89c2,3.69,3.59,7.61,5.57,11.32,2.17,4.06,4.65,8.72,8.45,11.49,1.27.92,3.42,2,4.94,1a.34.34,0,0,0-.17-.63,6.77,6.77,0,0,1-2.2,0,6.29,6.29,0,0,1-2.16-1.09,20.24,20.24,0,0,1-4.4-4.87,98.92,98.92,0,0,1-7-12.55c-.83-1.67-1.61-3.37-2.54-5a.31.31,0,0,0-.54.31Z"/><path class="cls-1" d="M234.29,79.42c7.37,13.65,12.13,29.08,11.21,44.73a78.46,78.46,0,0,1-2.24,13.53.43.43,0,0,0,.83.24c2.42-7.55,2.86-16,2.16-23.81a82.29,82.29,0,0,0-5.55-22.9A104.93,104.93,0,0,0,235,79c-.24-.45-.93,0-.68.4Z"/><path class="cls-1" d="M194.71,107.5c4.26,4.11,6.82,9.61,11,13.8,2.07,2.08,4.54,3.79,6.38,6.09s2.34,5.28,4,7.67a.55.55,0,0,0,1-.55c-1.17-2.53-2-5.31-3.72-7.55-1.81-2.4-4.35-4.13-6.5-6.19-4.36-4.18-7.09-9.73-11.51-13.84-.38-.35-.95.21-.58.57Z"/><path class="cls-1" d="M181.74,147.08c-1.67,3.86.43,8.88,2.15,12.37a19.35,19.35,0,0,0,3.59,5.31,27,27,0,0,0,6.56,4.48,57.6,57.6,0,0,1,7.16,4.1,16,16,0,0,1,5.11,6.82,39.36,39.36,0,0,0,3.53,7.16,22,22,0,0,0,3.69,4c2.48,2.13,8.52,6.05,10.81,1.51a.56.56,0,0,0-.87-.68,4.1,4.1,0,0,1-4.78,1,16,16,0,0,1-5.05-3.39,19.28,19.28,0,0,1-3.5-4.15,56.82,56.82,0,0,1-3-6.32,16.77,16.77,0,0,0-4-5.74,28.74,28.74,0,0,0-6.27-3.9c-4.22-2.16-8.46-4.27-11-8.43a28.87,28.87,0,0,1-3.1-6.84c-.67-2.18-1.25-4.78-.32-7,.17-.41-.55-.71-.72-.3Z"/><path class="cls-1" d="M140,159.42c.51,3.14,3,5.51,5.52,7.25a37.28,37.28,0,0,0,11,5c3.2.94,6.77,1.76,10.13,1.31,1.28-.17,2.53-.54,3.8-.78a10.41,10.41,0,0,1,5.11.24c2.45.74,4.88,2.14,7.52,2,4.43-.24,4.62-5.56,2.41-8.44-.29-.38-1-.19-.84.35.5,1.7,1.6,3.53.92,5.35s-2.85,1.82-4.46,1.48c-2.45-.52-4.68-1.8-7.18-2.13s-4.56.48-6.85.89c-3.17.58-6.53-.14-9.6-.95a40.27,40.27,0,0,1-10.07-4.09c-2.9-1.71-6.17-4.11-6.82-7.64-.07-.39-.65-.22-.59.16Z"/><path class="cls-1" d="M162,178.64a22.4,22.4,0,0,1,11.88-3.26,26.07,26.07,0,0,1,11.79,3.35,9.54,9.54,0,0,0,5,1.35c2-.12,3.63-.48,5.48.42,3,1.46,3.76,4.48,4.65,7.43.19.63,1.22.54,1.19-.16a10.1,10.1,0,0,0-4.28-8.12,8.29,8.29,0,0,0-4.58-1.19c-1.11.06-2.2.35-3.31.31a9.13,9.13,0,0,1-3.74-1.26,26.57,26.57,0,0,0-12.24-3.32,23,23,0,0,0-12.29,3.75.41.41,0,0,0,.41.7Z"/><path class="cls-1" d="M206.5,192.55c6.18,2.45,11.89,6.44,15.23,12.32a27.09,27.09,0,0,1,3.15,10c.5,3.77.76,7.51,2.28,11.05,1.73,4,4.37,7.57,5.78,11.76a.44.44,0,0,0,.85-.23c-.79-3.94-3.32-7.28-5.09-10.81-1.92-3.82-2.2-7.9-2.76-12.06a26.48,26.48,0,0,0-9.26-17.41,35.38,35.38,0,0,0-9.92-5.61c-.59-.23-.84.72-.26,1Z"/><path class="cls-1" d="M140.62,217.44a6.69,6.69,0,0,1,4.33-4.08c1.87-.6,3.8-.46,5.7-.85a9.49,9.49,0,0,0,5-2.71,7.21,7.21,0,0,0,1.53-2.47c.29-.82.64-2.18.11-3a.74.74,0,0,0-1.26,0,4,4,0,0,0-.24,1.49,4.75,4.75,0,0,1-.4,1.38,6,6,0,0,1-1.68,2.09,9.74,9.74,0,0,1-5.37,1.95,12.48,12.48,0,0,0-5.34,1.57,8.1,8.1,0,0,0-3.34,4.31c-.21.62.74.86,1,.27Z"/><path class="cls-1" d="M161.26,216a10.84,10.84,0,0,0,1.12-7.26,11.62,11.62,0,0,0-1.24-3.26,15.36,15.36,0,0,0-1-1.62,4.21,4.21,0,0,0-1.28-1.34c-.39-.18-1,.13-.81.62a4.75,4.75,0,0,0,.89,1.25,14.07,14.07,0,0,1,1,1.37,11.06,11.06,0,0,1,1.29,3,9.57,9.57,0,0,1-.85,6.66c-.32.63.62,1.2,1,.56Z"/><path class="cls-1" d="M152.57,203.26c1.15-1.91,3.72-2,5.71-2A26.54,26.54,0,0,0,164,201a11.69,11.69,0,0,0,5.19-2.59c1.23-1.13,2.38-3.57.82-4.95-.37-.32-1.16-.15-1.09.45.12.93.5,1.56,0,2.47a5.21,5.21,0,0,1-1.9,1.8,11,11,0,0,1-4.93,1.66c-3.27.26-8.38-.47-10.29,3a.45.45,0,0,0,.78.46Z"/><path class="cls-1" d="M151.14,188.71c5.44-3.42,12.08.31,17.4,2.23,3.39,1.22,9.6,3.21,11.21-1.68.18-.55-.61-1-1-.58-.79,1-1.38,1.89-2.65,2.25a6.83,6.83,0,0,1-3.24-.05,47.81,47.81,0,0,1-6.49-2.13c-5-1.85-10.78-4.28-15.58-.63-.34.25,0,.83.34.59Z"/></g></svg>