<svg xmlns="http://www.w3.org/2000/svg" viewBox="0 0 455.6 445.68"><defs><style>.cls-1{font-size:316.34px;font-family:Webdings;}.cls-2{fill:none;stroke:#fff;stroke-miterlimit:10;}.cls-3{fill:#fff;}</style></defs><g id="OBJECTS"><text class="cls-1" transform="translate(23.45 325.14)"></text><path class="cls-2" d="M299,201.72c-.93-.59-1.88-1.14-2.84-1.64-3.12-1.59-6.43-2.42-9.63-3.71a48.63,48.63,0,0,1-9.84-5.51c-6.33-4.51-13.62-7.3-20.92-7-3.46.17-6.63,1.9-10,2.66-3.69.83-7.41-.54-11.12,0-6.4.92-11.85,4.79-16.83,9.8A74.69,74.69,0,0,0,203,217.44a42,42,0,0,0-3.9,13.56,104.89,104.89,0,0,1-1.43,10.75"/><path class="cls-3" d="M302.2,204a58.35,58.35,0,0,1,9.68,9.57,66.11,66.11,0,0,1,11.38,20.26c5.2,15.33,3.66,32.49.38,48.4"/><path class="cls-3" d="M323.64,282.19c-.16.77-.32,1.54-.49,2.31"/><path class="cls-3" d="M321.77,284.89c-.39,2-.79,4.05-1.16,6.08-.14.78.75,1.16.95.37.55-2.24,1.09-4.53,1.59-6.84"/><path class="cls-3" d="M197.62,241.75c-.1.45-.21.89-.33,1.33"/><path class="cls-2" d="M197.29,243.08a23,23,0,0,1-1.28,3.54c-.18.38.28.75.46.37,3.58-7.62,2.1-17.11,5.18-25a70.91,70.91,0,0,1,11.91-19.9c4.66-5.46,10-10.83,16.11-13.22a21.37,21.37,0,0,1,10.45-1.21,19.23,19.23,0,0,0,4.61.15,27.8,27.8,0,0,0,5.51-1.56c7.07-2.45,14.52-.93,21.23,2.6,3.28,1.73,6.26,4.22,9.5,6.06a58.31,58.31,0,0,0,9.16,4,43.43,43.43,0,0,1,16.63,10.74A67.5,67.5,0,0,1,320,228.87c4.12,9,5.75,19.31,5.44,29.65-.25,8.45-1.76,16.56-3.35,24.67"/><path class="cls-3" d="M322.1,283.19l-.33,1.7"/><path class="cls-3" d="M302.2,204c-1.06-.8-2.14-1.55-3.24-2.24"/><path class="cls-3" d="M212.33,209.7c2.55-5.8,6.19-10.47,11.13-12.83a32.6,32.6,0,0,1,7.95-2.17,90.15,90.15,0,0,0,10-2.94,41.34,41.34,0,0,1,10.06-2.37,17.32,17.32,0,0,1,8.62,2.18c2.67,1.3,5.29,2.83,8.1,3.58a54.49,54.49,0,0,1,6.86,1.87,16.69,16.69,0,0,1,6.8,4.86c2.1,2.61,3,5.85,3.41,9.5.07.68,1,.56,1-.13a16.7,16.7,0,0,0-7.69-13.88,22.2,22.2,0,0,0-7.06-2.75,35.21,35.21,0,0,1-8.33-2.74c-2.83-1.4-5.64-2.94-8.68-3.44-3.25-.53-6.59.29-9.75,1.2-3.68,1.05-7.29,2.47-11,3.46-3,.82-6.13,1.05-9.1,2.21-5.74,2.25-10,7.26-12.94,13.89C211.47,209.73,212.1,210.23,212.33,209.7Z"/><path class="cls-3" d="M228.83,181.48a52.3,52.3,0,0,1,8.53-.34,18.19,18.19,0,0,0,3.55-.37"/><path class="cls-3" d="M244.49,179.79c2.24-.74,4.46-1.66,6.77-2.38a18.5,18.5,0,0,1,13.07.75,32.14,32.14,0,0,1,3.55,1.82"/><path class="cls-3" d="M218.43,186.4a38.89,38.89,0,0,1,5.29-3.27c.33-.17.65-.32,1-.46"/><path class="cls-3" d="M299,201.72c-2.69-3.19-5.07-6.83-8.27-9.2-2.55-1.9-5.44-2.76-8.28-3.62a33.13,33.13,0,0,1-7.92-3.39c-4-2.45-8-5.31-12.28-6.79-4.83-1.65-9.35-.71-14,1.09a31.74,31.74,0,0,1-12.89,2.44,27.69,27.69,0,0,0-6.92.35,22.72,22.72,0,0,0-6.82,3c-.83.5-1.64,1-2.43,1.61"/><path class="cls-3" d="M244.49,179.79a32.15,32.15,0,0,1-3.58,1"/><path class="cls-3" d="M270.45,181.57l-1.27-.81"/><path class="cls-3" d="M228.83,181.48a16.93,16.93,0,0,0-4.13,1.19"/><path class="cls-3" d="M197.62,241.75c0,.32,0,.65,0,1s-.16.37-.31.36"/><path class="cls-3" d="M267.88,180l1.3.78"/><path class="cls-3" d="M302.2,204c.05.41-.28.86-.61.55a30.37,30.37,0,0,1-2.63-2.79"/><path class="cls-3" d="M271.59,182.29a53.69,53.69,0,0,0,5.92,3.46c4.78,2.29,10.09,2.63,14.45,6.31,3.8,3.21,6.42,8.12,10.07,11.55a.64.64,0,0,1,.17.35"/><path class="cls-3" d="M218.43,186.4c-.44.32-.88.65-1.31,1"/><path class="cls-3" d="M219.1,187.18l-.48.33"/><path class="cls-3" d="M197.29,243.08a.33.33,0,0,1-.29-.38c.13-7.2-.51-14.48.38-21.63.83-6.66,3.33-12.37,6.4-17.76a54.45,54.45,0,0,1,13.34-15.92"/><path class="cls-3" d="M271.59,182.29l-1.14-.72"/><path class="cls-2" d="M197.62,241.75c.11-5.8-.21-11.62.2-17.4A43.93,43.93,0,0,1,202.76,207c4.08-8,9.41-14.78,15.86-19.51"/><path class="cls-3" d="M228.83,181.48a29.48,29.48,0,0,0-4.23,2c-.3.18-.56-.4-.25-.6l.35-.2"/><path class="cls-3" d="M228.83,181.48c1.85-.73,3.73-1.35,5.56-2.16,3-1.28,5.59-3.29,8.38-5a23.24,23.24,0,0,1,9-3.59,51.85,51.85,0,0,1,9.73,0c6.07.33,12.17.94,18.23,0a30.87,30.87,0,0,0,16.65-8.22,32.13,32.13,0,0,0,9.44-17.6c.14-.67-.67-1-.8-.32a31.2,31.2,0,0,1-8.57,16.51,30.36,30.36,0,0,1-17.15,8.6c-6.14.89-12.34.18-18.49-.11a48.75,48.75,0,0,0-9.12.1,21.68,21.68,0,0,0-7.69,2.78c-3.3,1.88-6.33,4.41-9.76,5.92-3.18,1.4-6.46,2.45-9.51,4.3"/><path class="cls-3" d="M240.91,180.77l-.35.14c-.26.1-.17.61.1.53a22.58,22.58,0,0,0,3.83-1.65"/><path class="cls-3" d="M244.49,179.79c4.25-2.25,8.24-5.39,13-5.58,6.24-.24,12.44,1.43,18.63,2.19,5.47.67,11.12.84,16.42-1.25s9.53-6.1,12.71-11.63c3.4-5.9,6.13-13.81,6.08-21.25,0-.71-.79-.73-.86,0-1.26,14.06-7.36,27.73-18.57,31.89s-22.76-1.49-34.14-1.05a16.88,16.88,0,0,0-8.1,2.61c-2.9,1.72-5.68,3.85-8.74,5.09"/><path class="cls-3" d="M302.21,178.42c.29-.15.57-.32.86-.49"/><path class="cls-3" d="M267.88,180a13.62,13.62,0,0,1-1.6-.53c-.48-.2-.7.74-.23,1a17.21,17.21,0,0,0,3.83,1.08"/><path class="cls-3" d="M304.7,176.91c6.59-4.41,11.81-11.62,14.57-20.65,1.77-5.78,3.44-14,.65-19.72-.29-.6-1-.12-.76.52,2.16,5.62,1.24,12-.36,17.67a41,41,0,0,1-7.49,14.9,30.86,30.86,0,0,1-12.07,9c-5.14,2.09-10.61,2.37-16,2.21-2.88-.08-5.75-.15-8.63-.19a27.07,27.07,0,0,1-6.76-.7"/><path class="cls-3" d="M304.15,177.28l.55-.37"/><path class="cls-3" d="M270.45,181.57c.79.11,1.59.19,2.38.23"/><path class="cls-3" d="M303.07,177.93l.24-.14"/><path class="cls-3" d="M269.88,181.48c.19,0,.38.06.57.09"/><path class="cls-3" d="M272.83,181.8c2.95.17,5.94,0,8.78.1a65.69,65.69,0,0,0,8.06,0"/><path class="cls-3" d="M302.21,178.42a27.31,27.31,0,0,1-3.16,1.46,29.71,29.71,0,0,1-6.67,1.7"/><path class="cls-3" d="M303.32,177.78h0"/><path class="cls-3" d="M304.15,177.28c-.27.18-.55.34-.83.5"/><path class="cls-3" d="M289.67,181.86c.91-.06,1.81-.15,2.71-.28"/><path class="cls-3" d="M272.83,181.8c-1.09-.4-2.17-.85-3.25-1.37-.22-.12-.38.09-.4.33"/><path class="cls-3" d="M271.59,182.29q-.87-.37-1.71-.81"/><path class="cls-3" d="M269.18,180.76a.48.48,0,0,0,.2.49l.5.23"/><path class="cls-3" d="M271.59,182.29c4.6,2,9.4,2.88,14.2,3.81,5,1,11.25,1.62,15.23,6.07,3.24,3.62,5.2,8.71,8.51,12.29a20.18,20.18,0,0,0,5.1,4c2.12,1.16,4.34,1.57,6.55,2.32a16.16,16.16,0,0,1,10.95,11.95c.16.63.86.41.78-.24a15.22,15.22,0,0,0-7.59-11.15c-4.27-2.54-9.05-2.56-13.09-5.87s-6.31-8.6-9.57-13c-3.38-4.55-8.26-5.77-12.93-6.79-5.64-1.24-11.39-1.91-16.9-3.93"/><path class="cls-3" d="M289.67,181.86a35.88,35.88,0,0,0,7,1.16,25.56,25.56,0,0,1,7.58,2,22.24,22.24,0,0,1,6.63,4.24,33.61,33.61,0,0,1,5.05,6.82,66.73,66.73,0,0,0,4.31,6.55,25.53,25.53,0,0,0,5.61,5.08c4.54,3.17,9.39,5.73,13.56,9.7a21.16,21.16,0,0,1,4.53,6.14,57.45,57.45,0,0,1,2.76,7.86c.26.81,1.33.28,1.13-.55-1.16-4.68-2.9-9.2-5.74-12.59-3.64-4.36-8.32-7.06-12.72-9.92a38.54,38.54,0,0,1-6.91-5.19,39.38,39.38,0,0,1-4.9-6.76,41.86,41.86,0,0,0-4.74-6.64,24.3,24.3,0,0,0-6-4.55,25.23,25.23,0,0,0-7.65-2.8c-2.25-.4-4.53-.45-6.77-.8"/><path class="cls-3" d="M292.38,181.58a18.32,18.32,0,0,1-3.06-.71c-.41-.15-.61.67-.2.82l.55.17"/><path class="cls-3" d="M328.56,194.65l-.1-.16"/><path class="cls-3" d="M307.81,178.71a27.67,27.67,0,0,1-4-.77"/><path class="cls-3" d="M330.93,198.19c.47.68.95,1.35,1.44,2"/><path class="cls-3" d="M326.59,191.72c.63.91,1.25,1.83,1.87,2.77"/><path class="cls-3" d="M303,177.65a5,5,0,0,1-.48-.21c-.48-.23-.72.7-.29,1"/><path class="cls-3" d="M328.56,194.65c.78,1.19,1.56,2.37,2.37,3.54"/><path class="cls-3" d="M337,205.05a29.56,29.56,0,0,1-4.51-4.68l-.13-.18"/><path class="cls-3" d="M303,177.65l.33.13"/><path class="cls-3" d="M307.81,178.71h0a18.52,18.52,0,0,1,4.84,1.48,34.52,34.52,0,0,1,9.05,5.75,33.93,33.93,0,0,1,4.85,5.77"/><path class="cls-3" d="M337,205.05a82.18,82.18,0,0,0,10.15,6.77c4.78,3,8.26,7.86,10.59,13.89,2.66,6.89,2.62,15.26,1.37,22.65-.13.79-1.06.52-1.06-.23.05-4.39.7-8.7.41-13.11a31.94,31.94,0,0,0-3.37-12,24.74,24.74,0,0,0-5.33-7.37,42.53,42.53,0,0,0-6.95-4.68c-4.84-3-9.24-6.44-12.69-11.78-3.22-5-6.24-10.23-10.66-13.63a35.07,35.07,0,0,0-8.76-5c-2.77-1-5.74-.79-8.46-2.11l0,0"/><path class="cls-3" d="M248.39,262.28a82.15,82.15,0,0,0,10.14,6.78c4.78,2.94,8.26,7.86,10.59,13.88,2.67,6.9,2.62,15.27,1.37,22.66-.13.79-1.06.52-1.05-.23,0-4.39.7-8.7.4-13.11a31.71,31.71,0,0,0-3.37-12,24.94,24.94,0,0,0-5.32-7.38,43,43,0,0,0-7-4.67c-4.84-3-9.24-6.44-12.69-11.79-3.22-5-6.24-10.22-10.66-13.62a35.07,35.07,0,0,0-8.76-4.95c-2.77-1.05-5.74-.79-8.46-2.12l0,0"/><path class="cls-3" d="M303.79,177.94c-.15,0-.31-.1-.47-.16"/><path class="cls-3" d="M303.32,177.78h0"/><path class="cls-3" d="M365.83,244.68a25.92,25.92,0,0,0-.88-10.21c-.31-.92-1.33-.17-1.06.73a24.15,24.15,0,0,1,.5,9.29,32.83,32.83,0,0,1-2.17,8.87c-.28.7.42,1.63.9.94C364.9,251.76,365.56,248,365.83,244.68Z"/><path class="cls-3" d="M366.84,265.92c.79-1.44,1.45-3.06,2.18-4.57a18.64,18.64,0,0,0,1.71-4.73,32.16,32.16,0,0,0,.33-5.81c0-2.26-.06-4.52,0-6.78,0-.78-.92-.82-1,0-.1,2.12-.14,4.24-.21,6.37a36.48,36.48,0,0,1-.41,5.93,18.57,18.57,0,0,1-1.78,4.56,15.71,15.71,0,0,0-1.86,4.48C365.7,266.11,366.46,266.61,366.84,265.92Z"/><path class="cls-3" d="M337,205.05a17.41,17.41,0,0,1-7.52-7.49.46.46,0,0,1,.14-.63"/><path class="cls-3" d="M330.77,198.05a16.56,16.56,0,0,0,1.6,2.14"/><path class="cls-3" d="M329.63,196.93a.37.37,0,0,1,.55.16c.19.34.39.65.59,1"/><path class="cls-3" d="M337,205.05c3.41,1.79,7.21,2.63,10.93,3.78,8.32,2.57,14.62,9.54,18.59,19.1.35.85,1.32.16,1-.71-3.07-8.89-9.75-16.06-17-18.92-6.22-2.45-13.28-2.57-18.2-8.11"/><path class="cls-3" d="M329.63,196.93a13.41,13.41,0,0,1-1.27-1.59.67.67,0,0,1,0-.8"/><path class="cls-3" d="M329.63,196.93a13.38,13.38,0,0,0,1.14,1.12"/><path class="cls-3" d="M330.93,198.19l-.16-.14"/><path class="cls-3" d="M328.4,194.54l.06,0"/><path class="cls-3" d="M329.53,195.28c-.18-.23-.36-.47-.53-.72a.33.33,0,0,0-.54-.07"/><path class="cls-3" d="M330.93,198.19c4.64,3.93,11.23,4.33,16.47,5.2,8.19,1.35,16.87,3.9,22.86,11.67a29.3,29.3,0,0,1,6.43,18.35c0,.72.91,1,1,.22.85-5.42-1.42-11.1-3.85-15.35A29.68,29.68,0,0,0,364,207.62c-7.23-4.52-15.22-5-23-6.57-4-.81-8.49-2-11.45-5.77"/><path class="cls-3" d="M326.59,191.72l0,0c-.44-.42-.88.49-.45.91a18.14,18.14,0,0,0,2.3,1.95"/><path class="cls-3" d="M328.4,194.54a.91.91,0,0,1,.16.11"/><path class="cls-3" d="M329.53,195.28c4.15,2.52,9,3.31,13.49,3.86a45.92,45.92,0,0,0,10.48.13,74.41,74.41,0,0,1,11.55-.62c.65,0,.63-1.12,0-1.25-3.54-.75-7.23,0-10.77.39a46.23,46.23,0,0,1-10.45.1c-5.87-.65-12.42-1.49-17.27-6.17"/><path class="cls-3" d="M329.53,195.28c-.33-.2-.65-.41-1-.63"/><path class="cls-3" d="M379.74,215.41c.8,2.85,1.77,5.61,2.45,8.51.73,3.08,1.35,6.49.38,9.59-.2.66.61,1,.82.32,2.07-6.06-1-13.09-2.56-18.75a20.07,20.07,0,0,0-4.13-7.91c-2-2.38-4.44-3.94-6.58-6-.43-.42-1,.34-.77.92,1.25,2.61,4.15,3.51,5.91,5.47A19,19,0,0,1,379.74,215.41Z"/><path class="cls-3" d="M322.83,178.86c-4.88-1.13-10-.86-15-1.19"/><path class="cls-3" d="M307.81,178.71c3.17.32,6.35.3,9.53.54a24.12,24.12,0,0,1,13.82,5.07c3.56,2.84,6.86,6.22,11,7.44a27.92,27.92,0,0,0,7,.93c2.27.07,4.79.51,7,.11.47-.08.44-1,0-1.15-2.16-.84-4.78-.39-7-.44a24.39,24.39,0,0,1-7.74-1.16c-4.17-1.5-7.45-5.31-11.18-7.93a18.7,18.7,0,0,0-1.94-1.19"/><path class="cls-3" d="M304.15,177.28l-.54-.08c-.25,0-.37.32-.3.58"/><path class="cls-3" d="M303.31,177.78h0"/><path class="cls-3" d="M304.27,177.3c.48.07,1,.14,1.45.19"/><path class="cls-3" d="M322.83,178.86a21.87,21.87,0,0,1,5.53,2.07"/><path class="cls-3" d="M303.48,178a.29.29,0,0,1-.17-.2"/><path class="cls-3" d="M303.48,178l0,0a30.46,30.46,0,0,0,4.31.7"/><path class="cls-3" d="M307.83,177.67c-.71,0-1.41-.1-2.11-.18"/><path class="cls-3" d="M304.15,177.28l.12,0"/><path class="cls-3" d="M322.83,178.86a.28.28,0,0,1,.28-.07c7.71,2.43,15.77.56,23.52,2.7a29.47,29.47,0,0,1,9.12,4.26,31.12,31.12,0,0,1,7.91,7.57c.3.45-.13,1.2-.53.83-2.72-2.54-5.08-5.42-8.07-7.48a29.08,29.08,0,0,0-9.39-4.19c-5.69-1.44-11.57-.76-17.31-1.55"/><path class="cls-3" d="M216.23,216.79a.28.28,0,0,1,.28-.06c7.71,2.43,15.77.56,23.53,2.69a29.6,29.6,0,0,1,9.12,4.27,30.75,30.75,0,0,1,7.9,7.57c.31.44-.13,1.19-.53.82-2.72-2.54-5.07-5.41-8.07-7.48a29.08,29.08,0,0,0-9.39-4.19c-5.69-1.44-11.57-.76-17.3-1.54"/><path class="cls-3" d="M238.56,224.53a.29.29,0,0,1,.28-.07c7.71,2.43,15.77.56,23.53,2.69a29.6,29.6,0,0,1,9.12,4.27A31,31,0,0,1,279.4,239c.3.45-.14,1.2-.54.82-2.72-2.53-5.07-5.41-8.07-7.47a29.16,29.16,0,0,0-9.38-4.2c-5.7-1.44-11.57-.76-17.31-1.54"/><path class="cls-3" d="M322.83,178.86c-.2.19-.23.64.08.75a25.18,25.18,0,0,0,5.45,1.32"/><path class="cls-3" d="M334.94,174.73c-.42-.06-.84-.13-1.26-.17"/><path class="cls-3" d="M332.33,174.45c.45,0,.9.06,1.35.11"/><path class="cls-3" d="M332.33,174.45l-1.24-.09"/><path class="cls-3" d="M309.34,176.31l-1.59.28"/><path class="cls-3" d="M309.34,176.31c3.46-.64,6.92-1.26,10.41-1.66a63.77,63.77,0,0,1,7.66-.42"/><path class="cls-3" d="M304.2,177.88a.62.62,0,0,1,.07-.58"/><path class="cls-3" d="M327.41,174.23c1.17,0,2.34,0,3.5.11"/><path class="cls-3" d="M307.75,176.59l-1,.19"/><path class="cls-3" d="M306.75,176.78l-2.32.42a.25.25,0,0,0-.16.1"/><path class="cls-3" d="M304.2,177.88a.3.3,0,0,0,.3.24q1.67-.21,3.33-.45"/><path class="cls-3" d="M330.91,174.34l.18,0"/><path class="cls-3" d="M307.83,177.67c7.95-1.12,15.9-2.61,23.92-2,9.18.65,18,4.07,26.67,7.58,2.43,1,4.86,2,7.27,3s4.87,2.62,7.39,3.32c.42.12.71-.58.33-.91a22.93,22.93,0,0,0-5.89-3.18c-2.23-1-4.49-1.9-6.74-2.81-4.47-1.79-8.92-3.63-13.45-5.13a66,66,0,0,0-12.39-2.79"/><path class="cls-3" d="M203.82,234.92c8-1.12,15.9-2.61,23.92-2,9.18.66,18,4.07,26.67,7.58,2.43,1,4.86,2,7.27,3s4.87,2.62,7.39,3.32c.42.12.71-.58.33-.91a22.59,22.59,0,0,0-5.89-3.17c-2.23-1-4.49-1.91-6.74-2.82-4.47-1.79-8.92-3.63-13.45-5.12a65.27,65.27,0,0,0-12.39-2.8"/><path class="cls-3" d="M248.37,225.79c8-1.12,15.91-2.61,23.93-2,9.17.65,17.95,4.07,26.66,7.58,2.43,1,4.86,1.95,7.28,3s4.87,2.61,7.38,3.32c.43.11.72-.58.33-.91a22.87,22.87,0,0,0-5.88-3.18c-2.24-1-4.49-1.9-6.75-2.81-4.46-1.79-8.91-3.63-13.44-5.13a66.19,66.19,0,0,0-12.39-2.79"/><path class="cls-3" d="M334.94,174.73c3.23-.48,6.69,0,9.84.07a63.13,63.13,0,0,1,14.64,1.73c8.34,2.17,15.39,7.62,22.65,13,.5.38,1-.57.48-1-7.14-6-14.8-11.34-23.3-13.38a55.13,55.13,0,0,0-8.64-1.3"/><path class="cls-3" d="M265,251.34c3.22-.47,6.69,0,9.83.08a62.53,62.53,0,0,1,14.64,1.73c8.34,2.17,15.4,7.62,22.65,13,.51.38,1-.57.49-1-7.15-6-14.81-11.34-23.31-13.37a55,55,0,0,0-8.64-1.3"/><path class="cls-3" d="M347.75,173.72c.95,0,1.9.1,2.86.17"/><path class="cls-3" d="M331.93,174.8c-.08.29.08.68.38.56a13.26,13.26,0,0,1,2.63-.63"/><path class="cls-3" d="M337.81,173.46a15.68,15.68,0,0,0-5.48,1"/><path class="cls-3" d="M332.33,174.45l-.18.06a.39.39,0,0,0-.22.29"/><path class="cls-3" d="M337.81,173.46c2.36-.07,4.75.16,7,.18,1,0,1.95,0,2.94.08"/><path class="cls-3" d="M350.61,173.89a67.4,67.4,0,0,1,10.92-2.59,26.77,26.77,0,0,1,13.33,2.13,43.76,43.76,0,0,1,11.71,7.41,46.73,46.73,0,0,1,5.29,5.41c1.63,2,3,4.23,4.61,6.16.39.47,1-.07.77-.71a25.06,25.06,0,0,0-4.41-6.6,48.68,48.68,0,0,0-5.41-5.43,46.25,46.25,0,0,0-12-7.51,27.41,27.41,0,0,0-13.36-2.25c-4.8.47-9.45,2.18-14.11,3.63a.42.42,0,0,0-.21.18"/><path class="cls-3" d="M347.75,173.72c-.21.33,0,.95.4.84.82-.21,1.64-.44,2.46-.67"/><path class="cls-3" d="M337.81,173.46a42.78,42.78,0,0,0,8.87-4.44,50.35,50.35,0,0,0,7.05-5.47c2-1.87,4.6-4.09,5.86-6.9.24-.52-.23-1.35-.69-.94-2,1.78-3.58,4.28-5.51,6.18a49.33,49.33,0,0,1-7.05,5.74A44.62,44.62,0,0,1,332,174"/><path class="cls-3" d="M331.09,174.36c-.07.21,0,.52.23.51l.61-.07"/><path class="cls-3" d="M333.68,174.56c-.58.1-1.17.18-1.75.24"/><path class="cls-3" d="M337.81,173.46a27.68,27.68,0,0,1-4.13,1.1"/><path class="cls-3" d="M331.09,174.36a.2.2,0,0,1,0-.08"/><path class="cls-3" d="M332,174l-.74.19a.2.2,0,0,0-.14.11"/><path class="cls-3" d="M331.13,174.28l-.22.06"/><path class="cls-3" d="M332,174l-.88.3"/><path class="cls-3" d="M332,174a33.62,33.62,0,0,0,14.54-10,27.94,27.94,0,0,0,5.38-12.12c.51-2.38.85-4.82,1.23-7.24s1.23-5.07,1.32-7.54c0-.77-.8-1.07-1.12-.44-.93,1.84-1.11,4.48-1.42,6.6-.35,2.34-.65,4.69-1.07,7-.86,4.75-2.34,9.19-5.12,12.64a33,33,0,0,1-18.34,11.32"/><path class="cls-3" d="M327.41,174.23l-.12,0c-.49.1-.31,1,.18,1a28,28,0,0,0,3.44-.87"/><path class="cls-3" d="M247.39,248.08l-.12,0c-.49.1-.3,1,.18.95a30,30,0,0,0,3.45-.86"/><path class="cls-3" d="M307.75,176.59c-.2.11-.4.22-.61.32"/><path class="cls-3" d="M305.72,177.49c.48-.17.95-.36,1.42-.58"/><path class="cls-3" d="M303.79,177.94l.41-.06"/><path class="cls-3" d="M304.7,176.91c3.24-.89,6-3.48,9-5.31,2.32-1.44,4.73-2.59,7.07-4"/><path class="cls-3" d="M320.18,169.45c-2.43,1.28-4.92,2.37-7.26,3.89-.91.59-1.82,1.21-2.73,1.81"/><path class="cls-3" d="M310.19,175.15c-.8.52-1.61,1-2.44,1.44"/><path class="cls-3" d="M303,177.65a.43.43,0,0,0,.09.28"/><path class="cls-3" d="M303.48,178l-.19,0a.24.24,0,0,1-.22-.09"/><path class="cls-3" d="M330.48,159.76c-2,1.91-4,3.77-6.12,5.44-.58.46-1.18.89-1.78,1.29"/><path class="cls-3" d="M303.48,178l.31-.05"/><path class="cls-3" d="M330.48,159.76c.52-.49,1-1,1.55-1.48"/><path class="cls-3" d="M304.2,177.88a10.28,10.28,0,0,0,1.52-.39"/><path class="cls-3" d="M304.7,176.91a8.32,8.32,0,0,1-1.39.27c-.22,0-.33.26-.33.47"/><path class="cls-3" d="M322.58,166.49c-.6.4-1.21.78-1.82,1.15"/><path class="cls-3" d="M320.55,169.25c-.13.06-.25.13-.37.2"/><path class="cls-3" d="M320.55,169.25a32.45,32.45,0,0,0,3.25-2c3.58-2.56,6.81-5.93,10.17-8.93,3-2.69,5.62-5.78,8.87-8,.49-.33.19-1.3-.35-1.15-3.15.88-5.77,4.5-8.24,6.93-.73.72-1.47,1.45-2.22,2.17"/><path class="cls-3" d="M309.34,176.31c4.44-1.35,8.73-3.37,13.27-4.27,5-1,9.79-2.12,14.16-5.43,6.66-5.05,11.43-14.09,12.66-23.9a.56.56,0,1,0-1.1-.24c-1.29,4.8-2.21,9.48-4.46,13.77a27.86,27.86,0,0,1-8.51,9.8c-4.3,3.08-9.13,4-13.92,5.05-3.86.87-7.51,2.65-11.25,4.06"/><path class="cls-3" d="M236.13,254.38c4.45-1.35,8.74-3.37,13.28-4.27,5-1,9.79-2.12,14.16-5.43,6.66-5.05,11.43-14.09,12.65-23.9a.56.56,0,1,0-1.09-.24c-1.29,4.8-2.21,9.48-4.46,13.77a27.86,27.86,0,0,1-8.51,9.8c-4.3,3.08-9.13,4-13.92,5-3.86.87-7.51,2.65-11.25,4.06"/><path class="cls-3" d="M310.19,175.15c-1.09.4-2.18.79-3.29,1.1-.21.06-.24.34-.15.53"/><path class="cls-3" d="M309.34,176.31c-.73.22-1.46.42-2.2.6"/><path class="cls-3" d="M307.14,176.91l-.11,0a.25.25,0,0,1-.28-.16"/><path class="cls-3" d="M320.55,169.25l-.08.09a.28.28,0,0,1-.29.11"/><path class="cls-3" d="M320.55,169.25a28.44,28.44,0,0,0,2-2.76"/><path class="cls-3" d="M322.58,166.49a40.34,40.34,0,0,0,5.83-16.8,52.41,52.41,0,0,0,.2-11.61c-.34-3.57-1-7.65-2.59-10.66-.31-.58-1.2-.31-1,.49a77.2,77.2,0,0,1,2.36,10,48.4,48.4,0,0,1,.05,11c-.73,6.88-2.93,13.64-6.68,18.73"/><path class="cls-3" d="M320.76,167.64c-.26.34-.5.7-.77,1a.49.49,0,0,0,.19.77"/><path class="cls-3" d="M330.48,159.76c-.11.29-.22.6-.34.88-.24.56.4,1.08.66.53.44-.93.85-1.9,1.23-2.89"/><path class="cls-3" d="M371,279c0,.51.39.77.73.58,1-.55,1.59-2.3,2.09-3.44a16.9,16.9,0,0,0,1.3-4.32,13.29,13.29,0,0,0-.16-4.45,32.6,32.6,0,0,1-.8-4.64c0-.86-1.07-.93-1.07,0,0,2.9,1.2,5.69.71,8.6a15.92,15.92,0,0,1-1.29,4C372,276.4,371,277.66,371,279Z"/><path class="cls-3" d="M321.77,284.89a8.33,8.33,0,0,0,1.38-.39"/><path class="cls-3" d="M322.1,283.19c.52-.32,1-.65,1.54-1"/><path class="cls-3" d="M322.1,283.19l-.73.46c-.57.35-.18,1.35.38,1.25h0"/><path class="cls-3" d="M323.15,284.5c3-1.15,5.48-4,7.26-7.38A45.68,45.68,0,0,0,335.49,261a30.34,30.34,0,0,0-2.4-15.63c-1.82-4.05-4.15-7.71-5.89-11.83-2.15-5.08-2.78-10.37-.19-15.4.45-.86-.6-1.69-1.06-.85a17.19,17.19,0,0,0-1.76,11.94c.92,4.33,3,8.13,4.89,11.82,2,3.87,4,7.7,4.67,12.36.94,6.78-.77,13.32-3.22,19.26a26.83,26.83,0,0,1-3.51,6.42,15.71,15.71,0,0,1-3.38,3.07"/><path class="cls-2" d="M218.56,235.83c-.94-.59-1.88-1.14-2.85-1.64-3.12-1.59-6.42-2.42-9.62-3.71a49,49,0,0,1-9.85-5.51c-6.33-4.51-13.61-7.3-20.92-6.95-3.45.17-6.63,1.9-10,2.66-3.68.83-7.41-.54-11.12,0-6.4.92-11.84,4.79-16.83,9.8a74.69,74.69,0,0,0-14.83,21.07,42.25,42.25,0,0,0-3.9,13.56,99.61,99.61,0,0,1-1.43,10.75"/><path class="cls-3" d="M221.79,238.07a58.35,58.35,0,0,1,9.68,9.57,66.27,66.27,0,0,1,11.39,20.27c5.2,15.32,3.66,32.48.38,48.39"/><path class="cls-2" d="M116.88,277.19a21.06,21.06,0,0,1-1.28,3.54c-.17.38.28.75.46.37,3.59-7.62,2.11-17.11,5.19-25a70.68,70.68,0,0,1,11.91-19.9c4.65-5.46,10-10.83,16.1-13.22a21.38,21.38,0,0,1,10.45-1.21,19.33,19.33,0,0,0,4.62.15,28,28,0,0,0,5.51-1.56c7.07-2.45,14.52-.93,21.22,2.6,3.29,1.73,6.26,4.22,9.5,6.06a58.41,58.41,0,0,0,9.17,4,43.51,43.51,0,0,1,16.63,10.74A67.5,67.5,0,0,1,239.61,263c4.11,9,5.75,19.31,5.44,29.65-.25,8.45-1.77,16.56-3.35,24.67"/><path class="cls-3" d="M221.79,238.07c-1-.8-2.13-1.55-3.23-2.24"/><path class="cls-3" d="M131.92,243.81c2.56-5.8,6.19-10.47,11.14-12.83a32.47,32.47,0,0,1,7.95-2.17,90,90,0,0,0,10-2.94,41.53,41.53,0,0,1,10.07-2.37,17.29,17.29,0,0,1,8.61,2.18c2.67,1.3,5.29,2.83,8.1,3.58a54,54,0,0,1,6.86,1.87,16.62,16.62,0,0,1,6.8,4.86c2.1,2.61,3,5.85,3.41,9.5.07.68,1,.56.95-.13a16.68,16.68,0,0,0-7.69-13.88,22.24,22.24,0,0,0-7-2.75,35.43,35.43,0,0,1-8.34-2.74c-2.83-1.4-5.64-2.94-8.68-3.44-3.24-.53-6.59.29-9.75,1.2-3.68,1.05-7.29,2.47-11,3.46-3,.82-6.12,1-9.09,2.21-5.75,2.25-10,7.26-12.94,13.89C131.07,243.84,131.69,244.34,131.92,243.81Z"/><path class="cls-3" d="M218.56,235.83c-2.69-3.19-5.08-6.83-8.28-9.2-2.54-1.9-5.44-2.76-8.28-3.62a33.06,33.06,0,0,1-7.91-3.39c-4-2.45-8-5.31-12.29-6.79-4.83-1.65-9.34-.71-14,1.09a31.77,31.77,0,0,1-12.89,2.44,27.66,27.66,0,0,0-6.92.35,22.77,22.77,0,0,0-6.83,3c-.82.5-1.63,1-2.43,1.61"/><path class="cls-3" d="M221.79,238.07c.05.41-.27.86-.61.55a29,29,0,0,1-2.62-2.79"/><path class="cls-3" d="M191.18,216.4a54.63,54.63,0,0,0,5.92,3.46c4.79,2.29,10.1,2.63,14.46,6.31,3.8,3.21,6.42,8.12,10.07,11.55a.56.56,0,0,1,.16.35"/><path class="cls-3" d="M148.43,215.59c1.85-.73,3.72-1.35,5.56-2.16,2.95-1.28,5.58-3.29,8.37-5a23.22,23.22,0,0,1,9-3.59,51.74,51.74,0,0,1,9.72,0c6.07.33,12.18.94,18.24,0A30.94,30.94,0,0,0,216,196.6a32.13,32.13,0,0,0,9.44-17.6c.13-.67-.67-1-.81-.32A31.11,31.11,0,0,1,216,195.19a30.39,30.39,0,0,1-17.15,8.6c-6.14.89-12.34.18-18.49-.11a48.84,48.84,0,0,0-9.13.1,21.74,21.74,0,0,0-7.69,2.78c-3.3,1.88-6.32,4.41-9.75,5.92-3.18,1.4-6.46,2.45-9.51,4.3"/><path class="cls-3" d="M164.09,213.9c4.25-2.25,8.23-5.39,13-5.58,6.23-.24,12.44,1.43,18.62,2.19,5.47.67,11.13.84,16.43-1.25s9.52-6.1,12.7-11.63c3.4-5.9,6.13-13.81,6.09-21.25,0-.71-.8-.73-.86,0-1.26,14.06-7.37,27.73-18.58,31.89s-22.76-1.49-34.13-1a16.84,16.84,0,0,0-8.1,2.61c-2.91,1.72-5.68,3.85-8.75,5.09"/><path class="cls-3" d="M221.8,212.53c.29-.15.58-.32.87-.49"/><path class="cls-3" d="M224.29,211c6.59-4.41,11.82-11.62,14.58-20.65,1.76-5.78,3.44-14,.64-19.72-.29-.6-1-.12-.75.52,2.16,5.62,1.23,12-.37,17.67a40.8,40.8,0,0,1-7.49,14.9,30.83,30.83,0,0,1-12.06,9c-5.15,2.09-10.61,2.37-16,2.21-2.88-.08-5.75-.15-8.63-.19a27.07,27.07,0,0,1-6.76-.7"/><path class="cls-3" d="M223.75,211.39l.54-.37"/><path class="cls-3" d="M222.67,212l.23-.14"/><path class="cls-3" d="M192.43,215.91c2.94.17,5.93,0,8.78.1a65.7,65.7,0,0,0,8.06,0"/><path class="cls-3" d="M221.8,212.53a27.17,27.17,0,0,1-3.15,1.46,29.79,29.79,0,0,1-6.68,1.7"/><path class="cls-3" d="M222.92,211.89h0"/><path class="cls-3" d="M223.75,211.39c-.27.18-.55.34-.83.5"/><path class="cls-3" d="M209.27,216c.9-.06,1.8-.15,2.7-.28"/><path class="cls-3" d="M191.18,216.4c4.6,2,9.4,2.88,14.21,3.81,5,1,11.24,1.62,15.23,6.07,3.24,3.62,5.2,8.71,8.51,12.29a20,20,0,0,0,5.1,4c2.12,1.16,4.33,1.57,6.54,2.32a16.19,16.19,0,0,1,11,12c.16.63.86.41.78-.24a15.23,15.23,0,0,0-7.6-11.15c-4.26-2.54-9-2.56-13.08-5.87s-6.31-8.6-9.57-13c-3.38-4.55-8.27-5.77-12.93-6.79-5.65-1.24-11.4-1.91-16.9-3.93"/><path class="cls-3" d="M209.27,216a35.91,35.91,0,0,0,6.95,1.16,25.55,25.55,0,0,1,7.59,2,22.37,22.37,0,0,1,6.63,4.24,34,34,0,0,1,5.05,6.82,66.73,66.73,0,0,0,4.31,6.55,25.53,25.53,0,0,0,5.61,5.08c4.53,3.17,9.39,5.73,13.55,9.7a21.19,21.19,0,0,1,4.54,6.14,57.45,57.45,0,0,1,2.76,7.86c.25.81,1.33.28,1.12-.55-1.16-4.68-2.9-9.2-5.73-12.59-3.64-4.36-8.33-7.06-12.73-9.92a38.12,38.12,0,0,1-6.9-5.19,40,40,0,0,1-4.91-6.76,42.46,42.46,0,0,0-4.73-6.64,24.35,24.35,0,0,0-6-4.55,25.08,25.08,0,0,0-7.64-2.8c-2.26-.4-4.53-.45-6.78-.8"/><path class="cls-3" d="M212,215.69a18.44,18.44,0,0,1-3.05-.71c-.42-.15-.62.67-.2.82l.55.17"/><path class="cls-3" d="M248.16,228.76l-.11-.16"/><path class="cls-3" d="M227.41,212.82a27.42,27.42,0,0,1-4-.77"/><path class="cls-3" d="M250.52,232.3c.47.68.95,1.35,1.45,2"/><path class="cls-3" d="M246.18,225.83c.64.91,1.26,1.83,1.87,2.77"/><path class="cls-3" d="M222.58,211.76a4.1,4.1,0,0,1-.48-.21c-.49-.23-.72.7-.3,1"/><path class="cls-3" d="M248.16,228.76c.78,1.19,1.56,2.37,2.36,3.54"/><path class="cls-3" d="M256.61,239.16a29.12,29.12,0,0,1-4.51-4.68l-.13-.18"/><path class="cls-3" d="M222.58,211.76l.32.13"/><path class="cls-3" d="M227.41,212.82h0a18.47,18.47,0,0,1,4.85,1.48,34.84,34.84,0,0,1,9.05,5.75,33.87,33.87,0,0,1,4.84,5.77"/><path class="cls-3" d="M256.61,239.16a82.83,82.83,0,0,0,10.14,6.77c4.78,2.95,8.26,7.86,10.59,13.89,2.67,6.89,2.62,15.26,1.38,22.65-.14.79-1.07.52-1.06-.23,0-4.39.7-8.7.4-13.11a31.93,31.93,0,0,0-3.36-12,24.92,24.92,0,0,0-5.33-7.37,43,43,0,0,0-6.95-4.68c-4.84-3-9.25-6.44-12.69-11.78-3.23-5-6.24-10.23-10.67-13.63a35.07,35.07,0,0,0-8.76-4.95c-2.77-1-5.74-.79-8.45-2.11l0,0"/><path class="cls-3" d="M223.39,212.05a3.71,3.71,0,0,1-.47-.16"/><path class="cls-3" d="M222.92,211.89h0"/><path class="cls-3" d="M256.61,239.16a17.35,17.35,0,0,1-7.52-7.49.46.46,0,0,1,.13-.63"/><path class="cls-3" d="M250.37,232.16a15.69,15.69,0,0,0,1.6,2.14"/><path class="cls-3" d="M249.22,231a.37.37,0,0,1,.55.16c.19.34.39.65.6,1"/><path class="cls-3" d="M256.61,239.16c3.4,1.79,7.21,2.63,10.92,3.78,8.33,2.57,14.63,9.54,18.59,19.1.35.85,1.32.16,1-.71-3.07-8.89-9.75-16.06-17-18.92-6.23-2.45-13.29-2.57-18.2-8.11"/><path class="cls-3" d="M249.22,231a13.41,13.41,0,0,1-1.27-1.59.65.65,0,0,1,.05-.8"/><path class="cls-3" d="M249.22,231a15.15,15.15,0,0,0,1.15,1.12"/><path class="cls-3" d="M250.52,232.3l-.15-.14"/><path class="cls-3" d="M248,228.65a.12.12,0,0,1,.05-.05"/><path class="cls-3" d="M249.12,229.39c-.18-.23-.35-.47-.52-.72a.34.34,0,0,0-.55-.07"/><path class="cls-3" d="M250.52,232.3c4.65,3.93,11.23,4.33,16.48,5.2,8.19,1.35,16.86,3.9,22.85,11.67a29.3,29.3,0,0,1,6.43,18.35c0,.72.91,1,1,.22.85-5.42-1.42-11.1-3.85-15.35a29.85,29.85,0,0,0-9.87-10.66c-7.23-4.52-15.22-5-23-6.57-4-.81-8.48-2-11.45-5.77"/><path class="cls-3" d="M246.18,225.83l0,0c-.44-.42-.87.49-.45.91a18.22,18.22,0,0,0,2.31,2"/><path class="cls-3" d="M248,228.65l.16.11"/><path class="cls-3" d="M249.12,229.39c4.16,2.52,9,3.31,13.49,3.86a45.92,45.92,0,0,0,10.48.13,74.41,74.41,0,0,1,11.55-.62c.65,0,.63-1.12,0-1.25-3.53-.75-7.23,0-10.76.39a46.32,46.32,0,0,1-10.46.1c-5.86-.65-12.41-1.49-17.27-6.17"/><path class="cls-3" d="M249.12,229.39q-.48-.3-1-.63"/><path class="cls-3" d="M242.42,213c-4.88-1.13-10-.86-15-1.19"/><path class="cls-3" d="M227.41,212.82c3.16.32,6.35.3,9.52.54a24.12,24.12,0,0,1,13.82,5.07c3.57,2.84,6.86,6.22,11.05,7.44a28.06,28.06,0,0,0,7,.93c2.26.07,4.78.51,7,.11.47-.08.45-1,0-1.15-2.15-.84-4.78-.39-7-.44a24.45,24.45,0,0,1-7.75-1.16c-4.16-1.5-7.44-5.31-11.17-7.93A21.08,21.08,0,0,0,248,215"/><path class="cls-3" d="M223.75,211.39l-.54-.08c-.25,0-.38.32-.31.58"/><path class="cls-3" d="M222.9,211.89h0"/><path class="cls-3" d="M223.87,211.41c.48.07,1,.14,1.44.19"/><path class="cls-3" d="M242.42,213A21.79,21.79,0,0,1,248,215"/><path class="cls-3" d="M223.07,212.1a.29.29,0,0,1-.17-.2"/><path class="cls-3" d="M223.07,212.1l0,0a30.46,30.46,0,0,0,4.31.7"/><path class="cls-3" d="M227.42,211.78c-.7,0-1.41-.1-2.11-.18"/><path class="cls-3" d="M223.75,211.39l.12,0"/><path class="cls-3" d="M242.42,213a.29.29,0,0,1,.28-.07c7.71,2.43,15.77.56,23.53,2.7a29.57,29.57,0,0,1,9.12,4.26,30.92,30.92,0,0,1,7.9,7.57c.31.45-.13,1.2-.53.83-2.72-2.54-5.07-5.42-8.07-7.48a29.08,29.08,0,0,0-9.39-4.19c-5.69-1.44-11.56-.76-17.3-1.55"/><path class="cls-3" d="M242.42,213c-.2.19-.22.64.08.75A25.26,25.26,0,0,0,248,215"/><path class="cls-3" d="M254.54,208.84c-.42-.06-.85-.13-1.27-.17"/><path class="cls-3" d="M251.92,208.56c.45,0,.9.06,1.35.11"/><path class="cls-3" d="M251.92,208.56c-.41,0-.82-.07-1.24-.09"/><path class="cls-3" d="M228.93,210.42l-1.59.28"/><path class="cls-3" d="M228.93,210.42c3.46-.64,6.93-1.25,10.42-1.66a63.77,63.77,0,0,1,7.66-.42"/><path class="cls-3" d="M223.79,212a.62.62,0,0,1,.08-.58"/><path class="cls-3" d="M247,208.34c1.17,0,2.33,0,3.5.11"/><path class="cls-3" d="M227.34,210.7l-1,.19"/><path class="cls-3" d="M226.34,210.89l-2.32.42a.25.25,0,0,0-.15.1"/><path class="cls-3" d="M223.79,212a.3.3,0,0,0,.3.24q1.66-.21,3.33-.45"/><path class="cls-3" d="M250.51,208.45l.17,0"/><path class="cls-3" d="M227.42,211.78c8-1.12,15.91-2.61,23.93-2,9.17.65,18,4.07,26.66,7.58,2.43,1,4.86,2,7.28,3s4.87,2.62,7.38,3.32c.43.12.72-.58.33-.91a23,23,0,0,0-5.88-3.18c-2.24-1-4.49-1.9-6.75-2.81-4.46-1.79-8.91-3.63-13.44-5.13a66.37,66.37,0,0,0-12.39-2.79"/><path class="cls-3" d="M254.54,208.84c3.23-.48,6.69,0,9.83.07A63.06,63.06,0,0,1,279,210.64c8.35,2.17,15.4,7.62,22.65,13,.51.38,1-.57.49-1-7.14-6-14.81-11.34-23.3-13.38a55.25,55.25,0,0,0-8.65-1.3"/><path class="cls-3" d="M267.34,207.83c1,0,1.91.1,2.86.17"/><path class="cls-3" d="M251.53,208.91c-.08.29.07.68.38.56a13.09,13.09,0,0,1,2.63-.63"/><path class="cls-3" d="M257.4,207.57a15.68,15.68,0,0,0-5.48,1"/><path class="cls-3" d="M251.92,208.56a1.15,1.15,0,0,1-.17.06.39.39,0,0,0-.22.29"/><path class="cls-3" d="M257.4,207.57c2.36-.07,4.75.16,7,.18,1,0,2,0,2.94.08"/><path class="cls-3" d="M270.2,208a67.9,67.9,0,0,1,10.92-2.59,26.81,26.81,0,0,1,13.34,2.13,43.71,43.71,0,0,1,11.7,7.41,46.81,46.81,0,0,1,5.3,5.41c1.62,2,3,4.23,4.6,6.16.39.47,1-.07.78-.71a24.84,24.84,0,0,0-4.42-6.6,49.47,49.47,0,0,0-5.4-5.43,46.42,46.42,0,0,0-12-7.51A27.45,27.45,0,0,0,281.66,204c-4.8.47-9.44,2.18-14.1,3.63a.44.44,0,0,0-.22.18"/><path class="cls-3" d="M267.34,207.83c-.2.33,0,.95.41.84.82-.21,1.63-.44,2.45-.67"/><path class="cls-3" d="M257.4,207.57a42.61,42.61,0,0,0,8.88-4.44,49.69,49.69,0,0,0,7-5.47c2-1.87,4.6-4.09,5.87-6.9.23-.52-.24-1.35-.69-.94-2,1.78-3.59,4.28-5.52,6.18a49.81,49.81,0,0,1-7,5.74,44.67,44.67,0,0,1-14.34,6.35"/><path class="cls-3" d="M250.68,208.47c-.07.21,0,.52.24.51l.61-.07"/><path class="cls-3" d="M253.27,208.67q-.87.15-1.74.24"/><path class="cls-3" d="M257.4,207.57a27.68,27.68,0,0,1-4.13,1.1"/><path class="cls-3" d="M250.68,208.47a.59.59,0,0,1,0-.08"/><path class="cls-3" d="M251.6,208.09l-.74.19a.25.25,0,0,0-.14.11"/><path class="cls-3" d="M250.72,208.39l-.21.06"/><path class="cls-3" d="M251.6,208.09l-.88.3"/><path class="cls-3" d="M251.6,208.09a33.6,33.6,0,0,0,14.55-10A27.81,27.81,0,0,0,271.52,186c.51-2.38.86-4.82,1.24-7.24s1.23-5.07,1.31-7.54c0-.77-.8-1.07-1.12-.44-.92,1.84-1.1,4.48-1.42,6.6-.35,2.34-.65,4.69-1.07,7-.86,4.75-2.34,9.19-5.11,12.64A33,33,0,0,1,247,208.34"/><path class="cls-3" d="M247,208.34l-.13,0c-.49.1-.3,1,.18.95a28.11,28.11,0,0,0,3.45-.87"/><path class="cls-3" d="M227.34,210.7l-.6.32"/><path class="cls-3" d="M225.31,211.6c.48-.17,1-.36,1.43-.58"/><path class="cls-3" d="M223.39,212.05a2.76,2.76,0,0,0,.4-.06"/><path class="cls-3" d="M224.29,211c3.25-.89,6-3.48,9-5.31,2.33-1.44,4.74-2.59,7.07-4"/><path class="cls-3" d="M239.77,203.56c-2.42,1.28-4.91,2.37-7.26,3.89-.91.59-1.81,1.21-2.72,1.81"/><path class="cls-3" d="M229.79,209.26c-.81.52-1.62,1-2.45,1.44"/><path class="cls-3" d="M222.58,211.76a.43.43,0,0,0,.09.28"/><path class="cls-3" d="M223.07,212.1a1.08,1.08,0,0,1-.19,0,.23.23,0,0,1-.21-.09"/><path class="cls-3" d="M250.08,193.87c-2,1.91-4,3.77-6.12,5.44-.59.46-1.19.89-1.79,1.29"/><path class="cls-3" d="M223.07,212.1l.32,0"/><path class="cls-3" d="M223.79,212a9.68,9.68,0,0,0,1.52-.39"/><path class="cls-3" d="M224.29,211a8,8,0,0,1-1.39.27c-.21,0-.32.26-.32.47"/><path class="cls-3" d="M242.17,200.6c-.6.4-1.21.78-1.82,1.15"/><path class="cls-3" d="M240.14,203.36l-.37.2"/><path class="cls-3" d="M240.14,203.36a30.33,30.33,0,0,0,3.25-2c3.58-2.56,6.82-5.93,10.17-8.93,3-2.69,5.62-5.78,8.87-8,.49-.33.2-1.3-.34-1.15-3.16.88-5.77,4.5-8.25,6.93l-2.21,2.17"/><path class="cls-3" d="M228.93,210.42c4.44-1.35,8.74-3.37,13.28-4.27,4.95-1,9.79-2.12,14.16-5.43,6.66-5.05,11.43-14.09,12.65-23.9a.56.56,0,1,0-1.1-.24c-1.28,4.8-2.2,9.48-4.45,13.77a27.88,27.88,0,0,1-8.52,9.8c-4.29,3.08-9.13,4-13.91,5-3.86.87-7.51,2.65-11.25,4.06"/><path class="cls-3" d="M155.73,288.49c4.44-1.35,8.74-3.37,13.27-4.27,5-1,9.8-2.12,14.17-5.43,6.66-5.05,11.43-14.09,12.65-23.9a.56.56,0,1,0-1.1-.24c-1.29,4.8-2.2,9.48-4.45,13.77a28,28,0,0,1-8.52,9.8c-4.3,3.08-9.13,4-13.91,5-3.86.87-7.52,2.65-11.26,4.06"/><path class="cls-3" d="M229.79,209.26c-1.09.4-2.18.79-3.29,1.1-.22.06-.25.34-.16.53"/><path class="cls-3" d="M228.93,210.42q-1.1.33-2.19.6"/><path class="cls-3" d="M226.74,211l-.11,0a.26.26,0,0,1-.29-.16"/><path class="cls-3" d="M240.14,203.36l-.07.09a.3.3,0,0,1-.3.11"/><path class="cls-3" d="M240.14,203.36a26.88,26.88,0,0,0,2-2.76"/><path class="cls-3" d="M242.17,200.6A40.35,40.35,0,0,0,248,183.8a52.41,52.41,0,0,0,.19-11.61c-.33-3.57-1-7.65-2.59-10.66-.31-.58-1.19-.31-1,.49a75.6,75.6,0,0,1,2.36,10,47.82,47.82,0,0,1,.05,11c-.73,6.89-2.93,13.64-6.68,18.73"/><path class="cls-3" d="M240.35,201.75c-.25.34-.5.7-.77,1a.5.5,0,0,0,.19.77"/><path class="cls-3" d="M242.75,318.61c3-1.15,5.48-4,7.25-7.38a45.49,45.49,0,0,0,5.09-16.09,30.45,30.45,0,0,0-2.4-15.63c-1.83-4.05-4.16-7.71-5.9-11.83-2.14-5.08-2.78-10.37-.18-15.4.44-.86-.6-1.69-1.06-.85a17.19,17.19,0,0,0-1.76,11.94c.91,4.33,3,8.13,4.89,11.82,2,3.87,4,7.7,4.67,12.36.93,6.78-.77,13.32-3.22,19.26a26.85,26.85,0,0,1-3.52,6.42,15.66,15.66,0,0,1-3.37,3.07"/><path class="cls-3" d="M65.74,185.05a58.35,58.35,0,0,1,9.68,9.57,66.34,66.34,0,0,1,11.39,20.26c5.2,15.33,3.66,32.49.37,48.4"/><path class="cls-3" d="M65.74,185.05c-1-.8-2.13-1.55-3.24-2.24"/><path class="cls-3" d="M65.74,185.05c.05.41-.28.86-.61.55a30.37,30.37,0,0,1-2.63-2.79"/><path class="cls-3" d="M35.13,163.38a54.63,54.63,0,0,0,5.92,3.46c4.79,2.29,10.1,2.63,14.45,6.31,3.81,3.21,6.43,8.12,10.08,11.55a.56.56,0,0,1,.16.35"/><path class="cls-3" d="M65.75,159.51c.29-.16.58-.32.86-.49"/><path class="cls-3" d="M68.24,158c6.59-4.41,11.82-11.62,14.58-20.65,1.76-5.78,3.44-14,.64-19.72-.29-.6-1-.12-.75.52,2.16,5.62,1.23,12-.37,17.67a41,41,0,0,1-7.49,14.9,30.9,30.9,0,0,1-12.06,9c-5.15,2.09-10.61,2.37-16,2.21-2.88-.08-5.75-.15-8.63-.19a27.07,27.07,0,0,1-6.76-.7"/><path class="cls-3" d="M67.7,158.37l.54-.37"/><path class="cls-3" d="M66.61,159l.24-.14"/><path class="cls-3" d="M36.38,162.89c2.94.17,14.15.26,16.84.06"/><path class="cls-3" d="M65.75,159.51A27.31,27.31,0,0,1,62.59,161a29.57,29.57,0,0,1-6.67,1.7"/><path class="cls-3" d="M66.87,158.87h0"/><path class="cls-3" d="M67.7,158.37c-.28.18-.56.34-.83.5"/><path class="cls-3" d="M53.22,163c.9-.06,1.8-.15,2.7-.28"/><path class="cls-3" d="M35.13,163.38c4.6,2,9.4,2.88,14.21,3.81,5,1,11.24,1.62,15.23,6.07,3.24,3.62,5.2,8.71,8.51,12.29a19.84,19.84,0,0,0,5.1,4c2.11,1.16,4.33,1.57,6.54,2.32a16.19,16.19,0,0,1,11,11.95c.15.63.86.41.78-.24a15.23,15.23,0,0,0-7.6-11.15c-4.26-2.54-9-2.56-13.08-5.87s-6.32-8.6-9.57-13c-3.39-4.55-8.27-5.77-12.94-6.79-5.64-1.24-11.39-1.91-16.89-3.93"/><path class="cls-3" d="M53.22,163a35,35,0,0,0,7,1.15,25.87,25.87,0,0,1,7.59,2,22.5,22.5,0,0,1,6.63,4.24,34,34,0,0,1,5,6.82,67.94,67.94,0,0,0,4.31,6.55,25.53,25.53,0,0,0,5.61,5.08c4.53,3.17,9.39,5.73,13.55,9.7a21.19,21.19,0,0,1,4.54,6.14,57.45,57.45,0,0,1,2.76,7.86c.25.81,1.33.28,1.12-.55-1.16-4.68-2.9-9.2-5.73-12.6-3.64-4.35-8.33-7-12.73-9.91a38.12,38.12,0,0,1-6.9-5.19,40,40,0,0,1-4.91-6.76,41.41,41.41,0,0,0-4.74-6.64,24.12,24.12,0,0,0-6-4.55,25,25,0,0,0-7.65-2.8c-2.25-.4-4.52-.45-6.77-.8"/><path class="cls-3" d="M55.92,162.67a18.21,18.21,0,0,1-3.05-.71c-.42-.15-.62.67-.2.82l.55.17"/><path class="cls-3" d="M92.11,175.74l-.11-.16"/><path class="cls-3" d="M71.36,159.8a27.42,27.42,0,0,1-4-.77"/><path class="cls-3" d="M94.47,179.28c.47.68,1,1.35,1.44,2"/><path class="cls-3" d="M90.13,172.81c.64.91,1.26,1.83,1.87,2.77"/><path class="cls-3" d="M66.53,158.74a5.16,5.16,0,0,1-.49-.21c-.48-.23-.72.7-.29,1"/><path class="cls-3" d="M92.11,175.74c.78,1.19,1.56,2.37,2.36,3.54"/><path class="cls-3" d="M100.56,186.14a29.12,29.12,0,0,1-4.51-4.68l-.14-.18"/><path class="cls-3" d="M66.53,158.74l.32.13"/><path class="cls-3" d="M71.36,159.8h0a18.7,18.7,0,0,1,4.85,1.48A34.84,34.84,0,0,1,85.29,167a33.87,33.87,0,0,1,4.84,5.77"/><path class="cls-3" d="M100.56,186.14a82.07,82.07,0,0,0,10.14,6.77c4.78,3,8.26,7.86,10.59,13.89,2.67,6.89,2.62,15.26,1.38,22.65-.14.79-1.07.52-1.06-.23,0-4.39.7-8.7.4-13.11a31.93,31.93,0,0,0-3.36-12,25.1,25.1,0,0,0-5.33-7.37,43,43,0,0,0-6.95-4.68c-4.85-3-9.25-6.44-12.69-11.78-3.23-5-6.24-10.23-10.67-13.63a35.07,35.07,0,0,0-8.76-5c-2.77-1-5.74-.79-8.45-2.11l0,0"/><path class="cls-3" d="M67.34,159a3.71,3.71,0,0,1-.47-.16"/><path class="cls-3" d="M66.87,158.87h0"/><path class="cls-3" d="M100.56,186.14A17.43,17.43,0,0,1,93,178.65a.46.46,0,0,1,.14-.63"/><path class="cls-3" d="M94.31,179.14a17.53,17.53,0,0,0,1.6,2.14"/><path class="cls-3" d="M93.17,178a.37.37,0,0,1,.55.16c.19.34.39.64.59,1"/><path class="cls-3" d="M100.56,186.14c3.4,1.79,7.21,2.63,10.92,3.78,8.33,2.57,14.63,9.54,18.59,19.1.35.85,1.32.16,1-.71-3.07-8.89-9.75-16.07-17-18.92-6.22-2.45-13.28-2.57-18.2-8.11"/><path class="cls-3" d="M93.17,178a13.41,13.41,0,0,1-1.27-1.59.67.67,0,0,1,0-.81"/><path class="cls-3" d="M93.17,178c.37.4.75.77,1.14,1.12"/><path class="cls-3" d="M94.47,179.28l-.16-.14"/><path class="cls-3" d="M92,175.62l0,0"/><path class="cls-3" d="M93.07,176.37c-.18-.23-.36-.47-.53-.72a.33.33,0,0,0-.54-.07"/><path class="cls-3" d="M94.47,179.28c4.65,3.93,11.23,4.33,16.48,5.2,8.19,1.35,16.86,3.9,22.85,11.67a29.3,29.3,0,0,1,6.43,18.35c0,.72.91,1,1,.22.85-5.42-1.42-11.11-3.84-15.35a29.85,29.85,0,0,0-9.87-10.66c-7.24-4.52-15.23-5-23-6.57-4-.81-8.49-2-11.45-5.77"/><path class="cls-3" d="M90.13,172.81l0,0c-.44-.42-.87.49-.45.91A16.73,16.73,0,0,0,92,175.62"/><path class="cls-3" d="M92,175.62l.16.12"/><path class="cls-3" d="M93.07,176.37c4.15,2.52,9,3.31,13.49,3.86a45.92,45.92,0,0,0,10.48.13,74.41,74.41,0,0,1,11.55-.62c.65,0,.63-1.12,0-1.25-3.53-.75-7.23,0-10.76.39a46.32,46.32,0,0,1-10.46.1c-5.87-.65-12.42-1.49-17.27-6.17"/><path class="cls-3" d="M93.07,176.37c-.32-.2-.65-.41-1-.63"/><path class="cls-3" d="M86.37,160c-4.88-1.13-10-.86-15-1.19"/><path class="cls-3" d="M71.36,159.8c3.16.32,6.34.3,9.52.54a24.12,24.12,0,0,1,13.82,5.07c3.57,2.84,6.86,6.22,11,7.44a28.06,28.06,0,0,0,7,.93c2.26.07,4.78.51,7,.11.47-.08.45-1,0-1.15-2.16-.84-4.78-.39-7-.44a24.45,24.45,0,0,1-7.75-1.16c-4.17-1.5-7.44-5.31-11.17-7.93A21.08,21.08,0,0,0,91.91,162"/><path class="cls-3" d="M67.7,158.37l-.55-.08c-.24,0-.37.32-.3.58"/><path class="cls-3" d="M66.85,158.87h0"/><path class="cls-3" d="M67.82,158.39c.48.07,1,.14,1.44.19"/><path class="cls-3" d="M86.37,160A21.79,21.79,0,0,1,91.91,162"/><path class="cls-3" d="M67,159.08a.29.29,0,0,1-.17-.2"/><path class="cls-3" d="M67,159.08l0,0a30.23,30.23,0,0,0,4.31.7"/><path class="cls-3" d="M71.37,158.76c-.7,0-1.41-.1-2.11-.18"/><path class="cls-3" d="M67.7,158.37l.12,0"/><path class="cls-3" d="M86.37,160a.28.28,0,0,1,.28-.07c7.71,2.43,15.77.56,23.53,2.7a29.57,29.57,0,0,1,9.12,4.26,31.09,31.09,0,0,1,7.9,7.57c.31.45-.13,1.2-.53.83-2.72-2.54-5.07-5.42-8.07-7.48a29.08,29.08,0,0,0-9.39-4.19c-5.69-1.44-11.57-.76-17.3-1.55"/><path class="cls-3" d="M86.37,160c-.2.19-.23.64.08.75A25.26,25.26,0,0,0,91.91,162"/><path class="cls-3" d="M98.49,155.82c-.43-.06-.85-.13-1.27-.17"/><path class="cls-3" d="M95.87,155.54c.45,0,.9.06,1.35.11"/><path class="cls-3" d="M95.87,155.54c-.41,0-.82-.07-1.24-.09"/><path class="cls-3" d="M72.88,157.39l-1.59.29"/><path class="cls-3" d="M72.88,157.39c3.46-.63,6.93-1.25,10.42-1.65a63.72,63.72,0,0,1,7.65-.42"/><path class="cls-3" d="M67.74,159a.62.62,0,0,1,.08-.58"/><path class="cls-3" d="M91,155.32c1.17,0,2.34,0,3.51.11"/><path class="cls-3" d="M71.29,157.68l-1,.19"/><path class="cls-3" d="M70.29,157.87l-2.32.42a.25.25,0,0,0-.15.1"/><path class="cls-3" d="M67.74,159a.3.3,0,0,0,.3.24l3.33-.45"/><path class="cls-3" d="M94.46,155.43l.17,0"/><path class="cls-3" d="M71.37,158.76c7.95-1.12,15.91-2.61,23.92-2,9.18.65,18,4.07,26.67,7.58,2.43,1,4.86,2,7.28,3s4.87,2.62,7.38,3.32c.43.12.72-.58.33-.91a23,23,0,0,0-5.88-3.18c-2.24-1-4.49-1.9-6.75-2.81-4.46-1.79-8.91-3.63-13.44-5.13a66.37,66.37,0,0,0-12.39-2.79"/><path class="cls-3" d="M98.49,155.82c3.22-.48,6.69,0,9.83.07A63.06,63.06,0,0,1,123,157.62c8.35,2.17,15.4,7.62,22.65,13,.51.38,1-.57.49-1-7.14-6-14.81-11.34-23.31-13.38a55,55,0,0,0-8.64-1.3"/><path class="cls-3" d="M111.29,154.81c.95,0,1.91.09,2.86.17"/><path class="cls-3" d="M95.48,155.89c-.08.29.07.68.38.56a13.09,13.09,0,0,1,2.63-.63"/><path class="cls-3" d="M101.35,154.55a15.68,15.68,0,0,0-5.48,1"/><path class="cls-3" d="M95.87,155.54l-.17.06a.39.39,0,0,0-.22.29"/><path class="cls-3" d="M101.35,154.55c2.36-.07,4.75.16,7,.18,1,0,2,0,2.94.08"/><path class="cls-3" d="M114.15,155a67.9,67.9,0,0,1,10.92-2.59,26.81,26.81,0,0,1,13.34,2.13,43.71,43.71,0,0,1,11.7,7.41,46.81,46.81,0,0,1,5.3,5.41c1.62,1.95,3,4.23,4.6,6.16.39.47,1-.07.78-.71a24.84,24.84,0,0,0-4.42-6.6,49.47,49.47,0,0,0-5.4-5.43,46.3,46.3,0,0,0-12-7.51A27.41,27.41,0,0,0,125.61,151c-4.8.47-9.45,2.18-14.11,3.63a.42.42,0,0,0-.21.18"/><path class="cls-3" d="M111.29,154.81c-.21.33,0,.95.41.84.82-.21,1.63-.44,2.45-.67"/><path class="cls-3" d="M101.35,154.55a42.61,42.61,0,0,0,8.88-4.44,49.69,49.69,0,0,0,7-5.47c2-1.87,4.6-4.09,5.86-6.9.24-.52-.23-1.35-.69-.94-2,1.78-3.58,4.28-5.51,6.18a49.81,49.81,0,0,1-7,5.74,44.89,44.89,0,0,1-14.34,6.35"/><path class="cls-3" d="M94.63,155.45c-.07.21,0,.52.24.51l.61-.07"/><path class="cls-3" d="M97.22,155.65q-.87.15-1.74.24"/><path class="cls-3" d="M101.35,154.55a27.68,27.68,0,0,1-4.13,1.1"/><path class="cls-3" d="M94.63,155.45l0-.08"/><path class="cls-3" d="M95.55,155.07l-.74.19a.22.22,0,0,0-.14.11"/><path class="cls-3" d="M94.67,155.37l-.21.06"/><path class="cls-3" d="M95.55,155.07l-.88.3"/><path class="cls-3" d="M95.55,155.07a33.6,33.6,0,0,0,14.55-10A27.81,27.81,0,0,0,115.47,133c.51-2.39.86-4.82,1.24-7.24s1.23-5.07,1.31-7.54c0-.77-.8-1.08-1.12-.44-.92,1.84-1.1,4.48-1.42,6.6-.35,2.34-.65,4.69-1.07,7-.86,4.75-2.34,9.19-5.11,12.64A33,33,0,0,1,91,155.32"/><path class="cls-3" d="M91,155.32l-.12,0c-.49.1-.3,1,.18,1a30,30,0,0,0,3.45-.87"/><path class="cls-3" d="M71.29,157.68l-.6.32"/><path class="cls-3" d="M69.26,158.58c.48-.17,1-.36,1.43-.58"/><path class="cls-3" d="M67.34,159c.13,0,.27,0,.4-.06"/><path class="cls-3" d="M68.24,158c3.25-.89,6-3.48,9-5.31,2.33-1.45,4.74-2.59,7.07-4"/><path class="cls-3" d="M83.72,150.54c-2.42,1.28-4.91,2.37-7.26,3.89l-2.73,1.8"/><path class="cls-3" d="M73.73,156.23a26.53,26.53,0,0,1-2.44,1.45"/><path class="cls-3" d="M66.53,158.74a.49.49,0,0,0,.08.28"/><path class="cls-3" d="M67,159.08l-.19,0a.24.24,0,0,1-.22-.09"/><path class="cls-3" d="M94,140.85c-2,1.91-4,3.77-6.12,5.44-.59.46-1.19.89-1.79,1.29"/><path class="cls-3" d="M67,159.08l.32-.05"/><path class="cls-3" d="M67.74,159a9.68,9.68,0,0,0,1.52-.39"/><path class="cls-3" d="M68.24,158a8,8,0,0,1-1.39.27c-.21,0-.32.26-.32.47"/><path class="cls-3" d="M86.12,147.58c-.6.4-1.21.78-1.82,1.14"/><path class="cls-3" d="M84.09,150.34l-.37.2"/><path class="cls-3" d="M84.09,150.34a31.35,31.35,0,0,0,3.25-2c3.58-2.56,6.82-5.93,10.17-8.93,3-2.69,5.62-5.78,8.87-8,.49-.33.19-1.3-.35-1.15-3.15.88-5.76,4.5-8.24,6.93l-2.21,2.17"/><path class="cls-3" d="M72.88,157.39c4.44-1.34,8.74-3.36,13.27-4.26,5-1,9.8-2.12,14.17-5.43,6.66-5,11.43-14.09,12.65-23.9a.56.56,0,1,0-1.1-.24c-1.29,4.8-2.2,9.48-4.45,13.77a28.07,28.07,0,0,1-8.52,9.8c-4.3,3.08-9.13,4-13.91,5.05-3.86.87-7.52,2.65-11.26,4"/><path class="cls-3" d="M73.73,156.23c-1.08.41-2.17.8-3.28,1.11-.22.06-.25.34-.16.53"/><path class="cls-3" d="M72.88,157.39c-.73.23-1.46.43-2.19.61"/><path class="cls-3" d="M70.69,158l-.11,0a.26.26,0,0,1-.29-.16"/><path class="cls-3" d="M84.09,150.34l-.07.09a.3.3,0,0,1-.3.11"/><path class="cls-3" d="M84.09,150.34a26.88,26.88,0,0,0,2-2.76"/><path class="cls-3" d="M84.3,148.72c-.26.35-.5.71-.77,1.05a.49.49,0,0,0,.19.77"/><path class="cls-3" d="M86.69,265.59c3-1.15,5.49-4,7.26-7.38A45.49,45.49,0,0,0,99,242.12a30.45,30.45,0,0,0-2.41-15.63c-1.82-4.06-4.15-7.71-5.89-11.83-2.14-5.08-2.78-10.37-.18-15.4.44-.86-.61-1.69-1.07-.85a17.24,17.24,0,0,0-1.75,11.94c.91,4.33,3,8.12,4.89,11.82,2,3.87,4,7.7,4.67,12.36.93,6.78-.78,13.32-3.22,19.26a26.85,26.85,0,0,1-3.52,6.42,15.71,15.71,0,0,1-3.38,3.07"/><path class="cls-3" d="M324.94,293.5c1.34.58,3-.6,4.07-1.51a17.79,17.79,0,0,0,3.37-3.82,39.74,39.74,0,0,0,4.63-9.61c.35-1.06-1-1.54-1.32-.52a36.41,36.41,0,0,1-4.36,8.55,18,18,0,0,1-3,3.48,8.68,8.68,0,0,1-1.68,1.13,8.2,8.2,0,0,0-1.77.9A.88.88,0,0,0,324.94,293.5Z"/><path class="cls-3" d="M331.74,301.94c1.12,0,2.23-1.11,3-2.07A18.31,18.31,0,0,0,337,296a19.53,19.53,0,0,0,2-8.79c-.06-1-1.33-1.13-1.29-.05a17.12,17.12,0,0,1-1.9,7.66,16.7,16.7,0,0,1-2.07,3.45,9.14,9.14,0,0,1-1.12,1.2c-.39.33-.84.56-1.23.89S331,301.92,331.74,301.94Z"/><path class="cls-3" d="M340.84,272.47A20.27,20.27,0,0,0,348,283.26a27.07,27.07,0,0,0,5.09,3,29.06,29.06,0,0,0,5.66,2.2c.84.19,1.2-1.19.4-1.62-1.66-.9-3.46-1.38-5.17-2.13A30.06,30.06,0,0,1,349,282a18.58,18.58,0,0,1-7.21-10C341.61,271.28,340.63,271.75,340.84,272.47Z"/><path class="cls-3" d="M347.45,290a27.85,27.85,0,0,0,7.92,4.86,22,22,0,0,0,4,1.07c.72.12,1.44.21,2.16.28a5.41,5.41,0,0,0,2.5,0,.83.83,0,0,0,0-1.43,6.15,6.15,0,0,0-2.22-.3c-.69-.06-1.37-.14-2.06-.24a21.85,21.85,0,0,1-4-1,26.39,26.39,0,0,1-7.67-4.56C347.44,288.16,346.8,289.46,347.45,290Z"/><path class="cls-3" d="M332.39,231.55a55.7,55.7,0,0,1,3.15,13.16,68.43,68.43,0,0,1,0,6.87,16.6,16.6,0,0,0,.7,6.38.66.66,0,0,0,1.26-.39c-.14-2.26-.27-4.49-.24-6.77a51.52,51.52,0,0,0-.22-7,60.41,60.41,0,0,0-3.5-13C333.22,229.71,332.05,230.54,332.39,231.55Z"/><path class="cls-3" d="M339.52,262.86c2.16,2.5,5.58,3.32,8.37,3.73a15.72,15.72,0,0,0,4.89,0,4.43,4.43,0,0,0,3.51-2.06c.31-.61-.23-1.18-.69-.94a11.61,11.61,0,0,1-3.23,1.29,14.37,14.37,0,0,1-4.44.06,18.82,18.82,0,0,1-4.39-1,8.18,8.18,0,0,1-3.27-1.94C339.78,261.42,339,262.28,339.52,262.86Z"/><path class="cls-3" d="M242.31,199a15.44,15.44,0,0,1,10.7-3.61c3.65.09,7.61,1.33,10.19,4.84.39.54,1.05-.24.65-.78a13.29,13.29,0,0,0-10.53-5.19A15.77,15.77,0,0,0,242,198.11C241.57,198.47,241.91,199.31,242.31,199Z"/><path class="cls-3" d="M218.62,187.51c-.5-.07-1-.1-1.5-.12"/><path class="cls-3" d="M218.43,186.4a19,19,0,0,0-8.46.52,33.38,33.38,0,0,0-8.92,3.34c-5.32,3.2-8.81,9.51-12.8,14.75-.38.49.18,1.27.58.78,3.92-4.79,7.29-10.64,12.2-13.87a29.15,29.15,0,0,1,8.29-3.3,26,26,0,0,1,7.8-1.23"/><path class="cls-3" d="M219.1,187.18c-.06.21-.19.37-.39.34h-.09"/><path class="cls-3" d="M219.1,187.18c.08-.29,0-.65-.25-.71l-.42-.07"/><path class="cls-3" d="M251.18,160.78l-1.31-.56"/><path class="cls-3" d="M251.18,160.78c3.69,1.54,7.37,2.76,11.34,1.9a21.33,21.33,0,0,0,13-9.38c.42-.66-.44-1.55-.9-1-3.21,4.17-7.27,7.32-11.78,8.51-5.24,1.38-10-1.19-15-3.15a19.72,19.72,0,0,0-7.24-1.72,17.08,17.08,0,0,0-6.37,1.49,50.29,50.29,0,0,1-7,2.77,18.67,18.67,0,0,1-7.77.1c-5.83-1.08-11.34-4.28-16.54-7.69-.51-.34-1,.61-.48,1,4.54,3.26,9.32,6.16,14.43,7.63a21.15,21.15,0,0,0,15-1.19,25.23,25.23,0,0,1,7.48-2.52c2.86-.28,5.6.63,8.29,1.76.71.29,1.41.6,2.12.9"/><path class="cls-3" d="M216.24,170.35a28.56,28.56,0,0,1,4.35-1.47"/><path class="cls-3" d="M237.92,168a14.34,14.34,0,0,0,1.5-.54,36,36,0,0,0,10.45-7.23"/><path class="cls-3" d="M236.57,170a20,20,0,0,1-4.22.36"/><path class="cls-3" d="M220.59,168.88a18,18,0,0,1,5.71-.56,70.64,70.64,0,0,0,7.33.36"/><path class="cls-3" d="M251.18,160.78a35.24,35.24,0,0,1-11.69,8.31,15.63,15.63,0,0,1-2.92.87"/><path class="cls-3" d="M233.63,168.68a16.91,16.91,0,0,0,4.29-.69"/><path class="cls-3" d="M216.24,170.35c-.91.37-1.82.78-2.75,1.21a53.51,53.51,0,0,1-12.89,4.29,85.52,85.52,0,0,1-16.19,1.31c-.36,0-.38.7,0,.73,9.4.71,19-.25,27.94-4.28,2.13-1,4.25-2,6.42-2.77a17.53,17.53,0,0,1,7.51-.92c2.07.17,4.09.39,6.09.4"/><path class="cls-3" d="M251.18,160.78l.34-.34c.56-.6-.21-1.61-.78-1.05l-.87.83"/><path class="cls-3" d="M216.24,170.35l1.33,0c1.24,0,2.79.13,3.94-.56.26-.15.25-.78-.06-.85a4.11,4.11,0,0,0-.86-.08"/><path class="cls-3" d="M220.59,168.88c-.94,0-1.92.2-2.84.22-1.43,0-2.86,0-4.3-.14-3.12-.22-6.23-.61-9.34-.87-5.84-.49-12.1-.76-17.61,2.2a17.54,17.54,0,0,0-7.16,7.59c-.32.62.44,1.23.76.61,7-13.32,22.28-9.1,32.82-8.3,1.11.08,2.21.13,3.32.16"/><path class="cls-3" d="M244.89,150.54c-2.15.42-4.25,1.36-6.37,2a54.43,54.43,0,0,1-6.11,1.39,44.52,44.52,0,0,1-12.36.22,57.82,57.82,0,0,1-9.37-1.64c-3.1-.87-6.38-2.15-8.77-4.93-.48-.55-1.21.32-.73.87,4.73,5.52,12.24,6.24,18.32,7a47.08,47.08,0,0,0,12.38-.05,54.44,54.44,0,0,0,6.63-1.44,28.76,28.76,0,0,0,6.66-2.41C245.6,151.23,245.31,150.45,244.89,150.54Z"/><path class="cls-3" d="M232.51,146.77c-1.56.59-3,1.54-4.6,2a18,18,0,0,1-5.43.83,14.31,14.31,0,0,1-10.23-3.81c-2.38-2.32-3.66-6-5.05-9.27a48,48,0,0,0-5.09-9.88c-2.2-3-5-4.62-8.21-4.17-.68.1-.56,1.63.13,1.55,6.93-.89,10.12,9,12.83,15.45,1.41,3.33,2.92,6.48,5.48,8.57a15.66,15.66,0,0,0,9.72,3.33,19.49,19.49,0,0,0,6-.82,10.93,10.93,0,0,0,5-2.6C233.44,147.53,233,146.57,232.51,146.77Z"/><path class="cls-3" d="M233.63,168.68c1.4.06,2.8.12,4.2.2.43,0,.47-.76.09-.89"/><path class="cls-3" d="M237.92,168l-.07,0c-9-1-18.18-.92-26.94-4.21A52.79,52.79,0,0,1,199,157.11c-3.56-2.54-7-5.19-10.92-6.83a31,31,0,0,0-12.8-2.54c-1,0-1,1.82-.05,1.94,4,.49,7.9.7,11.79,2.21s7.55,4.24,11.21,6.77a55.18,55.18,0,0,0,11.33,6.28,51.81,51.81,0,0,0,13.1,3c3.66.4,7.34.54,11,.7"/><path class="cls-3" d="M185.45,141.57a25.5,25.5,0,0,0-10-5.32,20.52,20.52,0,0,0-5.49-.74c-1.68,0-3.72.06-5.23,1.05-.57.37-.37,1.61.29,1.58,1.94-.08,3.79-.74,5.76-.66a20.92,20.92,0,0,1,6.18,1.21,27.75,27.75,0,0,1,9.38,5.88c4.35,3.94,10.66,10.55,16.38,7.73.58-.28.19-1.58-.4-1.31-3.1,1.43-6.4-.62-9-2.61S188.06,143.8,185.45,141.57Z"/><path class="cls-3" d="M127.62,175c3.72-4.11,7.3-8.72,11.55-11.93,6.1-4.61,13.38-3.63,20.13-2.79,3.56.45,7.06.75,10.54-.59s6.36-3.66,9.41-5.77c.75-.53.12-2-.64-1.5-2.71,1.91-5.4,4.06-8.35,5.37a17.59,17.59,0,0,1-9.5,1c-6.72-.78-13.76-2-20.16,1.52-4.1,2.27-7.53,6.45-10.83,10.18-4,4.53-7.93,9.28-12.43,13s-9.91,6.46-15.22,3.75c-.48-.24-.7.72-.24,1C111.43,193.3,121,182.34,127.62,175Z"/><path class="cls-3" d="M184.74,164.36c-4,1.4-7.28,5.08-10,8.93-.4.56.22,1.42.63.86a30.07,30.07,0,0,1,5.52-6.11,15.46,15.46,0,0,1,5.3-2.72,8.77,8.77,0,0,0,4.13-2,4,4,0,0,0,.31-4.63c-.32-.49-1,0-.87.6a3.88,3.88,0,0,1,.28,2.3,2.77,2.77,0,0,1-1.33,1.35A22.54,22.54,0,0,1,184.74,164.36Z"/><path class="cls-3" d="M139.12,151.84c-.18-.4-.72-.28-.71.21a12.07,12.07,0,0,1-.09,3.12,10.09,10.09,0,0,1-1.29,3,24.62,24.62,0,0,1-5.56,6c-4.47,3.69-9.34,6.44-14.17,9.25-1.88,1.09-3.8,2.12-5.63,3.37-.39.26-.06,1,.33.77,4.16-2.69,8.57-4.72,12.76-7.35,4.57-2.88,9.84-6.17,13-11.42C138.87,157,140.09,154,139.12,151.84Z"/><path class="cls-3" d="M60.83,160.88c15.41-9.81,32.7-15.82,50-13.8a71,71,0,0,1,14.93,3.81c.6.21.87-.91.28-1.17-8.27-3.78-17.59-4.78-26.31-4.17a75,75,0,0,0-25.61,6.79,107.73,107.73,0,0,0-13.73,7.54C59.9,160.21,60.32,161.2,60.83,160.88Z"/><path class="cls-3" d="M90.53,218.17c4.72-5.83,10.91-9.2,15.71-14.89,2.38-2.84,4.37-6.25,7-8.76s5.93-3.06,8.65-5.27c.67-.54.14-1.77-.59-1.38-2.83,1.53-6,2.62-8.5,4.91-2.72,2.45-4.74,6-7.1,8.91-4.79,6-11,9.58-15.77,15.65C89.51,217.86,90.12,218.69,90.53,218.17Z"/><path class="cls-3" d="M134,238.38c4.22,2.53,9.87-.2,13.8-2.47a21.65,21.65,0,0,0,6-4.83A39.21,39.21,0,0,0,159,222a87.68,87.68,0,0,1,4.8-9.94,18.53,18.53,0,0,1,7.76-6.91c2.75-1.4,5.57-2.57,8.06-4.66a27.45,27.45,0,0,0,4.53-5c2.46-3.41,7-11.78,2.07-15.23-.61-.43-1.26.52-.78,1.21a7,7,0,0,1,.94,6.8A27.43,27.43,0,0,1,177.69,200a60.32,60.32,0,0,1-7.12,3.9,18.82,18.82,0,0,0-6.51,5.37,43.77,43.77,0,0,0-4.56,8.7c-2.54,5.87-5,11.77-9.75,15.22a29.05,29.05,0,0,1-7.69,4.07c-2.45.84-5.35,1.54-7.75.13C133.87,237.11,133.51,238.11,134,238.38Z"/><path class="cls-3" d="M146.12,298c3.5-.57,6.22-4,8.24-7.47a60.12,60.12,0,0,0,6-15.33c1.15-4.49,2.2-9.5,1.82-14.27-.14-1.83-.51-3.61-.73-5.43a18.56,18.56,0,0,1,.46-7.2c.9-3.45,2.54-6.81,2.48-10.56-.11-6.28-6-6.79-9.28-3.8-.43.4-.24,1.4.36,1.2,1.91-.62,4-2.1,6-1.06s1.92,4.14,1.48,6.39c-.66,3.45-2.17,6.54-2.62,10.07-.43,3.32.36,6.47.74,9.73.52,4.51-.4,9.23-1.42,13.54a66,66,0,0,1-4.9,14.05c-2,4-4.78,8.55-8.72,9.3C145.53,297.26,145.69,298.08,146.12,298Z"/><path class="cls-3" d="M163.73,250.71a39.59,39.59,0,0,0,3.71,17.56c.3.64,1.09.11.8-.55a38.84,38.84,0,0,1-3.18-17,44.11,44.11,0,0,1,4.14-16.52,16.29,16.29,0,0,0,1.68-7.08c-.06-2.78-.4-5.15.67-7.73,1.73-4.18,5.11-5.11,8.4-6.23.71-.24.65-1.71-.13-1.7a10.53,10.53,0,0,0-9.15,5.68,13.9,13.9,0,0,0-1.49,6.43c0,1.56.3,3.12.21,4.69a15.21,15.21,0,0,1-1.53,5.24A45.31,45.31,0,0,0,163.73,250.71Z"/><path class="cls-3" d="M236.57,170c.29-.38.06-1.13-.45-1a15.15,15.15,0,0,0-3.77,1.38"/><path class="cls-3" d="M232.35,170.32c-2.89,1.48-5.6,3.67-8.41,5.31-4.3,2.53-8.84,2.74-13.47,3.34a27.61,27.61,0,0,0-19.65,12.3A54.21,54.21,0,0,0,184.24,205c-.28.83.77,1.23,1,.42,2.94-8.64,7.57-16.53,14.21-21a25.31,25.31,0,0,1,11.25-4c4.2-.53,8.36-.72,12.34-2.71,4.54-2.26,8.55-5.84,13.25-7.63a.44.44,0,0,0,.23-.19"/><path class="cls-3" d="M196.57,277.44c.53.38,1.05.28,1.63.4a4.72,4.72,0,0,1,1.53.63,7.47,7.47,0,0,1,2.25,2.47,16.6,16.6,0,0,1,2,7.7,21.8,21.8,0,0,0,1.54,7.63,9.85,9.85,0,0,0,4.67,4.92c.67.33,1-1,.33-1.35a9.06,9.06,0,0,1-4.37-6.32c-.6-2.68-.37-5.4-.74-8.11a15.13,15.13,0,0,0-2.82-7.19,8.09,8.09,0,0,0-2.68-2.27c-.9-.45-2.4-1-3.27-.3A1.22,1.22,0,0,0,196.57,277.44Z"/><path class="cls-3" d="M196.73,273.36a16.81,16.81,0,0,1,1.55-1.29,10.93,10.93,0,0,1,3.4-1.69A8.64,8.64,0,0,1,209,271.9c.69.48,1.35-.83.66-1.33a9.86,9.86,0,0,0-8-1.93,11.16,11.16,0,0,0-3.67,1.6,14.91,14.91,0,0,0-1.83,1.41,5.07,5.07,0,0,0-1.53,1.74c-.22.54.1,1.4.65,1.17A5.38,5.38,0,0,0,196.73,273.36Z"/><path class="cls-3" d="M185.43,258.7c1-.12,1.75-.62,2.74.12a7.17,7.17,0,0,1,1.94,2.78,18.88,18.88,0,0,1,1.65,7c.17,4.64-.83,11.83,2.9,14.7.55.43,1.08-.63.54-1.08-2.08-1.73-2.11-5.36-2.06-8.18s.38-5.43,0-8.09a18.72,18.72,0,0,0-2.68-7.46c-1.2-1.79-3.87-3.53-5.46-1.39C184.6,257.65,184.77,258.78,185.43,258.7Z"/><path class="cls-3" d="M178.34,284.06c.27.5.92.1.66-.46-3.59-7.85.79-17.06,3.11-24.51,1.48-4.74,3.91-13.43-1.45-15.94-.6-.28-1.18.82-.68,1.38,1,1.16,2,2,2.4,3.85a12.44,12.44,0,0,1-.17,4.59,78.78,78.78,0,0,1-2.6,9.08C177.38,269,174.47,277.1,178.34,284.06Z"/></g></svg>