<svg xmlns="http://www.w3.org/2000/svg" viewBox="0 0 455.6 445.68"><defs><style>.cls-1{fill:none;stroke:#fff;stroke-miterlimit:10;}.cls-2{fill:#fff;}</style></defs><g id="OBJECTS"><path d="M161.69,185.37c2.47-4.44,34.3-59.27,107.16-77.13a.32.32,0,0,0,0-.62c-7.55-1.52-45.6-7.79-85.11,10.23a.89.89,0,0,1-1.18-.4c-2.93-6-22.29-45.82-29.68-57a0,0,0,0,0-.09,0c.1,4.68,0,105.15,8.57,124.89A.17.17,0,0,0,161.69,185.37Z"/><path d="M217.66,79.64c0,10.89-9.46,23.21-20.34,23.21S177,91.72,177,80.83s9.46-21.71,20.35-21.71S217.66,68.76,217.66,79.64Z"/><path d="M184.62,276.47c-3.41-3.77-45.07-51.55-38.52-126.28a.32.32,0,0,0-.58-.23c-3.87,6.66-22.06,40.67-17.72,83.88a.88.88,0,0,1-.76,1c-6.67.83-50.56,6.35-63.53,9.75,0,0,0,.07,0,.09,4.46,1.41,99.55,33.86,121,32.1A.18.18,0,0,0,184.62,276.47Z"/><path d="M102.55,189.44c10.3,3.5,18.92,16.42,15.41,26.73s-17.08,15.68-27.39,12.18-17.52-15.95-14-26.26S92.24,185.93,102.55,189.44Z"/><path d="M273.78,280.7c-4.62,2.11-62.76,27.39-132-1.43a.32.32,0,0,0-.39.48c5.18,5.7,32.11,33.32,74.6,42.23a.89.89,0,0,1,.71,1c-1.22,6.61-9.22,50.11-9.9,63.5,0,.05.05.07.08,0,2.7-3.83,62.36-84.67,67.16-105.64A.17.17,0,0,0,273.78,280.7Z"/><path d="M166,332.64c6.45-8.76,21.38-13.07,30.14-6.62s9.79,21,3.33,29.8-20.5,11.87-29.26,5.42S159.56,341.41,166,332.64Z"/><path d="M237.23,136.12c5,.93,67.1,13.65,107.22,77a.32.32,0,0,0,.6-.17c-1-7.64-7.13-45.71-36.79-77.43a.88.88,0,0,1,0-1.25c4.81-4.7,36.35-35.71,44.6-46.28a0,0,0,0,0-.05-.08c-4.41,1.59-99.69,33.47-115.67,47.88A.17.17,0,0,0,237.23,136.12Z"/><path d="M355.27,155.53c-10.32,3.46-25-1.58-28.48-11.9s4.08-22.83,14.4-26.3,23.6,2.06,27.06,12.38S365.59,152.06,355.27,155.53Z"/><path d="M307.32,197.76c.83,5,10.12,67.72-35.72,127.1a.31.31,0,0,0,.36.5c6.85-3.52,40.52-22.33,60.19-61.05a.89.89,0,0,1,1.17-.42c6.06,2.91,46,21.95,58.74,26.08.05,0,.09,0,.05-.07-3-3.6-65.54-82.23-84.54-92.32A.17.17,0,0,0,307.32,197.76Z"/><path d="M329.45,315.32c-6.79-8.51-7.07-24,1.44-30.82s22.85-4,29.64,4.53,6.13,22.88-2.38,29.66S336.23,323.84,329.45,315.32Z"/><path class="cls-1" d="M252.76,155.4c-1.91,1.37-3.77,2.78-5.53,4.28-5.66,4.86-10,10.72-15.1,16a102.81,102.81,0,0,1-18.83,15c-14,8.84-25.4,20.95-30.61,35.64-2.46,6.94-1.63,14.6-2.85,21.86-1.33,7.95-7.05,14.18-9,21.93-3.35,13.36-.12,27.23,5.73,41.11a159.18,159.18,0,0,0,29.57,46.29,89.64,89.64,0,0,0,23.58,18.64c6.76,3.74,13.82,7.17,20,11.52"/><path class="cls-1" d="M249.76,387.61c.8.56,1.59,1.13,2.36,1.73"/><path class="cls-1" d="M259.8,150.83c-2.44,1.42-4.78,2.95-7,4.57"/><path class="cls-1" d="M198.45,332.68c-9.37-9.72-15.63-20.66-16.29-32.32-.34-6.1,1-11.65,2.15-17.44,1.4-7.23,1.74-14.71,2.29-22.12s1.15-14.86,3.47-21.76c2.05-6.07,6.35-10.86,11.26-15.23,4.72-4.21,9.87-8.14,13.62-13.08,3.07-4,5.56-8.32,9.21-12a35.56,35.56,0,0,1,15.09-9.49c6.84-2,14-1.23,21.49,1,1.4.41,1.9-1.45.52-2-12.53-4.67-24.83-2.4-33.59,3.94a47.59,47.59,0,0,0-11.14,11.68,74.52,74.52,0,0,1-12.12,14.23c-5.07,4.44-10.36,8.74-13.81,14.33-3.68,6-4.77,13.23-5.53,20.2-.89,8.11-1,16.37-2,24.45-.85,6.62-2.9,12.93-3,19.72-.21,13.15,6.2,25.66,16.92,36.74C197.81,334.4,199.31,333.57,198.45,332.68Z"/><path class="cls-1" d="M156.15,277.32c1.35-5.85,3.86-11.3,6.22-17.08a38.81,38.81,0,0,0,2.14-7.31"/><path class="cls-1" d="M165.47,245.08c.35-5,.34-10.14.78-15.27a39.44,39.44,0,0,1,12.05-25.17,67.11,67.11,0,0,1,6.46-5.52"/><path class="cls-1" d="M157.43,301.8a85.22,85.22,0,0,1-2.17-13.05c-.07-.79-.1-1.56-.11-2.32"/><path class="cls-1" d="M165.47,245.08a64,64,0,0,1-1,7.85"/><path class="cls-1" d="M190,195.32l-2.62,1.87"/><path class="cls-1" d="M156.15,277.32a36.63,36.63,0,0,0-1,9.11"/><path class="cls-1" d="M249.76,387.61l1.9.82a.68.68,0,0,1,.46.91"/><path class="cls-1" d="M184.76,199.12c.85-.65,1.72-1.3,2.59-1.93"/><path class="cls-1" d="M259.8,150.83c.85.23,1.46,1.23.59,1.64a63.37,63.37,0,0,1-7.63,2.93"/><path class="cls-1" d="M192.32,193.67a117.8,117.8,0,0,0,11.61-8.88c8.37-7.59,13.35-17.78,24.12-23.4,9.4-4.9,21.2-6.1,30.93-10.52a1.16,1.16,0,0,1,.82,0"/><path class="cls-1" d="M157.43,301.8c.28,1.14.58,2.27.91,3.41"/><path class="cls-1" d="M159.51,301.12c.1.41.18.81.28,1.22"/><path class="cls-1" d="M192.32,193.67,190,195.32"/><path class="cls-1" d="M156.15,277.32a61.83,61.83,0,0,0,.49,9.95c.11.75-1.23.78-1.37,0-.05-.29-.08-.57-.12-.86"/><path class="cls-1" d="M156.15,277.32c.06-4.23.34-8.44.24-12.71-.15-6.85-2-13.67-3.15-20.57s-1.52-14,.17-20.61,4.88-13,7.83-19.19c5.56-11.71,11.7-23.25,14.8-35.93a65.91,65.91,0,0,0-2.75-39.49c-4.88-12.92-13.92-24.09-27.07-32.84-1.22-.81-2.5.52-1.29,1.33,12.17,8.1,20.79,18.3,25.63,30.23a64.86,64.86,0,0,1,3.11,40.78c-3.22,12.82-9.64,24.47-15.18,36.37-2.72,5.85-5.59,11.79-7.19,18.08a46.32,46.32,0,0,0-.71,17.41c1,8,3.57,16,3.78,24,.19,7.41-.39,14.72.78,22.23"/><path class="cls-1" d="M355.27,169.71c.07-4.24.34-8.44.25-12.71-.15-6.86-2-13.67-3.15-20.57-1.2-7.05-1.52-14,.17-20.61s4.88-13,7.82-19.19c5.56-11.71,11.71-23.25,14.81-35.94a66,66,0,0,0-2.76-39.49C367.53,8.29,358.5-2.88,345.34-11.63c-1.21-.81-2.5.52-1.28,1.33C356.23-2.2,364.84,8,369.68,19.92A64.88,64.88,0,0,1,372.8,60.7c-3.22,12.83-9.64,24.48-15.18,36.37-2.73,5.85-5.59,11.8-7.19,18.08a46.38,46.38,0,0,0-.72,17.42c1,8,3.58,16,3.78,24,.19,7.41-.38,14.73.79,22.23"/><path class="cls-1" d="M334.64,185.86c.07-4.23.35-8.44.25-12.71-.15-6.85-2-13.67-3.15-20.57s-1.52-14,.17-20.61,4.88-13,7.82-19.19c5.56-11.71,11.71-23.25,14.81-35.93a66,66,0,0,0-2.76-39.49c-4.88-12.92-13.91-24.09-27.07-32.84-1.21-.81-2.5.52-1.28,1.33,12.17,8.1,20.78,18.3,25.63,30.23a64.86,64.86,0,0,1,3.11,40.78C349,89.68,342.53,101.33,337,113.23c-2.72,5.85-5.59,11.79-7.19,18.08a46.32,46.32,0,0,0-.72,17.41c1,8,3.58,16,3.78,24,.19,7.41-.38,14.72.79,22.23"/><path class="cls-1" d="M164.51,252.93c0,.27,0,.54,0,.81,0,.59,1.06.82,1.12.23a48.12,48.12,0,0,0-.16-8.89"/><path class="cls-1" d="M165.47,245.08c-1-10.2-4-20.6-.49-30.12,4.56-12.5,12.88-23.38,19.38-35,5.74-10.24,10.64-21.25,10.8-33.4.16-11.8-4.31-23.71-12.65-34.46-8.9-11.47-22.27-23.25-37-29.17-1.4-.57-2.08,1-.76,1.66,26.7,13.85,48.72,36.95,47.86,62.41s-21.35,43.68-29.68,66.47c-2.11,5.78-2.34,11.68-1.4,18.07,1.05,7.12,3,14.32,3,21.36"/><path class="cls-1" d="M209.44,130.16c-.07-.7-.17-1.4-.27-2.1"/><path class="cls-1" d="M184.76,199.12a27.21,27.21,0,0,1-2.34,2.71c-.78.78.9,2,1.68,1.23a36.07,36.07,0,0,0,5.24-6.67"/><path class="cls-1" d="M208.48,124c-3.38-16.57-13.36-32.69-28.95-45.45-10-8.15-24.87-18.11-38.36-17.21-1.41.09-1,1.88.42,1.91,12.82.28,24.67,7.28,34.55,15s17.91,16.76,23.32,26.82a65.62,65.62,0,0,1,8,31.09c0,11.84-3.91,22.84-8.55,33.29q-3.74,8.41-7.35,16.87c-1.87,4.41-3.87,8.89-6.85,12.76"/><path class="cls-1" d="M208.77,125.4c-.09-.46-.2-.92-.29-1.37"/><path class="cls-1" d="M190,195.32c.86-1.46,1.65-3,2.39-4.5"/><path class="cls-1" d="M209.17,128.06c0-.19,0-.39-.08-.58"/><path class="cls-1" d="M189.34,196.39c.22-.35.42-.71.63-1.07"/><path class="cls-1" d="M192.36,190.82c2.7-5.67,4.73-11.73,7.3-17.24a145.12,145.12,0,0,0,6.44-15.92"/><path class="cls-1" d="M209.44,130.16a59.27,59.27,0,0,1,.33,7.41,63.35,63.35,0,0,1-2.05,14.53"/><path class="cls-1" d="M209.08,127.44v0"/><path class="cls-1" d="M208.77,125.4c.12.68.21,1.36.31,2"/><path class="cls-1" d="M206.1,157.66c.59-1.84,1.15-3.69,1.62-5.56"/><path class="cls-1" d="M192.36,190.82a74.11,74.11,0,0,1-5.34,5.29c-.41.36-.12.84.33,1.08"/><path class="cls-1" d="M192.32,193.67c-.95.93-2,1.83-3,2.72"/><path class="cls-1" d="M187.35,197.19a1,1,0,0,0,1.12,0c.3-.25.57-.52.87-.78"/><path class="cls-1" d="M192.32,193.67c7.65-7.45,13.27-16.21,19-24.94,6-9.09,12.29-20.86,24.29-25.12,9.74-3.46,21.37-3.21,31.1-6.85A42.8,42.8,0,0,0,278.79,130c4-3.24,6.59-7.28,9.85-11,7.45-8.6,18.19-14,32.43-11.93,1.37.19,1.51-1.37.15-1.74-10.83-3-21,.61-28.12,6-8.46,6.36-12.36,15.77-22.15,21.06s-22.07,5.49-33.34,8.38c-11.71,3-18.05,11.64-23.84,20-7,10.13-13,20.93-21.41,30.15"/><path class="cls-1" d="M206.1,157.66c3.25-3.92,5.49-8.39,7.89-12.78a55,55,0,0,1,10-13.37,47.76,47.76,0,0,1,13.73-9.64c5.35-2.39,11.43-3.43,17.54-4.44a144.8,144.8,0,0,0,16.39-3.21,54.5,54.5,0,0,0,14.55-7c9.93-6.37,18.89-13.88,30.08-18.89a45.31,45.31,0,0,1,15.78-4c5.8-.35,11.81.4,17.73.91,1.8.16,1.64-2.4-.18-2.66-10.15-1.49-20.48-1.72-29.46,1.12-11.54,3.66-20.64,10.72-29.84,17.08-4.94,3.41-9.93,7.06-15.81,9.42-5.35,2.15-11.35,3.2-17.3,4.21s-11.65,2-16.92,4a51.12,51.12,0,0,0-13.81,8.11,53.65,53.65,0,0,0-11.72,12.82c-2.61,4.11-4.55,8.56-7.05,12.71"/><path class="cls-1" d="M207.72,152.1a37.65,37.65,0,0,1-3.87,5.44c-.62.71.82,1.76,1.45,1.06.28-.31.53-.63.8-.94"/><path class="cls-1" d="M262.75,91.3l-.4.09"/><path class="cls-1" d="M214.55,119.34a61.83,61.83,0,0,1-4.77,7.3"/><path class="cls-1" d="M271.64,89.51c1.72-.38,3.43-.78,5.12-1.23"/><path class="cls-1" d="M255.38,92.83q3.47-.77,7-1.44"/><path class="cls-1" d="M208.55,128c-.26.26-.52.53-.8.78-.85.77.78,2,1.69,1.37"/><path class="cls-1" d="M262.75,91.3c3-.57,5.94-1.15,8.89-1.79"/><path class="cls-1" d="M290.09,83.05a62.49,62.49,0,0,1-12.86,5.11l-.47.12"/><path class="cls-1" d="M208.55,128l.51-.54"/><path class="cls-1" d="M217.38,128l0-.07a40,40,0,0,1,6.84-8.36,74.11,74.11,0,0,1,18.66-13.19,72.71,72.71,0,0,1,15.3-4.9"/><path class="cls-1" d="M307.28,89.78c7.82-4.11,14.57-9.43,21.56-14.52,9.67-7,22.18-9.93,35.94-9.66,15.75.32,32.22,7.17,45.79,15.61,1.45.9.16,2.52-1.31,1.9-8.62-3.64-16.6-8.42-25.53-11.4a68,68,0,0,0-26.47-3.1,53.15,53.15,0,0,0-18.84,4.55c-5.6,2.63-10.08,6.45-14.84,9.93-9.78,7.14-20.17,13-33.5,15.49-12.48,2.32-25.22,4-35.49,10a74.47,74.47,0,0,0-16.85,13.27c-4.3,4.61-6.2,10.68-11,15a1.05,1.05,0,0,1-.11.07"/><path class="cls-1" d="M331.3,304.1c7.82-4.11,14.58-9.44,21.56-14.53,9.67-7,22.18-9.93,35.94-9.65,15.75.31,32.22,7.17,45.79,15.6,1.45.9.16,2.52-1.3,1.9-8.63-3.63-16.61-8.41-25.54-11.39a67.8,67.8,0,0,0-26.46-3.1,52.93,52.93,0,0,0-18.85,4.54c-5.6,2.63-10.07,6.45-14.84,9.93-9.78,7.15-20.17,13-33.5,15.5-12.48,2.31-25.21,4-35.49,10a74.69,74.69,0,0,0-16.85,13.27c-4.29,4.61-6.2,10.68-11,15,0,0-.07,0-.11.06"/><path class="cls-1" d="M209.78,126.64c-.22.28-.46.54-.7.8"/><path class="cls-1" d="M209.08,127.44l0,0"/><path class="cls-1" d="M391.55,58.26c-6.46-3.3-13.74-6-20.86-6.51-2.06-.13-1.42,2.49.58,2.68,6.42.6,13,3.44,18.73,6.52a70.22,70.22,0,0,1,15.73,11.46c1.16,1.12,3.55.48,2.6-1C404.75,65.81,397.85,61.48,391.55,58.26Z"/><path class="cls-1" d="M290.09,83.05a37.1,37.1,0,0,1-20.85,8.78,1,1,0,0,1-1.13-.78"/><path class="cls-1" d="M271.24,89.7a35.32,35.32,0,0,0,5.52-1.42"/><path class="cls-1" d="M268.11,91.05a.78.78,0,0,1,.75-1c.83-.1,1.6-.26,2.38-.4"/><path class="cls-1" d="M290.09,83.05c6.28-5.26,11-12.09,16.28-18.49,11.8-14.34,30.65-21.12,52.7-21.21,2,0,1.38-2.47-.57-2.58-20-1.14-39.56,6.23-51,18.18-9.88,10.29-15.81,24.11-30.71,29.33"/><path class="cls-1" d="M268.11,91.05a28.42,28.42,0,0,1-4.17,1.22,1.42,1.42,0,0,1-1.54-.74"/><path class="cls-1" d="M268.11,91.05a27.33,27.33,0,0,0,3.13-1.35"/><path class="cls-1" d="M271.64,89.51l-.4.19"/><path class="cls-1" d="M262.4,91.53a1.21,1.21,0,0,1,0-.14"/><path class="cls-1" d="M264.77,89.91c-.6.17-1.21.33-1.83.46a.71.71,0,0,0-.59,1"/><path class="cls-1" d="M255.38,92.83l-.11.06c-1.19.51.26,2.11,1.43,1.62a38.4,38.4,0,0,0,5.7-3"/><path class="cls-1" d="M262.4,91.53l.35-.23"/><path class="cls-1" d="M264.77,89.91c-.65.48-1.33,1-2,1.39"/><path class="cls-1" d="M227,89.85c-6.18,8.71-9.76,19-14.47,28.62"/><path class="cls-1" d="M214.55,119.34c3.19-6,5.71-12.28,8.77-18.35,4.76-9.47,11-17.49,21.16-23.15,8.48-4.74,17.8-8.51,23.59-15.77a59,59,0,0,0,7.48-13c2-4.41,4.89-9,5.91-13.76.22-1-1.59-1.68-2.24-1-3.41,3.57-4.64,9.11-6.56,13.48-2.22,5.07-4.71,10.1-8.53,14.33-6.34,7-16.49,10.39-24.67,15.63a41.54,41.54,0,0,0-3.92,2.86"/><path class="cls-1" d="M208.77,125.4c-.2.33-.39.67-.6,1s.33,1,.89,1.06"/><path class="cls-1" d="M209.06,127.47h0"/><path class="cls-1" d="M208.9,125.18c.53-.89,1-1.79,1.54-2.7"/><path class="cls-1" d="M227,89.85a46.54,46.54,0,0,1,8.56-9.24"/><path class="cls-1" d="M209.62,127.31a.63.63,0,0,1-.53.17"/><path class="cls-1" d="M209.62,127.31l.06,0a66.94,66.94,0,0,0,4.87-7.93"/><path class="cls-1" d="M212.51,118.47q-1,2-2.07,4"/><path class="cls-1" d="M208.77,125.4a1.59,1.59,0,0,1,.13-.22"/><path class="cls-1" d="M215.6,330.73a.57.57,0,0,1,.09-.61c11-13.24,13.86-30.65,24.33-44.21a62.85,62.85,0,0,1,15.79-14.54c6.09-3.92,13.54-7.83,21.32-9.47,1.12-.24,2.25,1.23,1.19,1.72-7.2,3.31-14.77,5.62-21.26,9.87a61.69,61.69,0,0,0-15.86,15.12c-7.45,10.05-10.85,22.19-17,32.87"/><path class="cls-1" d="M248.9,292.94a.58.58,0,0,1,.1-.6c11-13.25,13.86-30.65,24.33-44.22a63,63,0,0,1,15.79-14.54c6.09-3.92,13.53-7.83,21.31-9.47,1.13-.23,2.26,1.23,1.2,1.72-7.2,3.31-14.78,5.63-21.27,9.87a62,62,0,0,0-15.86,15.12c-7.44,10.06-10.85,22.2-17,32.88"/><path class="cls-1" d="M227,89.85c.2.55,1.08,1,1.55.46a54.39,54.39,0,0,0,7-9.7"/><path class="cls-1" d="M228.62,62.62c-.44.79-.92,1.56-1.35,2.36"/><path class="cls-1" d="M226,67.55c.44-.85.84-1.72,1.3-2.57"/><path class="cls-1" d="M226,67.55c-.4.79-.8,1.58-1.19,2.37"/><path class="cls-1" d="M211,114.39c-.23,1.12-.48,2.24-.71,3.36"/><path class="cls-1" d="M211,114.39c1.55-7.34,3.14-14.67,5.16-21.88a136.54,136.54,0,0,1,5.37-15.44"/><path class="cls-1" d="M210,125.8a1.32,1.32,0,0,1-1.08-.62"/><path class="cls-1" d="M221.56,77.07q1.42-3.45,3.05-6.81"/><path class="cls-1" d="M210.32,117.75l-.45,2.13"/><path class="cls-1" d="M209.87,119.88c-.34,1.64-.69,3.28-1,4.92a.57.57,0,0,0,.07.38"/><path class="cls-1" d="M210,125.8c.33,0,.63-.1.71-.41.63-2.3,1.23-4.61,1.82-6.92"/><path class="cls-1" d="M224.61,70.26l.17-.34"/><path class="cls-1" d="M241.31,369.86c4.21-16.59,7.71-33.48,15.33-48.82,8.72-17.56,22.55-32.11,36.51-46.45,3.9-4,7.79-8,11.82-11.91s9.1-7.49,12.51-11.89c.58-.74-.56-1.88-1.53-1.38-4.36,2.23-7.68,5.86-11,9-3.77,3.6-7.38,7.31-11,11-7.14,7.35-14.37,14.63-21,22.36A140,140,0,0,0,257.43,314"/><path class="cls-1" d="M259.33,274.62c4.21-16.6,7.71-33.48,15.32-48.83,8.72-17.56,22.56-32.11,36.52-46.44,3.9-4,7.79-8,11.82-11.92s9.09-7.49,12.51-11.88c.58-.75-.56-1.88-1.53-1.39-4.36,2.24-7.69,5.86-11,9-3.77,3.6-7.39,7.32-11,11-7.14,7.35-14.38,14.64-21,22.36a140.55,140.55,0,0,0-15.54,22.17"/><path class="cls-1" d="M323.15,262.52c1.67-6.75,5.42-13.19,8.09-19.33,4.14-9.55,8.92-19,15.25-27.47,11-14.71,27.48-24.2,44-34.14,1.15-.7-.33-2.39-1.55-1.76-17.66,9.21-34.33,20-45.21,35.14a117.7,117.7,0,0,0-9.56,16"/><path class="cls-2" d="M237,36.56q1.27-2.78,2.64-5.51"/><path class="cls-1" d="M226.32,68.61c.52.4,1.41.4,1.43-.29a28.27,28.27,0,0,1,.87-5.7"/><path class="cls-1" d="M228.44,55.94A33.63,33.63,0,0,0,226,67.55"/><path class="cls-1" d="M226,67.55c0,.14,0,.27,0,.4a.83.83,0,0,0,.37.66"/><path class="cls-2" d="M228.44,55.94c1.77-4.7,4.15-9.23,6-13.64.81-1.92,1.66-3.84,2.53-5.74"/><path class="cls-2" d="M237,36.56c.49.67,1.86.78,2-.13.25-1.78.46-3.58.66-5.38"/><path class="cls-1" d="M224.78,69.92c.36.31,1.05.4,1.19,0s.23-.84.35-1.26"/><path class="cls-1" d="M227.27,65c-.27,1.23-.59,2.44-1,3.63"/><path class="cls-1" d="M228.44,55.94a58.66,58.66,0,0,1-1.17,9"/><path class="cls-1" d="M224.78,69.92a.53.53,0,0,1-.12-.14"/><path class="cls-1" d="M224.78,67.81c-.08.53-.14,1.07-.23,1.61a.48.48,0,0,0,.11.36"/><path class="cls-1" d="M224.66,69.78c0,.16,0,.32,0,.48"/><path class="cls-1" d="M224.78,67.81c0,.66-.07,1.32-.12,2"/><path class="cls-1" d="M221.56,77.07c0,.09,0,.18-.05.27-.19,1,1.81,1.44,2,.41a63.68,63.68,0,0,0,1.08-7.49"/><path class="cls-1" d="M302.49,294.57a2.51,2.51,0,0,0,0,.27c-.2,1,1.8,1.44,2,.42a66.36,66.36,0,0,0,1.08-7.5"/><path class="cls-1" d="M210.32,117.75c0,.49.1,1,.13,1.46"/><path class="cls-1" d="M210.44,122.48a29.71,29.71,0,0,0,0-3.27"/><path class="cls-1" d="M209.78,126.64c.07-.28.15-.56.2-.84"/><path class="cls-1" d="M208.48,124c.87-7.12-2-14.69-3.22-22-1-5.75-1.27-11.43-2.09-17.14"/><path class="cls-1" d="M206.27,87.47c.57,5.82.71,11.61,1.81,17.46.43,2.28.92,4.56,1.35,6.84"/><path class="cls-1" d="M209.43,111.77c.39,2,.7,4,.89,6"/><path class="cls-1" d="M208.55,128a1,1,0,0,0,.62.05"/><path class="cls-1" d="M209.62,127.31c0,.13-.05.27-.09.4a.53.53,0,0,1-.36.35"/><path class="cls-1" d="M195.5,59.31c2.15,5.49,4.17,11,5.77,16.47.45,1.53.8,3,1.11,4.57"/><path class="cls-1" d="M209.62,127.31c.07-.22.11-.44.16-.67"/><path class="cls-1" d="M195.5,59.31c-.55-1.42-1.1-2.84-1.67-4.25"/><path class="cls-1" d="M210,125.8a21.91,21.91,0,0,0,.46-3.32"/><path class="cls-1" d="M208.48,124a19.14,19.14,0,0,1-.59,3c-.13.44.24.84.66,1"/><path class="cls-1" d="M202.38,80.35c.31,1.51.57,3,.79,4.51"/><path class="cls-1" d="M206.18,86.58l.09.89"/><path class="cls-1" d="M305.8,321.86c.93-9.85.43-19.95,2.32-29.63,2.07-10.57,3.74-21,.74-32.31C304.29,242.7,290.31,226,272,215.64a1.2,1.2,0,1,0-1.35,2c8.42,6.43,16.91,12,23.56,19.92a59.63,59.63,0,0,1,12.43,24.72c2.6,11,.44,21.21-1.3,31.52-1.4,8.31-.85,17-1.1,25.47"/><path class="cls-1" d="M209.43,111.77c-.07,2.47-.2,4.93-.47,7.37-.06.48.47.77.91.74"/><path class="cls-1" d="M211,114.39c-.15,1.61-.34,3.22-.58,4.82"/><path class="cls-1" d="M210.45,119.21a1.6,1.6,0,0,0,0,.23.54.54,0,0,1-.55.44"/><path class="cls-1" d="M206.18,86.58l.12.21a.61.61,0,0,1,0,.68"/><path class="cls-1" d="M206.18,86.58a58.93,58.93,0,0,0-3.8-6.23"/><path class="cls-1" d="M202.38,80.35c-6.86-10-16.95-18.57-28.4-25.09a111.78,111.78,0,0,0-22.76-9.78c-7.3-2.22-15.86-4.28-23.1-3.51-1.39.15-1.58,2.11.16,2.34,7.33,1,14.38,1.48,21.71,3.47a102.57,102.57,0,0,1,21.64,8.76c13,7,24.53,16.8,31.54,28.32"/><path class="cls-1" d="M203.17,84.86c.48.78,1,1.56,1.43,2.36a1.06,1.06,0,0,0,1.67.25"/><path class="cls-1" d="M195.5,59.31c.48.47,1,.92,1.46,1.4.91.92,2.46.09,1.58-.87-1.48-1.64-3.06-3.23-4.71-4.78"/><path class="cls-1" d="M262.06,337a123.27,123.27,0,0,1,26.68-11.35,141.49,141.49,0,0,1,49.17-6.07c34.43,2.14,67,19,95.74,38.38"/><path class="cls-1" d="M262.06,337c-2.44,1.43-4.79,3-7,4.57"/><path class="cls-1" d="M180.61,424.08c-9.37-9.73-15.63-20.67-16.29-32.32-.34-6.11,1-11.66,2.14-17.44,1.4-7.23,1.74-14.71,2.29-22.13s1.15-14.86,3.48-21.76c2.05-6.06,6.35-10.85,11.25-15.23,4.72-4.21,9.87-8.14,13.62-13.07,3.08-4.05,5.57-8.33,9.22-12a35.53,35.53,0,0,1,15.08-9.49c6.85-2,14-1.22,21.49,1,1.41.41,1.91-1.46.53-2-12.53-4.67-24.84-2.4-33.6,3.94a47.73,47.73,0,0,0-11.13,11.68,74.21,74.21,0,0,1-12.13,14.23c-5.06,4.44-10.36,8.75-13.8,14.33-3.68,6-4.77,13.23-5.53,20.2-.89,8.11-1,16.37-2,24.45-.84,6.63-2.89,12.93-3,19.72-.21,13.15,6.19,25.66,16.92,36.74C180,425.79,181.46,425,180.61,424.08Z"/><path class="cls-1" d="M262.06,337c.84.23,1.46,1.24.59,1.65a63.33,63.33,0,0,1-7.63,2.92"/><path class="cls-1" d="M194.58,379.8a114.92,114.92,0,0,0,11.6-8.87c8.37-7.59,13.35-17.78,24.12-23.4,9.4-4.91,21.21-6.11,30.93-10.52a1.25,1.25,0,0,1,.83-.05"/><path class="cls-1" d="M167.73,431.22c-1-10.21-4-20.6-.49-30.13,4.55-12.49,12.88-23.38,19.38-35,5.74-10.24,10.64-21.26,10.8-33.41.16-11.79-4.32-23.71-12.65-34.45-8.9-11.47-22.28-23.25-37-29.18-1.41-.56-2.09,1-.77,1.66,26.7,13.86,48.72,36.95,47.87,62.42s-21.35,43.68-29.69,66.46c-2.11,5.78-2.33,11.69-1.39,18.08,1,7.12,3,14.31,3,21.36"/><path class="cls-1" d="M211.7,316.29c-.08-.7-.18-1.4-.27-2.1"/><path class="cls-1" d="M211,311.53c-.08-.46-.19-.91-.28-1.37"/><path class="cls-1" d="M211.43,314.19l-.09-.58"/><path class="cls-1" d="M194.61,377c2.7-5.67,4.74-11.72,7.3-17.23a141.42,141.42,0,0,0,6.44-15.93"/><path class="cls-1" d="M211.7,316.29A60,60,0,0,1,210,338.24"/><path class="cls-1" d="M211.34,313.58v0"/><path class="cls-1" d="M211,311.53c.13.68.22,1.37.32,2.05"/><path class="cls-1" d="M208.35,343.79c.6-1.83,1.15-3.68,1.63-5.55"/><path class="cls-1" d="M194.58,379.8c7.64-7.45,13.26-16.21,19-24.93,6-9.1,12.29-20.87,24.29-25.13,9.75-3.46,21.38-3.2,31.11-6.84A42.74,42.74,0,0,0,281,316.11c4-3.25,6.6-7.29,9.85-11,7.46-8.6,18.19-14,32.43-11.94,1.37.2,1.52-1.36.16-1.74-10.84-3-21,.61-28.13,6-8.45,6.36-12.35,15.77-22.14,21.06s-22.08,5.49-33.35,8.37c-11.7,3-18.05,11.65-23.84,20-7,10.12-13,20.92-21.41,30.14"/><path class="cls-1" d="M208.35,343.79c3.26-3.91,5.5-8.38,7.89-12.78a55.65,55.65,0,0,1,10-13.36A47.62,47.62,0,0,1,240,308c5.34-2.4,11.42-3.44,17.53-4.45a144.53,144.53,0,0,0,16.4-3.2,54.74,54.74,0,0,0,14.54-7c9.93-6.37,18.89-13.89,30.09-18.89a45.26,45.26,0,0,1,15.78-4c5.79-.34,11.8.4,17.72.91,1.81.16,1.64-2.39-.17-2.66-10.15-1.49-20.48-1.72-29.47,1.13-11.54,3.65-20.64,10.71-29.84,17.07-4.94,3.42-9.93,7.07-15.81,9.43-5.34,2.14-11.35,3.2-17.3,4.2s-11.64,2-16.92,4a51.08,51.08,0,0,0-13.8,8.12A53.2,53.2,0,0,0,217,325.52c-2.61,4.12-4.55,8.56-7.05,12.72"/><path class="cls-1" d="M210,338.24a36.88,36.88,0,0,1-3.88,5.43c-.62.71.82,1.77,1.46,1.06.27-.3.53-.62.79-.94"/><path class="cls-1" d="M265,277.44l-.41.08"/><path class="cls-1" d="M216.8,305.48a63.44,63.44,0,0,1-4.76,7.3"/><path class="cls-1" d="M273.89,275.64q2.58-.56,5.12-1.23"/><path class="cls-1" d="M257.64,279c2.3-.52,4.62-1,7-1.45"/><path class="cls-1" d="M210.8,314.14c-.25.27-.51.53-.79.79-.85.77.78,2,1.69,1.36"/><path class="cls-1" d="M265,277.44c3-.58,5.94-1.15,8.88-1.8"/><path class="cls-1" d="M292.34,269.18a62.06,62.06,0,0,1-12.86,5.12l-.47.11"/><path class="cls-1" d="M210.8,314.14c.18-.17.35-.35.51-.53"/><path class="cls-1" d="M216.8,305.48a.16.16,0,0,0,0-.07,40,40,0,0,1,6.84-8.36,74.29,74.29,0,0,1,18.66-13.19,72.11,72.11,0,0,1,15.3-4.89"/><path class="cls-1" d="M292.34,269.18c7.82-4.11,14.58-9.43,21.57-14.52,9.66-7,22.17-9.93,35.94-9.66,15.75.31,32.22,7.17,45.78,15.61,1.45.9.17,2.52-1.3,1.9-8.62-3.64-16.6-8.42-25.53-11.4a68,68,0,0,0-26.47-3.1,53.15,53.15,0,0,0-18.84,4.55c-5.6,2.63-10.08,6.45-14.85,9.93-9.77,7.14-20.17,13-33.5,15.49-12.47,2.32-25.21,4-35.49,10a74.41,74.41,0,0,0-16.84,13.27c-4.3,4.61-6.21,10.68-11,15a.53.53,0,0,1-.1.06"/><path class="cls-1" d="M212,312.78c-.23.27-.46.54-.7.8"/><path class="cls-1" d="M211.34,313.58l0,0"/><path class="cls-1" d="M292.34,269.18A37,37,0,0,1,271.5,278a1,1,0,0,1-1.14-.78"/><path class="cls-1" d="M273.5,275.84a36.64,36.64,0,0,0,5.51-1.43"/><path class="cls-1" d="M270.36,277.19a.8.8,0,0,1,.76-1c.83-.09,1.59-.25,2.38-.39"/><path class="cls-1" d="M292.34,269.18c6.28-5.26,11-12.08,16.29-18.48,11.8-14.34,30.65-21.12,52.69-21.21,2,0,1.38-2.48-.56-2.59-20-1.13-39.57,6.23-51,18.18-9.87,10.29-15.81,24.11-30.71,29.33"/><path class="cls-1" d="M270.36,277.19a31.11,31.11,0,0,1-4.17,1.22,1.45,1.45,0,0,1-1.54-.74"/><path class="cls-1" d="M270.36,277.19a31.56,31.56,0,0,0,3.14-1.35"/><path class="cls-1" d="M273.89,275.64l-.39.2"/><path class="cls-1" d="M264.65,277.67l0-.15"/><path class="cls-1" d="M267,276.05c-.6.17-1.21.33-1.84.46a.71.71,0,0,0-.59,1"/><path class="cls-1" d="M273.89,275.64c11.51-6,17.63-18.65,23.58-28.29,9.28-15.06,21.33-30.09,41.5-35.63,13.12-3.6,27.26-3.73,41.38,2.16,1.42.59,2.7-1,1.27-1.86-10-6.05-23.05-6.18-33.39-4.82-11,1.44-21,5.06-29,10.84-14.76,10.61-22.13,26-31.56,40.1-4.82,7.2-10.86,15.09-20.64,17.91"/><path class="cls-1" d="M257.64,279l-.12,0c-1.18.52.26,2.12,1.44,1.63a38.28,38.28,0,0,0,5.69-3"/><path class="cls-1" d="M264.65,277.67l.36-.23"/><path class="cls-1" d="M267,276.05c8.33-6.15,13.79-15.06,18.51-23.49A96.63,96.63,0,0,0,294.27,232a162.39,162.39,0,0,1,8.12-23.28c.58-1.25-1.69-2.15-2.43-1.07C295.61,214,294,221.89,292,229.2a96.72,96.72,0,0,1-8.26,20.7c-6,11-13,23.28-26.11,29.07"/><path class="cls-1" d="M267,276.05c-.66.48-1.33.94-2,1.39"/><path class="cls-1" d="M229.23,276c-6.18,8.7-9.75,19-14.47,28.61"/><path class="cls-1" d="M216.8,305.48c3.19-6,5.72-12.28,8.77-18.35,4.76-9.48,11.05-17.5,21.16-23.15,8.48-4.75,17.81-8.51,23.6-15.78a58.78,58.78,0,0,0,7.48-13c2-4.41,4.88-9,5.91-13.75.22-1-1.59-1.68-2.25-1-3.41,3.57-4.64,9.1-6.55,13.47-2.23,5.08-4.72,10.11-8.54,14.33-6.33,7-16.48,10.39-24.67,15.63a45.24,45.24,0,0,0-3.91,2.86"/><path class="cls-1" d="M211,311.53c-.2.34-.39.68-.59,1s.32,1,.88,1.07"/><path class="cls-1" d="M211.31,313.61h0"/><path class="cls-1" d="M211.15,311.31c.53-.89,1-1.78,1.55-2.69"/><path class="cls-1" d="M229.23,276a46.37,46.37,0,0,1,8.57-9.25"/><path class="cls-1" d="M211.88,313.45a.61.61,0,0,1-.54.16"/><path class="cls-1" d="M211.88,313.45s0,0,.05-.05a65.53,65.53,0,0,0,4.87-7.92"/><path class="cls-1" d="M214.76,304.6c-.66,1.36-1.34,2.7-2.06,4"/><path class="cls-1" d="M211,311.53a1.59,1.59,0,0,0,.13-.22"/><path class="cls-1" d="M229.23,276a.6.6,0,0,1,.1-.61c11-13.24,13.86-30.65,24.33-44.21a62.85,62.85,0,0,1,15.79-14.54c6.09-3.92,13.54-7.83,21.32-9.47,1.12-.24,2.25,1.23,1.19,1.72-7.2,3.31-14.78,5.63-21.27,9.87a61.65,61.65,0,0,0-15.85,15.12c-7.45,10.06-10.86,22.2-17,32.87"/><path class="cls-1" d="M229.23,276c.21.54,1.08,1,1.55.45a53.6,53.6,0,0,0,7-9.7"/><path class="cls-1" d="M230.88,248.75c-.45.79-.93,1.57-1.36,2.37"/><path class="cls-1" d="M228.22,253.69c.44-.86.85-1.73,1.3-2.57"/><path class="cls-1" d="M228.22,253.69c-.4.78-.8,1.57-1.18,2.36"/><path class="cls-1" d="M213.29,300.53l-.72,3.36"/><path class="cls-1" d="M213.29,300.53c1.54-7.35,3.13-14.68,5.15-21.89a136.38,136.38,0,0,1,5.37-15.43"/><path class="cls-1" d="M212.24,311.93a1.35,1.35,0,0,1-1.09-.62"/><path class="cls-1" d="M223.81,263.21q1.44-3.46,3.06-6.82"/><path class="cls-1" d="M212.57,303.89c-.14.71-.3,1.42-.45,2.12"/><path class="cls-1" d="M212.12,306c-.34,1.64-.68,3.29-1,4.92a.55.55,0,0,0,.06.38"/><path class="cls-1" d="M212.24,311.93a.63.63,0,0,0,.71-.4q.95-3.45,1.81-6.93"/><path class="cls-1" d="M226.87,256.39c0-.11.11-.22.17-.34"/><path class="cls-1" d="M214.76,304.6c4.21-16.59,7.72-33.47,15.33-48.82,8.72-17.56,22.55-32.11,36.51-46.45,3.9-4,7.79-8,11.82-11.91s9.1-7.49,12.51-11.88c.58-.75-.56-1.88-1.53-1.39-4.36,2.24-7.68,5.86-11,9-3.77,3.6-7.38,7.31-11,11-7.14,7.35-14.37,14.64-21,22.36a140.48,140.48,0,0,0-15.53,22.17"/><path class="cls-1" d="M230.88,248.75c1.67-6.75,5.42-13.19,8.09-19.33,4.14-9.55,8.92-19,15.25-27.47,11-14.7,27.48-24.2,44-34.14,1.15-.69-.34-2.38-1.55-1.75-17.66,9.2-34.33,20-45.21,35.13a117.81,117.81,0,0,0-9.56,16"/><path class="cls-1" d="M239.25,222.69c.85-1.84,1.72-3.68,2.64-5.5"/><path class="cls-1" d="M228.58,254.75c.52.39,1.4.4,1.43-.3a27.68,27.68,0,0,1,.87-5.7"/><path class="cls-1" d="M230.69,242.08a33.53,33.53,0,0,0-2.47,11.61"/><path class="cls-1" d="M228.22,253.69c0,.13,0,.26,0,.39a.85.85,0,0,0,.38.67"/><path class="cls-1" d="M230.69,242.08c1.78-4.7,4.16-9.24,6-13.65.81-1.92,1.66-3.83,2.53-5.74"/><path class="cls-1" d="M241.89,217.19c.89-8,1.54-16,3.73-23.63a57.19,57.19,0,0,1,15-24.58,93.36,93.36,0,0,1,24.08-17.08,97.32,97.32,0,0,1,15-6.07c5.16-1.62,10.74-2.46,15.87-4.1,1.23-.4.7-2.1-.78-2.11-5.89,0-11.43,1.69-16.58,3.38a104.11,104.11,0,0,0-15.08,6.27,98.62,98.62,0,0,0-24.5,17.57c-7.07,7-12.47,15.21-15.25,24.52-2.95,9.86-3.34,20.4-4.24,30.77a.79.79,0,0,0,.18.56"/><path class="cls-1" d="M249.94,197.85c.9-8,1.54-16,3.73-23.62a57.15,57.15,0,0,1,15-24.59,93.37,93.37,0,0,1,24.07-17.08,99.37,99.37,0,0,1,15-6.07c5.16-1.62,10.74-2.46,15.87-4.1,1.24-.39.7-2.1-.78-2.11-5.88,0-11.43,1.7-16.58,3.38a104,104,0,0,0-15.07,6.27,98.49,98.49,0,0,0-24.51,17.57c-7.07,7-12.47,15.21-15.25,24.53-3,9.86-3.34,20.39-4.24,30.76a.81.81,0,0,0,.18.57"/><path class="cls-1" d="M248.74,227.44c.9-8,1.55-16,3.73-23.62a57.11,57.11,0,0,1,15-24.58,93.4,93.4,0,0,1,24.07-17.09,98.72,98.72,0,0,1,15-6.06c5.16-1.63,10.74-2.47,15.87-4.1,1.24-.4.7-2.11-.77-2.11-5.89,0-11.44,1.69-16.59,3.38a101.79,101.79,0,0,0-15.07,6.27,98.42,98.42,0,0,0-24.51,17.57c-7.06,7-12.46,15.2-15.25,24.52-2.95,9.86-3.33,20.4-4.23,30.77a.83.83,0,0,0,.17.56"/><path class="cls-1" d="M239.25,222.69c.48.67,1.85.79,2-.12.25-1.79.46-3.58.66-5.38"/><path class="cls-1" d="M230.69,242.08A91.68,91.68,0,0,0,229.11,221,106.21,106.21,0,0,0,224,202.67c-2.06-5.49-4.35-12.37-8.87-17.14-.84-.88-2.85-.63-2.41.6,1.91,5.34,5.54,10.53,7.73,15.88a105.67,105.67,0,0,1,5.62,18.52,95.6,95.6,0,0,1,.93,33.41"/><path class="cls-1" d="M227,256.05c.36.32,1,.4,1.19-.05s.22-.84.35-1.25"/><path class="cls-1" d="M229.52,251.12c-.26,1.22-.59,2.43-.94,3.63"/><path class="cls-1" d="M230.69,242.08a57.61,57.61,0,0,1-1.17,9"/><path class="cls-1" d="M227,256.05a.8.8,0,0,1-.13-.13"/><path class="cls-1" d="M227,253.94c-.07.54-.14,1.08-.22,1.61a.49.49,0,0,0,.1.37"/><path class="cls-1" d="M226.91,255.92c0,.16,0,.31,0,.47"/><path class="cls-1" d="M227,253.94q0,1-.12,2"/><path class="cls-1" d="M169.83,227.18a71.57,71.57,0,0,0,9.08-36.48c-.3-9.12-3.65-18.24-8.58-26.94-2.56-4.51-5.45-8.88-8.26-13.28s-5.22-9.82-8.57-13.88c-1.06-1.28-2.8-.59-2.41.89,1.13,4.24,4.57,8.69,7.06,12.52,2.75,4.22,5.61,8.4,8.22,12.69,5.34,8.79,9.27,18,9.72,27.39a70.35,70.35,0,0,1-13.23,44"/><path class="cls-1" d="M223.81,263.21c0,.08,0,.18,0,.26-.2,1,1.8,1.44,2,.42a66,66,0,0,0,1.08-7.5"/><path class="cls-1" d="M212.57,303.89c.05.48.11,1,.13,1.45"/><path class="cls-1" d="M212.7,308.62a29.91,29.91,0,0,0,0-3.28"/><path class="cls-1" d="M212,312.78c.07-.28.14-.56.2-.85"/><path class="cls-1" d="M210.74,310.16c.86-7.11-2-14.69-3.22-22-1-5.75-1.28-11.43-2.1-17.15"/><path class="cls-1" d="M208.53,273.6c.56,5.82.71,11.61,1.81,17.47.42,2.27.92,4.56,1.35,6.83"/><path class="cls-1" d="M211.69,297.9c.38,2,.7,4,.88,6"/><path class="cls-1" d="M210.8,314.14a.93.93,0,0,0,.63.05"/><path class="cls-1" d="M211.88,313.45c0,.13-.06.26-.1.39a.49.49,0,0,1-.35.35"/><path class="cls-1" d="M197.76,245.45c2.14,5.48,4.16,11,5.77,16.46.45,1.53.8,3,1.11,4.57"/><path class="cls-1" d="M211.88,313.45c.06-.23.1-.45.16-.67"/><path class="cls-1" d="M212.24,311.93a23.12,23.12,0,0,0,.46-3.31"/><path class="cls-1" d="M210.74,310.16a19.91,19.91,0,0,1-.6,3,.92.92,0,0,0,.66,1"/><path class="cls-1" d="M204.64,266.48c.31,1.51.57,3,.78,4.51"/><path class="cls-1" d="M208.43,272.72c0,.29.07.59.1.88"/><path class="cls-1" d="M208.43,272.72a64.26,64.26,0,0,0-1.28-8c-2.13-9.13-6.16-18.23-9.38-27.27-2.88-8.08-6.86-15.76-8.61-24-.27-1.24-2.42-1.43-2.56-.24-.82,6.92,4.21,15,7,21.85l2.48,6.12"/><path class="cls-1" d="M213.29,300.53c.93-9.85.42-19.95,2.31-29.63,2.07-10.57,3.74-21,.74-32.32-4.57-17.22-18.54-33.93-36.9-44.28a1.2,1.2,0,1,0-1.35,2c8.43,6.42,16.92,12,23.56,19.92a59.53,59.53,0,0,1,12.43,24.71c2.6,11,.45,21.21-1.29,31.52-1.41,8.31-.85,17-1.1,25.47"/><path class="cls-1" d="M211.69,297.9c-.07,2.47-.2,4.94-.48,7.38-.05.47.48.76.91.73"/><path class="cls-1" d="M213.29,300.53c-.16,1.61-.34,3.21-.59,4.81"/><path class="cls-1" d="M212.7,305.34l0,.23a.52.52,0,0,1-.55.44"/><path class="cls-1" d="M208.43,272.72l.13.21a.59.59,0,0,1,0,.67"/><path class="cls-1" d="M208.43,272.72a58.31,58.31,0,0,0-3.79-6.24"/><path class="cls-1" d="M211.67,260.09c-6.87-10-17-18.57-28.41-25.09a111.46,111.46,0,0,0-22.75-9.78c-7.3-2.22-15.86-4.28-23.1-3.51-1.4.15-1.59,2.11.16,2.34,7.33,1,14.38,1.48,21.7,3.47a102.65,102.65,0,0,1,21.65,8.76c13,7,24.53,16.8,31.53,28.32"/><path class="cls-1" d="M205.42,271c.48.79,1,1.56,1.43,2.36a1.06,1.06,0,0,0,1.68.25"/><path class="cls-1" d="M437.81,360.76c.18-6.91-3.52-14.07-8.68-20.27a96.92,96.92,0,0,0-27.63-23,64.74,64.74,0,0,0-32.75-7.9c-9.48.31-18.57,1.95-28.11,2.05-11.74.12-22.67-2.9-30.5-12.08-1.35-1.58-3.82-.18-2.54,1.4A36.67,36.67,0,0,0,329.72,314c9.29,1.7,18.42.73,27.26-.09,9.27-.85,18.44-1.71,28.16.79,14.12,3.63,25.63,12.29,35.37,21.92a56.78,56.78,0,0,1,9.82,12.13,33.34,33.34,0,0,1,3.32,9.13"/><path class="cls-1" d="M338.62,113.59c9.62.61,18.95,1.45,28.49,4.44a143,143,0,0,1,13.58,5.45c4.16,1.78,8.7,3.76,13.15,3.77a1.41,1.41,0,0,0,.27-2.8c-4.59-1.55-9.09-3.08-13.56-5a107.37,107.37,0,0,0-14-5.26c-9.56-2.59-19-3.2-28.55-3.64C335.65,110.46,336.34,113.45,338.62,113.59Z"/><path class="cls-1" d="M201.51,264.87c-2.85-8.26-1.62-16.79,1.54-24s8.77-14,17.78-16.19c1.38-.34.37-2.27-1-1.92-9.34,2.32-15.37,9.21-18.75,16.58-3.48,7.61-4.71,16.79-1.5,25.56C199.94,265.94,201.89,266,201.51,264.87Z"/><path class="cls-1" d="M159.79,302.34a29.65,29.65,0,0,0-1.45,2.87"/><path class="cls-1" d="M157.43,301.8c-3.36,5.17-5,11-5.79,17.12-.89,6.52-1.7,13.48-.65,20.3,2,13.06,11.65,25.06,18.74,37.15.67,1.15,2.65.67,2-.5-6.29-11.6-15.1-23-17.5-35.29-1.24-6.38-.49-12.87.2-19,.63-5.58,1.61-11.28,3.89-16.37"/><path class="cls-1" d="M159.51,301.12c.37.29.59.69.37,1.05l-.09.17"/><path class="cls-1" d="M159.51,301.12c-.49-.39-1.26-.56-1.6-.07-.17.25-.31.5-.48.75"/><path class="cls-1" d="M133.4,216.51c-.71.72-1.44,1.44-2.16,2.15"/><path class="cls-1" d="M133.4,216.51c6-6,11.4-12.29,12.92-20.82,1.89-10.62-.84-22.9-8-33.21-.95-1.37-3.41-.39-2.59,1,5.63,9.69,8.56,20.24,7.25,30.11-1.52,11.45-10.46,18.83-18.31,27-3.74,3.87-7.27,8-9.24,12.9a36.13,36.13,0,0,0-2.22,13.76c0,5.34.63,10.78-.17,16A39.6,39.6,0,0,1,107,278.6c-6.84,10.64-17.61,18.9-28.54,26.39-1.09.75.4,2.47,1.54,1.76,10.1-6.33,19.7-13.4,26.71-22.3s10.18-19,9.82-30.63c-.17-5.67-.48-11.47,1.1-16.79,1.74-5.87,5.76-10.54,10.16-14.93,1.16-1.16,2.33-2.3,3.5-3.44"/><path class="cls-1" d="M124,293.16a66.7,66.7,0,0,1,.62-9.76"/><path class="cls-1" d="M136.9,248.51c.1-1.11.16-2.23.15-3.4-.1-8.73-2.44-17.72-5.81-26.45"/><path class="cls-1" d="M139.7,252.75a43.76,43.76,0,0,1-2.71,8.61"/><path class="cls-1" d="M124.62,283.4a39,39,0,0,1,3.52-11.72c2.37-4.82,4.89-9.35,6.64-14.17"/><path class="cls-1" d="M123.83,247c4.31,9.73,6.9,20,6.93,29.78a33.07,33.07,0,0,1-.64,6.46"/><path class="cls-1" d="M134.78,257.51a36.5,36.5,0,0,0,2.12-9"/><path class="cls-1" d="M124,293.16q0,3.15.19,6.4a114.82,114.82,0,0,1-2,28.9,182.57,182.57,0,0,1-10.5,33c-.3.72,1.06,1.32,1.41.63,9-18,14.89-37.7,14.17-58.56-.18-5-.51-10-.28-14.9a37.36,37.36,0,0,1,4.25-15.54c2-3.95,4.07-7.76,5.72-11.7"/><path class="cls-1" d="M133.4,216.51c-.13-.3-.25-.62-.4-.93-.73-1.6-3.35-.9-2.71.68.33.8.64,1.6,1,2.4"/><path class="cls-1" d="M124,293.16c.38-.87.78-1.73,1.12-2.61,1-2.47,2.52-5.4,2.1-8.22-.1-.65-1.34-1.12-1.73-.56a9.74,9.74,0,0,0-.87,1.63"/><path class="cls-1" d="M124.62,283.4c-.78,1.84-1.14,3.94-1.84,5.76-1.11,2.85-2.39,5.63-3.75,8.37-3,6-6.24,11.79-9.28,17.73-5.69,11.12-11.27,23.25-9.89,36.49.74,7.1,3.89,14,9.18,20.26,1,1.13,2.77.13,1.82-1-20.63-24.54,0-51.31,10.16-71.44q1.59-3.17,3-6.41"/><path class="cls-1" d="M108.11,220.64c-.89,4.59-.75,9.47-1.27,14.16A115.72,115.72,0,0,1,104.66,248a95.09,95.09,0,0,1-9.57,24.55,122.75,122.75,0,0,1-10.81,17.14c-4.23,5.41-9.38,10.84-16.81,13.32-1.48.49-.36,2.64,1.13,2.15,14.72-4.88,22.2-19.1,28.52-30.52a100,100,0,0,0,9.9-24.46,113,113,0,0,0,2.53-14.23c.57-4.91,1.29-10,.63-15.08C110.05,219.79,108.28,219.75,108.11,220.64Z"/><path class="cls-1" d="M90.68,242c-.1,3.56.6,7.17.28,10.72a39.17,39.17,0,0,1-2.75,11.37c-2.89,7-7.9,13.69-15.79,17.1-6.5,2.81-14.78,2.38-22.37,2.46-8,.09-16.21.17-23.58,2-7.65,1.94-13.13,6.07-14.86,12.81-.37,1.41,2.76,2.43,3.14,1,3.87-14.38,26-12.64,40.85-12.8,7.71-.09,15.14-.52,21.32-3.88a33.46,33.46,0,0,0,14.44-16.49,41.91,41.91,0,0,0,3.23-12.48c.36-3.71.62-8.07-1.13-11.89C92.92,240.79,90.71,240.82,90.68,242Z"/><path class="cls-1" d="M134.78,257.51c1.25-2.71,2.5-5.42,3.79-8.11.4-.84-1.11-1.54-1.67-.89"/><path class="cls-1" d="M136.9,248.51s-.08.06-.1.11c-9.28,17-16.52,35.1-30.08,49.72-6.5,7-14.35,12.86-22.79,18.19-7.88,5-15.9,9.66-22.29,16a66.22,66.22,0,0,0-15.35,23.19c-.73,2,2.76,3.49,3.78,1.67,4.21-7.51,7.77-15,13.89-21.45,6.33-6.65,14.46-11.47,22.41-16.64S101.7,308.61,107.91,302a110.75,110.75,0,0,0,16.59-23.37c3.76-6.91,7-14,10.28-21.16"/><path class="cls-1" d="M42.37,330.6a54.59,54.59,0,0,0-18.61,15.51,44.11,44.11,0,0,0-5.91,10.25c-1.33,3.31-2.88,7.37-2.15,11.16.27,1.41,2.87,2,3.35.7,1.41-3.89,1.62-8.08,3.35-11.9a45.09,45.09,0,0,1,7.39-11.21C35,339.31,41.46,335,49,331.38c11.28-5.39,29.43-12.5,28.5-26-.09-1.38-3-1.68-2.9-.29.31,7.27-6.4,12.12-12.48,15.73S48.89,327.26,42.37,330.6Z"/><path class="cls-1" d="M86.73,350.43c-.47,9.06,4.14,18.46,9.53,26.95.79,1.23,3,.7,2.21-.55-3.17-5.13-6-10.38-7.59-15.84a33.38,33.38,0,0,1-1.08-12.64c.31-3.09.8-6.57-.65-9.77a8.4,8.4,0,0,0-8.89-4.36c-1.23.22-.85,2,.47,2.18,1.64.25,3.43.09,4.77,1.31a5.86,5.86,0,0,1,1.58,3.72C87.49,344.49,86.89,347.46,86.73,350.43Z"/><path class="cls-1" d="M139.7,252.75c-.54-.88-2.19-1-2.4.07a32.88,32.88,0,0,0-.31,8.54"/><path class="cls-1" d="M137,261.36c.57,6.9,2.7,14,3.68,20.88,1.51,10.53-1.75,19.65-4.32,29.26-4.23,15.79-2.12,32.64,8.37,48.7,5.77,8.83,13.34,16.82,21.83,24.11,1.42,1.22,3-.52,1.67-1.73-14.66-12.79-26.46-28.29-29.87-45a54,54,0,0,1,1.22-25.41c2.36-8.71,5.34-17.06,4.64-26.52-.79-10.77-4.59-21.59-4.33-32.31a1.21,1.21,0,0,0-.18-.6"/><path class="cls-2" d="M319.29,418.53c1.18-.74,1.41-1.84,2.12-2.9a9.74,9.74,0,0,1,2.47-2.49,15.76,15.76,0,0,1,6.7-2.45c5.58-.84,11.15.41,16.77,2.34,5.3,1.83,10.88,3.32,16.29,3.13a21.08,21.08,0,0,0,13.47-5.22c1.2-1.06-1.19-2.74-2.4-1.75-4.16,3.4-9.64,4.58-16,3.5-5.77-1-11-3.63-16.6-5.1a32.19,32.19,0,0,0-16.46-.24,17.44,17.44,0,0,0-6.65,3.46c-1.61,1.39-3.92,3.91-3.21,6.19C316.2,418.26,318,419.32,319.29,418.53Z"/><path class="cls-1" d="M311.38,414.92a31.46,31.46,0,0,1-1.29-4.11,22.55,22.55,0,0,1-.58-8.05c.66-5.58,4-10.1,8.93-13.28,1.51-1-.55-3.33-2.09-2.37-5.47,3.41-9.24,8.21-10.28,14.23a24.23,24.23,0,0,0,.19,8.52,32.81,32.81,0,0,0,1.29,4.75c.51,1.44,1,3.23,2.21,4.44.88.87,2.84.92,2.83-.35A11.73,11.73,0,0,0,311.38,414.92Z"/><path class="cls-2" d="M273.34,425.35c.6-2.15.18-4,2.45-5.31,1.92-1.15,4.56-1.48,7-1.57a40.33,40.33,0,0,1,15.23,2.44c9.3,3.41,22.67,11.2,31.35,6.16,1.29-.74-.38-2.63-1.71-1.92-5.08,2.69-12.26-.18-17.79-2.56-5.25-2.26-10.4-5.15-16-6.49a40.11,40.11,0,0,0-16.89-.75c-4.49.92-10.09,4.78-7.15,9.65C270.59,426.13,273,426.71,273.34,425.35Z"/></g></svg>